<?xml version="1.0" encoding="UTF-8"?><svg id="hero-bottom-design" xmlns="http://www.w3.org/2000/svg" viewBox="0 0 439 383"><defs><style>.cls-1{fill:#000;stroke-width:0px;}</style></defs><path class="cls-1" d="M396.53,69.59c9.27,8,14.08,16.21,14.44,24.6.35,8.4-5.27,17.01-16.85,25.83-2.83,2.51-5.68,4.76-8.55,6.75-2.87,1.98-5.63,3.74-8.26,5.26-2.64,1.52-5.33,2.92-8.07,4.18l.12,1.59c5.99-.44,12.13-.85,18.39-1.22,6.27-.37,12.98-.69,20.14-.95,7.16-.26,15.11-.09,23.84.51.66,4.21,1.03,8.08,1.12,11.62.08,3.54-.35,7.38-1.28,11.53-1.72,10.4-5.24,18.02-10.56,22.85-5.32,4.82-12.1,5.49-20.33,2.02-5.12-2.1-9.75-4.2-13.89-6.29-4.14-2.09-8.14-4.06-12-5.9-3.86-1.84-7.93-4.12-12.2-6.82l-1.47,1.7c4.56,6.58,8.5,12.54,11.82,17.88,3.32,5.34,6.69,10.81,10.11,16.41,3.42,5.6,7.19,12.33,11.32,20.18-3.35,2.73-6.55,5.09-9.59,7.08-3.05,2-6.66,3.5-10.84,4.52-10.02,3.57-18.27,4.23-24.72,1.95-6.46-2.27-10.56-7.95-12.29-17.05-1.07-4.88-1.68-9.54-1.82-13.96-.15-4.42-.25-8.89-.32-13.41-.07-4.52-.38-9.32-.93-14.43l-2.2-.9c-1.84,4.04-3.61,7.62-5.33,10.77-1.72,3.14-3.49,6.24-5.3,9.3-1.82,3.06-3.66,6.25-5.55,9.58-2.49,4.79-4.57,9.02-6.25,12.69-1.68,3.67-2.94,7.13-3.76,10.38s-1.72,6.77-2.68,10.57c-4.93-1.94-9.43-4.09-13.5-6.45-4.08-2.36-8.3-5.6-12.68-9.71-9.47-8.17-14.42-16.49-14.86-24.97-.45-8.47,5.32-16.97,17.28-25.47,2.66-2.32,5.57-4.36,8.73-6.09,3.15-1.74,6.25-3.6,9.3-5.6,3.04-2,6.34-4.1,9.91-6.31l-.65-1.55c-7.76.57-14.91,1.01-21.44,1.31-6.54.3-13.04.56-19.49.77-6.46.21-13.59.25-21.4.11-.61-3.51-1.03-7.33-1.24-11.48-.22-4.15-.04-8.28.55-12.4,2.07-10.43,5.72-18.1,10.94-23.01,5.23-4.9,12.04-5.54,20.47-1.9,4.93,1.94,9.37,3.87,13.32,5.8,3.95,1.93,7.96,3.98,12.02,6.17,4.06,2.19,8.5,4.69,13.32,7.53l1.47-1.71c-4.05-6.79-7.96-12.98-11.73-18.55-3.78-5.57-7.43-11.19-10.94-16.88-3.52-5.68-7.14-12.11-10.85-19.28,2.66-2.32,5.64-4.62,8.93-6.9,3.29-2.28,7.01-4.11,11.17-5.48,10.39-3.24,18.91-3.74,25.55-1.47,6.63,2.26,10.63,7.78,11.98,16.54.71,4.91,1.24,9.66,1.57,14.25.33,4.59.58,9.17.75,13.77.16,4.6.24,9.38.26,14.34l2.15.37c1.55-2.95,3.19-5.99,4.91-9.14,1.72-3.14,3.43-6.37,5.14-9.68,1.7-3.31,3.22-6.71,4.57-10.18,3.39-6.99,5.86-12.53,7.43-16.63,1.56-4.1,2.84-9.02,3.83-14.77,4.52,1.26,9.01,3.24,13.47,5.93,4.45,2.69,8.95,5.99,13.49,9.91Z"/><path class="cls-1" d="M218.28,143.46c4.74,4.09,7.2,8.29,7.38,12.58.18,4.29-2.69,8.7-8.62,13.21-1.45,1.28-2.9,2.44-4.37,3.45-1.47,1.01-2.88,1.91-4.22,2.69-1.35.78-2.72,1.49-4.13,2.14l.06.81c3.06-.22,6.2-.43,9.41-.62,3.2-.19,6.64-.35,10.3-.48,3.66-.13,7.73-.04,12.19.26.34,2.15.53,4.13.57,5.94.04,1.81-.18,3.77-.66,5.9-.88,5.32-2.68,9.22-5.4,11.68-2.72,2.46-6.19,2.81-10.4,1.03-2.62-1.07-4.99-2.15-7.1-3.22s-4.16-2.08-6.14-3.02c-1.97-.94-4.05-2.11-6.24-3.49l-.75.87c2.33,3.37,4.35,6.41,6.04,9.14,1.7,2.73,3.42,5.53,5.17,8.39,1.75,2.87,3.68,6.3,5.79,10.32-1.71,1.4-3.35,2.6-4.9,3.62-1.56,1.02-3.41,1.79-5.54,2.31-5.13,1.83-9.34,2.16-12.64,1-3.3-1.16-5.4-4.07-6.28-8.72-.55-2.5-.86-4.88-.93-7.14-.08-2.26-.13-4.55-.16-6.86-.04-2.31-.19-4.77-.47-7.38l-1.12-.46c-.94,2.07-1.84,3.9-2.72,5.51-.88,1.61-1.78,3.19-2.71,4.75-.93,1.56-1.87,3.2-2.84,4.9-1.27,2.45-2.34,4.62-3.2,6.49-.86,1.88-1.5,3.65-1.92,5.31-.42,1.66-.88,3.46-1.37,5.4-2.52-.99-4.82-2.09-6.91-3.3-2.09-1.21-4.24-2.86-6.48-4.96-4.84-4.18-7.38-8.44-7.6-12.77-.23-4.33,2.72-8.68,8.84-13.02,1.36-1.19,2.85-2.23,4.46-3.12,1.61-.89,3.19-1.84,4.75-2.86,1.55-1.02,3.24-2.1,5.07-3.23l-.33-.79c-3.97.29-7.63.51-10.97.67-3.34.15-6.67.28-9.97.39-3.3.11-6.95.13-10.94.06-.31-1.79-.52-3.75-.63-5.87-.11-2.12-.02-4.24.28-6.34,1.06-5.34,2.93-9.26,5.6-11.77,2.67-2.51,6.16-2.83,10.47-.97,2.52.99,4.79,1.98,6.81,2.97,2.02.98,4.07,2.04,6.15,3.15,2.08,1.12,4.35,2.4,6.81,3.85l.75-.87c-2.07-3.47-4.07-6.64-6-9.49-1.94-2.85-3.8-5.72-5.6-8.63-1.8-2.9-3.65-6.19-5.55-9.86,1.36-1.19,2.88-2.36,4.57-3.53,1.68-1.17,3.59-2.1,5.71-2.8,5.32-1.66,9.67-1.91,13.07-.75,3.39,1.16,5.44,3.98,6.13,8.46.36,2.51.63,4.94.81,7.29.17,2.34.3,4.69.38,7.04.08,2.35.12,4.8.13,7.34l1.1.19c.8-1.51,1.63-3.07,2.51-4.67.88-1.61,1.75-3.26,2.63-4.95.87-1.69,1.65-3.43,2.34-5.2,1.73-3.57,3-6.41,3.8-8.51.8-2.1,1.45-4.62,1.96-7.56,2.31.65,4.61,1.66,6.89,3.03,2.28,1.38,4.58,3.07,6.9,5.07Z"/><path class="cls-1" d="M262.82,255.77c4.74,4.09,7.2,8.29,7.38,12.58.18,4.29-2.69,8.7-8.62,13.21-1.45,1.28-2.9,2.44-4.37,3.45-1.47,1.01-2.88,1.91-4.22,2.69-1.35.78-2.72,1.49-4.13,2.14l.06.81c3.06-.22,6.2-.43,9.41-.62,3.2-.19,6.64-.35,10.3-.48,3.66-.13,7.73-.04,12.19.26.34,2.15.53,4.13.57,5.94.04,1.81-.18,3.77-.66,5.9-.88,5.32-2.68,9.22-5.4,11.68-2.72,2.46-6.19,2.81-10.4,1.03-2.62-1.07-4.99-2.15-7.1-3.22s-4.16-2.08-6.14-3.02c-1.97-.94-4.05-2.11-6.24-3.49l-.75.87c2.33,3.37,4.35,6.41,6.04,9.14,1.7,2.73,3.42,5.53,5.17,8.39,1.75,2.87,3.68,6.3,5.79,10.32-1.71,1.4-3.35,2.6-4.9,3.62-1.56,1.02-3.41,1.79-5.54,2.31-5.13,1.83-9.34,2.16-12.64,1-3.3-1.16-5.4-4.07-6.28-8.72-.55-2.5-.86-4.88-.93-7.14-.08-2.26-.13-4.55-.16-6.86-.04-2.31-.19-4.77-.47-7.38l-1.12-.46c-.94,2.07-1.84,3.9-2.72,5.51-.88,1.61-1.78,3.19-2.71,4.75-.93,1.56-1.87,3.2-2.84,4.9-1.27,2.45-2.34,4.62-3.2,6.49-.86,1.88-1.5,3.65-1.92,5.31-.42,1.66-.88,3.46-1.37,5.4-2.52-.99-4.82-2.09-6.91-3.3-2.09-1.21-4.24-2.86-6.48-4.96-4.84-4.18-7.38-8.44-7.6-12.77-.23-4.33,2.72-8.68,8.84-13.02,1.36-1.19,2.85-2.23,4.46-3.12,1.61-.89,3.19-1.84,4.75-2.86,1.55-1.02,3.24-2.1,5.07-3.23l-.33-.79c-3.97.29-7.63.51-10.97.67-3.34.15-6.67.28-9.97.39-3.3.11-6.95.13-10.94.06-.31-1.79-.52-3.75-.63-5.87-.11-2.12-.02-4.24.28-6.34,1.06-5.34,2.93-9.26,5.6-11.77,2.67-2.51,6.16-2.83,10.47-.97,2.52.99,4.79,1.98,6.81,2.97,2.02.98,4.07,2.04,6.15,3.15,2.08,1.12,4.35,2.4,6.81,3.85l.75-.87c-2.07-3.47-4.07-6.64-6-9.49-1.94-2.85-3.8-5.72-5.6-8.63-1.8-2.9-3.65-6.19-5.55-9.86,1.36-1.19,2.88-2.36,4.57-3.53,1.68-1.17,3.59-2.1,5.71-2.8,5.32-1.66,9.67-1.91,13.07-.75,3.39,1.16,5.44,3.98,6.13,8.46.36,2.51.63,4.94.81,7.29.17,2.34.3,4.69.38,7.04.08,2.35.12,4.8.13,7.34l1.1.19c.8-1.51,1.63-3.07,2.51-4.67.88-1.61,1.75-3.26,2.63-4.95.87-1.69,1.65-3.43,2.34-5.2,1.73-3.57,3-6.41,3.8-8.51.8-2.1,1.45-4.62,1.96-7.56,2.31.65,4.61,1.66,6.89,3.03,2.28,1.38,4.58,3.07,6.9,5.07Z"/><path class="cls-1" d="M147.11,253.59c2.5,2.16,3.8,4.37,3.89,6.63.09,2.26-1.42,4.59-4.54,6.97-.76.68-1.53,1.28-2.3,1.82-.77.53-1.52,1.01-2.23,1.42-.71.41-1.44.79-2.18,1.13l.03.43c1.62-.12,3.27-.23,4.96-.33,1.69-.1,3.5-.19,5.43-.26,1.93-.07,4.07-.02,6.43.14.18,1.13.28,2.18.3,3.13.02.95-.09,1.99-.35,3.11-.46,2.81-1.41,4.86-2.85,6.16-1.43,1.3-3.26,1.48-5.48.54-1.38-.57-2.63-1.13-3.75-1.7-1.12-.56-2.2-1.09-3.24-1.59-1.04-.5-2.14-1.11-3.29-1.84l-.4.46c1.23,1.77,2.29,3.38,3.19,4.82.89,1.44,1.8,2.92,2.73,4.43.92,1.51,1.94,3.32,3.05,5.44-.9.74-1.76,1.37-2.58,1.91-.82.54-1.8.94-2.92,1.22-2.7.96-4.93,1.14-6.67.52-1.74-.61-2.85-2.14-3.31-4.6-.29-1.32-.45-2.57-.49-3.76-.04-1.19-.07-2.4-.09-3.61-.02-1.22-.1-2.51-.25-3.89l-.59-.24c-.5,1.09-.97,2.06-1.44,2.9-.46.85-.94,1.68-1.43,2.51-.49.82-.99,1.69-1.5,2.58-.67,1.29-1.23,2.43-1.69,3.42-.45.99-.79,1.92-1.01,2.8-.22.88-.46,1.83-.72,2.85-1.33-.52-2.54-1.1-3.64-1.74-1.1-.64-2.24-1.51-3.42-2.62-2.55-2.2-3.89-4.45-4.01-6.73-.12-2.29,1.43-4.58,4.66-6.87.72-.63,1.5-1.17,2.35-1.64.85-.47,1.68-.97,2.51-1.51.82-.54,1.71-1.11,2.67-1.7l-.17-.42c-2.09.15-4.02.27-5.78.35-1.76.08-3.52.15-5.26.21-1.74.06-3.66.07-5.77.03-.17-.95-.28-1.98-.33-3.1-.06-1.12,0-2.23.15-3.34.56-2.81,1.54-4.88,2.95-6.2,1.41-1.32,3.25-1.49,5.52-.51,1.33.52,2.53,1.04,3.59,1.56,1.07.52,2.15,1.07,3.24,1.66,1.09.59,2.29,1.27,3.59,2.03l.4-.46c-1.09-1.83-2.15-3.5-3.16-5-1.02-1.5-2-3.02-2.95-4.55-.95-1.53-1.92-3.26-2.93-5.2.72-.63,1.52-1.25,2.41-1.86.89-.62,1.89-1.11,3.01-1.48,2.8-.87,5.1-1.01,6.89-.4,1.79.61,2.87,2.1,3.23,4.46.19,1.32.33,2.6.42,3.84.09,1.24.16,2.47.2,3.71.04,1.24.07,2.53.07,3.87l.58.1c.42-.8.86-1.62,1.32-2.46.46-.85.93-1.72,1.39-2.61.46-.89.87-1.81,1.23-2.74.91-1.88,1.58-3.38,2-4.48.42-1.11.76-2.43,1.03-3.98,1.22.34,2.43.87,3.63,1.6,1.2.72,2.41,1.62,3.64,2.67Z"/><path class="cls-1" d="M87.2,181.71c4.04,3.49,6.14,7.07,6.29,10.73.15,3.66-2.3,7.42-7.35,11.26-1.23,1.09-2.48,2.08-3.73,2.94-1.25.86-2.45,1.63-3.6,2.29-1.15.66-2.32,1.27-3.52,1.82l.05.69c2.61-.19,5.29-.37,8.02-.53,2.73-.16,5.66-.3,8.78-.41,3.12-.11,6.59-.04,10.39.22.29,1.83.45,3.52.49,5.07.04,1.54-.15,3.22-.56,5.03-.75,4.54-2.28,7.86-4.6,9.96-2.32,2.1-5.28,2.4-8.86.88-2.23-.92-4.25-1.83-6.06-2.74-1.81-.91-3.55-1.77-5.23-2.57-1.68-.8-3.46-1.8-5.32-2.97l-.64.74c1.99,2.87,3.71,5.47,5.15,7.8,1.45,2.33,2.92,4.72,4.41,7.16,1.49,2.44,3.14,5.37,4.93,8.8-1.46,1.19-2.85,2.22-4.18,3.09-1.33.87-2.9,1.53-4.72,1.97-4.37,1.56-7.96,1.84-10.78.85-2.82-.99-4.6-3.47-5.36-7.43-.47-2.13-.73-4.16-.79-6.09-.07-1.93-.11-3.88-.14-5.85-.03-1.97-.16-4.06-.4-6.29l-.96-.39c-.8,1.76-1.57,3.32-2.32,4.69-.75,1.37-1.52,2.72-2.31,4.05-.79,1.33-1.6,2.72-2.42,4.18-1.08,2.09-1.99,3.93-2.72,5.53-.73,1.6-1.28,3.11-1.64,4.53s-.75,2.95-1.17,4.61c-2.15-.85-4.11-1.79-5.89-2.81-1.78-1.03-3.62-2.44-5.53-4.23-4.13-3.56-6.29-7.19-6.48-10.89-.19-3.7,2.32-7.4,7.54-11.1,1.16-1.01,2.43-1.9,3.8-2.66,1.37-.76,2.72-1.57,4.05-2.44,1.33-.87,2.77-1.79,4.32-2.75l-.28-.68c-3.38.25-6.5.44-9.35.57-2.85.13-5.69.24-8.5.33-2.82.09-5.92.11-9.33.05-.27-1.53-.45-3.2-.54-5-.09-1.81-.02-3.61.24-5.41.9-4.55,2.49-7.89,4.77-10.03,2.28-2.14,5.25-2.41,8.93-.83,2.15.85,4.08,1.69,5.81,2.53,1.72.84,3.47,1.74,5.24,2.69,1.77.95,3.7,2.05,5.81,3.28l.64-.74c-1.77-2.96-3.47-5.66-5.12-8.09-1.65-2.43-3.24-4.88-4.77-7.36-1.54-2.48-3.11-5.28-4.73-8.41,1.16-1.01,2.46-2.02,3.89-3.01,1.43-1,3.06-1.79,4.87-2.39,4.53-1.41,8.25-1.63,11.14-.64,2.89.99,4.63,3.39,5.22,7.21.31,2.14.54,4.21.69,6.21.15,2,.25,4,.33,6,.07,2,.11,4.09.11,6.25l.94.16c.68-1.29,1.39-2.61,2.14-3.98.75-1.37,1.5-2.78,2.24-4.22.74-1.44,1.41-2.92,1.99-4.44,1.48-3.05,2.56-5.46,3.24-7.25.68-1.79,1.24-3.93,1.67-6.44,1.97.55,3.93,1.41,5.87,2.58,1.94,1.17,3.9,2.61,5.88,4.32Z"/></svg>