<?xml version="1.0" encoding="UTF-8"?><svg id="alphabet-top-design" xmlns="http://www.w3.org/2000/svg" viewBox="0 0 439 383"><defs><style>.cls-1{fill:#000;stroke-width:0px;}</style></defs><path class="cls-1" d="M121.27,11.83c10.55,2.75,17.62,7.41,21.2,13.98,3.58,6.57,2.48,15.66-3.31,27.26-1.27,3.12-2.67,6.04-4.18,8.75-1.51,2.71-3.03,5.2-4.53,7.45-1.51,2.25-3.11,4.42-4.8,6.51l.72,1.22c4.61-2.71,9.35-5.44,14.22-8.2,4.86-2.76,10.1-5.65,15.72-8.67,5.62-3.02,12.03-6.01,19.25-8.96,2.18,3.1,4,6.05,5.46,8.84,1.46,2.79,2.62,6.03,3.51,9.71,2.72,8.99,2.9,16.46.54,22.4-2.36,5.94-7.51,9.14-15.44,9.6-4.92.33-9.44.47-13.57.43-4.13-.04-8.1-.04-11.91,0-3.81.04-7.95-.18-12.43-.65l-.51,1.94c6.23,3.47,11.72,6.68,16.47,9.64,4.75,2.96,9.59,6.01,14.53,9.14,4.93,3.13,10.59,7.02,16.97,11.67-1.6,3.5-3.23,6.64-4.87,9.43-1.65,2.8-3.95,5.42-6.88,7.87-6.6,6.79-12.93,10.55-18.99,11.27-6.06.72-11.56-2.2-16.52-8.79-2.77-3.48-5.09-6.96-6.94-10.44-1.86-3.47-3.69-7-5.52-10.59-1.83-3.58-3.96-7.3-6.41-11.16l-2.11.14c.12,3.95.12,7.51-.02,10.69-.14,3.18-.34,6.36-.58,9.51-.25,3.16-.47,6.43-.67,9.83-.1,4.81-.1,9.01,0,12.6.1,3.59.46,6.85,1.08,9.77s1.29,6.09,2.01,9.5c-4.7.39-9.15.44-13.32.15-4.19-.28-8.83-1.21-13.94-2.77-10.78-2.81-18-7.51-21.69-14.11-3.69-6.6-2.42-15.65,3.8-27.14,1.21-2.9,2.74-5.67,4.58-8.3,1.83-2.63,3.57-5.33,5.23-8.13,1.64-2.79,3.46-5.77,5.44-8.94l-1.13-.98c-5.98,3.51-11.52,6.66-16.62,9.47-5.11,2.81-10.2,5.57-15.27,8.27-5.08,2.7-10.76,5.54-17.05,8.5-1.87-2.56-3.7-5.45-5.5-8.68-1.8-3.23-3.28-6.6-4.43-10.13-2.45-9.15-2.55-16.71-.3-22.68,2.25-5.97,7.45-9.16,15.61-9.56,4.7-.38,9.01-.59,12.93-.6,3.91-.01,7.92.05,12.03.2,4.1.15,8.63.41,13.6.78l.51-1.94c-5.9-3.83-11.46-7.24-16.67-10.21-5.21-2.96-10.33-6.02-15.38-9.18-5.05-3.15-10.46-6.87-16.25-11.14,1.21-2.9,2.69-5.91,4.42-9.03,1.73-3.11,3.99-6.04,6.77-8.76,7.03-6.67,13.64-10.42,19.84-11.22,6.19-.8,11.55,2.04,16.07,8.5,2.5,3.64,4.78,7.23,6.86,10.76,2.07,3.53,4.07,7.1,6.01,10.71,1.93,3.61,3.88,7.4,5.84,11.36l1.87-.55c.08-2.97.19-6.04.33-9.23.14-3.18.24-6.44.3-9.76.06-3.32-.06-6.62-.35-9.92-.04-6.91-.24-12.31-.6-16.21-.37-3.89-1.28-8.32-2.74-13.31,4.11-.77,8.47-.95,13.09-.56,4.61.4,9.51,1.27,14.67,2.62Z"/><path class="cls-1" d="M260.88,50.01c5.77,1.5,9.64,4.06,11.6,7.65,1.96,3.59,1.36,8.56-1.81,14.91-.7,1.71-1.46,3.3-2.29,4.79-.83,1.48-1.66,2.84-2.48,4.07-.82,1.23-1.7,2.42-2.63,3.56l.39.67c2.52-1.48,5.12-2.98,7.78-4.49,2.66-1.51,5.53-3.09,8.6-4.74,3.07-1.65,6.58-3.29,10.53-4.9,1.19,1.7,2.19,3.31,2.99,4.84.8,1.53,1.44,3.3,1.92,5.31,1.49,4.92,1.59,9,.3,12.25-1.29,3.25-4.11,5-8.45,5.25-2.69.18-5.16.26-7.42.24-2.26-.02-4.43-.02-6.51,0-2.08.02-4.35-.1-6.8-.36l-.28,1.06c3.41,1.9,6.41,3.65,9.01,5.27,2.6,1.62,5.25,3.29,7.95,5,2.7,1.71,5.79,3.84,9.28,6.39-.88,1.91-1.77,3.63-2.67,5.16-.9,1.53-2.16,2.96-3.76,4.3-3.61,3.72-7.07,5.77-10.39,6.17-3.31.4-6.32-1.21-9.04-4.81-1.52-1.91-2.78-3.81-3.8-5.71-1.02-1.9-2.02-3.83-3.02-5.79-1-1.96-2.17-3.99-3.51-6.11l-1.15.08c.07,2.16.06,4.11-.01,5.85-.08,1.74-.18,3.48-.32,5.2-.14,1.73-.26,3.52-.36,5.38-.06,2.63-.06,4.93,0,6.89.05,1.97.25,3.75.59,5.35.34,1.6.7,3.33,1.1,5.19-2.57.21-5,.24-7.29.08-2.29-.15-4.83-.66-7.63-1.52-5.9-1.54-9.85-4.11-11.87-7.72-2.02-3.61-1.33-8.56,2.08-14.85.66-1.59,1.5-3.1,2.5-4.54,1-1.44,1.96-2.92,2.86-4.45.9-1.53,1.89-3.16,2.97-4.89l-.62-.54c-3.27,1.92-6.3,3.65-9.09,5.18-2.79,1.54-5.58,3.05-8.36,4.53-2.78,1.48-5.89,3.03-9.33,4.65-1.02-1.4-2.02-2.98-3.01-4.75-.99-1.77-1.8-3.61-2.43-5.54-1.34-5-1.39-9.14-.16-12.41,1.23-3.27,4.07-5.01,8.54-5.23,2.57-.21,4.93-.32,7.07-.33,2.14,0,4.33.03,6.58.11,2.24.08,4.72.22,7.44.43l.28-1.06c-3.23-2.1-6.27-3.96-9.12-5.59-2.85-1.62-5.65-3.3-8.41-5.02-2.76-1.72-5.72-3.76-8.89-6.09.66-1.59,1.47-3.23,2.42-4.94.95-1.7,2.18-3.3,3.7-4.79,3.85-3.65,7.46-5.7,10.85-6.14,3.38-.44,6.32,1.11,8.79,4.65,1.37,1.99,2.62,3.96,3.75,5.89,1.13,1.93,2.23,3.88,3.29,5.86,1.06,1.98,2.12,4.05,3.2,6.21l1.02-.3c.05-1.62.11-3.31.18-5.05.08-1.74.13-3.52.17-5.34.03-1.81-.03-3.62-.19-5.43-.02-3.78-.13-6.74-.33-8.87-.2-2.13-.7-4.55-1.5-7.28,2.25-.42,4.63-.52,7.16-.31,2.52.22,5.2.7,8.03,1.43Z"/><path class="cls-1" d="M356.52,68.69c4.27,1.11,7.13,3,8.58,5.66,1.45,2.66,1,6.34-1.34,11.03-.52,1.26-1.08,2.44-1.69,3.54-.61,1.1-1.22,2.1-1.83,3.01-.61.91-1.26,1.79-1.94,2.64l.29.49c1.87-1.1,3.79-2.2,5.75-3.32,1.97-1.12,4.09-2.29,6.36-3.51,2.27-1.22,4.87-2.43,7.79-3.63.88,1.26,1.62,2.45,2.21,3.58.59,1.13,1.06,2.44,1.42,3.93,1.1,3.64,1.17,6.66.22,9.07-.95,2.4-3.04,3.7-6.25,3.89-1.99.13-3.82.19-5.49.18-1.67-.02-3.28-.02-4.82,0-1.54.02-3.22-.07-5.03-.26l-.2.78c2.52,1.4,4.74,2.7,6.66,3.9,1.92,1.2,3.88,2.43,5.88,3.7,2,1.27,4.29,2.84,6.87,4.72-.65,1.41-1.31,2.69-1.97,3.81-.67,1.13-1.6,2.19-2.78,3.18-2.67,2.75-5.23,4.27-7.68,4.56-2.45.29-4.68-.89-6.68-3.56-1.12-1.41-2.06-2.82-2.81-4.22-.75-1.4-1.5-2.83-2.23-4.28-.74-1.45-1.6-2.95-2.59-4.52l-.85.06c.05,1.6.05,3.04,0,4.33-.06,1.29-.14,2.57-.24,3.85-.1,1.28-.19,2.6-.27,3.98-.04,1.94-.04,3.64,0,5.1.04,1.45.18,2.77.44,3.95s.52,2.46.81,3.84c-1.9.16-3.7.18-5.39.06-1.69-.11-3.57-.49-5.64-1.12-4.36-1.14-7.29-3.04-8.78-5.71-1.49-2.67-.98-6.33,1.54-10.98.49-1.17,1.11-2.29,1.85-3.36.74-1.06,1.45-2.16,2.12-3.29.67-1.13,1.4-2.33,2.2-3.62l-.46-.4c-2.42,1.42-4.66,2.7-6.72,3.83-2.07,1.14-4.13,2.25-6.18,3.35-2.05,1.09-4.35,2.24-6.9,3.44-.76-1.04-1.5-2.21-2.23-3.51-.73-1.31-1.33-2.67-1.79-4.1-.99-3.7-1.03-6.76-.12-9.18.91-2.42,3.01-3.71,6.32-3.87,1.9-.15,3.64-.24,5.23-.24,1.58,0,3.21.02,4.87.08,1.66.06,3.49.17,5.5.32l.2-.79c-2.39-1.55-4.64-2.93-6.74-4.13-2.11-1.2-4.18-2.44-6.22-3.72-2.04-1.28-4.23-2.78-6.58-4.51.49-1.17,1.09-2.39,1.79-3.65.7-1.26,1.61-2.44,2.74-3.55,2.85-2.7,5.52-4.22,8.03-4.54,2.5-.32,4.67.82,6.5,3.44,1.01,1.47,1.94,2.93,2.77,4.36.84,1.43,1.65,2.87,2.43,4.33.78,1.46,1.57,2.99,2.36,4.6l.76-.22c.03-1.2.08-2.45.14-3.74.06-1.29.1-2.6.12-3.95.02-1.34-.02-2.68-.14-4.02-.02-2.8-.1-4.98-.24-6.56-.15-1.57-.52-3.37-1.11-5.39,1.66-.31,3.43-.39,5.3-.23,1.87.16,3.85.51,5.94,1.06Z"/><path class="cls-1" d="M119.47,245.48c-1.23,5.84-3.6,9.82-7.09,11.95-3.5,2.13-8.49,1.76-14.98-1.1-1.74-.62-3.37-1.3-4.89-2.06-1.52-.76-2.92-1.52-4.19-2.28-1.27-.77-2.5-1.59-3.68-2.46l-.65.42c1.6,2.45,3.22,4.97,4.85,7.56,1.63,2.58,3.35,5.37,5.15,8.36,1.8,2.99,3.59,6.42,5.39,10.29-1.64,1.27-3.2,2.34-4.69,3.21-1.49.87-3.23,1.59-5.22,2.17-4.84,1.72-8.92,2.01-12.23.88-3.31-1.13-5.19-3.87-5.65-8.19-.31-2.68-.5-5.15-.59-7.4-.08-2.26-.19-4.43-.31-6.51-.12-2.08-.11-4.35.03-6.81l-1.07-.23c-1.73,3.49-3.35,6.58-4.84,9.25-1.5,2.67-3.04,5.4-4.62,8.18-1.58,2.78-3.56,5.97-5.94,9.58-1.95-.78-3.71-1.59-5.28-2.42-1.57-.83-3.06-2.02-4.48-3.56-3.88-3.43-6.1-6.79-6.65-10.08-.55-3.29.91-6.37,4.38-9.25,1.83-1.61,3.67-2.96,5.52-4.06,1.85-1.1,3.73-2.2,5.64-3.29,1.91-1.09,3.89-2.36,5.93-3.79l-.13-1.15c-2.15.17-4.1.26-5.84.26-1.74,0-3.48-.02-5.21-.07-1.73-.06-3.53-.09-5.39-.11-2.63.07-4.92.18-6.88.32-1.96.15-3.73.43-5.31.84-1.58.41-3.29.86-5.14,1.34-.33-2.56-.48-4.99-.43-7.28.05-2.29.43-4.86,1.15-7.69,1.26-5.96,3.64-10.03,7.15-12.22,3.51-2.19,8.49-1.73,14.93,1.37,1.62.59,3.17,1.35,4.65,2.29,1.48.93,3.01,1.82,4.58,2.65,1.57.83,3.24,1.74,5.02,2.74l.51-.64c-2.07-3.17-3.94-6.12-5.61-8.84-1.67-2.72-3.31-5.43-4.92-8.13-1.61-2.7-3.3-5.74-5.08-9.1,1.35-1.09,2.88-2.16,4.6-3.23,1.72-1.07,3.52-1.97,5.42-2.69,4.94-1.57,9.07-1.82,12.39-.75,3.32,1.07,5.2,3.83,5.63,8.28.33,2.56.55,4.91.66,7.05.11,2.14.18,4.33.2,6.58.02,2.25,0,4.73-.08,7.45l1.07.23c1.94-3.32,3.66-6.45,5.15-9.37,1.48-2.93,3.02-5.8,4.62-8.64,1.59-2.84,3.48-5.89,5.67-9.17,1.62.59,3.3,1.31,5.05,2.18,1.75.86,3.4,2.02,4.96,3.47,3.83,3.67,6.05,7.18,6.65,10.55.6,3.36-.81,6.36-4.23,9-1.93,1.46-3.83,2.8-5.7,4.03-1.88,1.22-3.77,2.41-5.7,3.56-1.92,1.15-3.94,2.31-6.06,3.49l.35,1.01c1.62-.03,3.31-.05,5.05-.06,1.74,0,3.52-.04,5.34-.09,1.81-.06,3.62-.2,5.41-.45,3.78-.2,6.72-.45,8.84-.75,2.12-.3,4.52-.92,7.2-1.84.53,2.23.74,4.6.64,7.14-.1,2.53-.45,5.23-1.05,8.09Z"/><path class="cls-1" d="M105.34,341.89c-.91,4.32-2.66,7.27-5.25,8.84-2.59,1.57-6.28,1.3-11.08-.82-1.29-.46-2.49-.96-3.62-1.52-1.12-.56-2.16-1.12-3.1-1.69-.94-.57-1.85-1.17-2.72-1.82l-.48.31c1.18,1.81,2.38,3.68,3.59,5.59,1.21,1.91,2.48,3.97,3.81,6.19,1.33,2.21,2.66,4.75,3.99,7.61-1.21.94-2.37,1.73-3.47,2.38-1.1.64-2.39,1.18-3.86,1.6-3.58,1.27-6.6,1.49-9.05.65-2.45-.84-3.84-2.86-4.18-6.06-.23-1.98-.37-3.81-.43-5.48-.06-1.67-.14-3.28-.23-4.81-.09-1.54-.08-3.22.03-5.04l-.79-.17c-1.28,2.58-2.48,4.87-3.58,6.84-1.11,1.98-2.25,3.99-3.41,6.05-1.17,2.05-2.64,4.42-4.39,7.08-1.44-.58-2.74-1.18-3.9-1.79-1.16-.61-2.26-1.49-3.31-2.63-2.87-2.54-4.51-5.03-4.92-7.46-.41-2.43.67-4.72,3.24-6.85,1.35-1.19,2.72-2.19,4.09-3.01,1.37-.82,2.76-1.63,4.17-2.43,1.41-.81,2.87-1.74,4.39-2.8l-.1-.85c-1.59.12-3.03.19-4.32.2-1.29,0-2.58-.01-3.86-.05-1.28-.04-2.61-.07-3.99-.08-1.94.05-3.64.13-5.09.24-1.45.11-2.76.32-3.93.62-1.17.31-2.44.64-3.8.99-.25-1.89-.35-3.69-.32-5.38.03-1.7.32-3.59.85-5.69.93-4.41,2.69-7.42,5.29-9.04,2.6-1.62,6.28-1.28,11.04,1.02,1.2.44,2.34,1,3.44,1.69,1.1.69,2.22,1.34,3.39,1.96,1.16.61,2.4,1.29,3.72,2.03l.38-.47c-1.53-2.35-2.91-4.53-4.15-6.54-1.23-2.01-2.45-4.02-3.64-6.02-1.19-2-2.44-4.24-3.76-6.73,1-.8,2.13-1.6,3.4-2.39,1.27-.79,2.61-1.45,4.01-1.99,3.65-1.16,6.71-1.35,9.16-.56,2.46.79,3.84,2.83,4.17,6.13.24,1.89.41,3.63.49,5.21.08,1.58.13,3.2.15,4.87.02,1.66,0,3.5-.06,5.51l.79.17c1.44-2.46,2.71-4.77,3.81-6.93,1.1-2.16,2.24-4.29,3.42-6.39,1.18-2.1,2.58-4.36,4.19-6.78,1.2.44,2.44.97,3.73,1.61,1.29.64,2.52,1.5,3.67,2.57,2.83,2.71,4.47,5.32,4.92,7.8.44,2.49-.6,4.71-3.13,6.66-1.43,1.08-2.83,2.07-4.22,2.98-1.39.9-2.79,1.78-4.21,2.63-1.42.85-2.92,1.71-4.48,2.58l.26.74c1.2-.02,2.45-.04,3.74-.04,1.29,0,2.61-.03,3.95-.06,1.34-.04,2.68-.15,4.01-.33,2.79-.15,4.97-.33,6.54-.55,1.57-.22,3.34-.68,5.33-1.36.39,1.65.55,3.41.48,5.28-.07,1.87-.33,3.87-.78,5.98Z"/></svg>