<?xml version="1.0" encoding="UTF-8"?><svg id="download-top-design" xmlns="http://www.w3.org/2000/svg" viewBox="0 0 300 328.5"><defs><style>.cls-1{fill:#000;stroke-width:0px;}</style></defs><path class="cls-1" d="M71.38,144.23c-6.46-4.85-9.99-10.03-10.6-15.54-.61-5.51,2.7-11.42,9.93-17.75,1.75-1.78,3.52-3.39,5.32-4.82,1.8-1.43,3.53-2.71,5.2-3.83,1.67-1.12,3.37-2.16,5.12-3.11l-.15-1.04c-3.92.56-7.94,1.1-12.04,1.63-4.1.52-8.51,1.04-13.21,1.53-4.7.49-9.93.74-15.7.73-.62-2.74-1.04-5.27-1.26-7.59-.21-2.32-.1-4.87.32-7.64.66-6.92,2.64-12.09,5.92-15.5,3.28-3.41,7.71-4.16,13.28-2.24,3.46,1.15,6.6,2.33,9.42,3.51,2.82,1.19,5.54,2.3,8.16,3.34,2.62,1.04,5.4,2.35,8.33,3.94l.89-1.19c-3.29-4.12-6.16-7.87-8.58-11.23-2.42-3.37-4.88-6.81-7.39-10.34-2.5-3.53-5.29-7.79-8.35-12.77,2.08-1.95,4.08-3.64,5.99-5.09,1.91-1.45,4.22-2.6,6.92-3.46,6.43-2.8,11.83-3.6,16.18-2.39,4.35,1.21,7.3,4.76,8.85,10.66.92,3.17,1.53,6.2,1.83,9.1.3,2.9.57,5.84.81,8.8.25,2.97.67,6.11,1.26,9.45l1.49.5c1.03-2.74,2.03-5.18,3.02-7.32.99-2.14,2.02-4.26,3.07-6.35,1.06-2.09,2.13-4.28,3.22-6.55,1.42-3.26,2.6-6.14,3.54-8.63.94-2.49,1.61-4.82,2.01-7s.83-4.53,1.29-7.07c3.33,1.06,6.39,2.27,9.17,3.64,2.79,1.37,5.71,3.31,8.78,5.82,6.6,4.95,10.23,10.2,10.9,15.76.67,5.56-2.73,11.4-10.22,17.53-1.65,1.65-3.47,3.12-5.47,4.4-1.99,1.28-3.95,2.65-5.86,4.1-1.91,1.45-3.99,2.98-6.24,4.6l.49.99c5.08-.73,9.76-1.33,14.05-1.82,4.29-.49,8.55-.95,12.79-1.38,4.24-.43,8.93-.77,14.07-1.03.56,2.28,1,4.78,1.33,7.5.33,2.72.4,5.45.19,8.18-.89,6.96-2.95,12.17-6.17,15.63-3.22,3.46-7.67,4.18-13.38,2.17-3.33-1.06-6.34-2.13-9.03-3.22-2.69-1.09-5.41-2.26-8.18-3.52-2.77-1.26-5.8-2.71-9.1-4.36l-.89,1.19c2.97,4.28,5.82,8.18,8.55,11.68,2.74,3.49,5.39,7.03,7.96,10.61,2.57,3.58,5.24,7.64,8.01,12.2-1.65,1.65-3.5,3.29-5.56,4.94-2.06,1.65-4.43,3.02-7.1,4.1-6.69,2.6-12.27,3.31-16.74,2.12-4.46-1.19-7.34-4.64-8.63-10.34-.69-3.2-1.25-6.3-1.68-9.3-.43-3-.8-6.01-1.11-9.03-.31-3.02-.58-6.16-.81-9.43l-1.43-.15c-.89,2.01-1.83,4.09-2.82,6.23-.99,2.14-1.97,4.34-2.95,6.6-.97,2.26-1.82,4.56-2.55,6.9-1.91,4.75-3.29,8.51-4.14,11.28-.84,2.77-1.46,6.06-1.86,9.89-3.03-.63-6.07-1.73-9.12-3.29-3.05-1.57-6.16-3.54-9.32-5.92Z"/><path class="cls-1" d="M195.78,137.03c-3.53-2.65-5.47-5.49-5.8-8.5-.33-3.01,1.48-6.25,5.43-9.71.96-.97,1.93-1.85,2.91-2.64.98-.78,1.93-1.48,2.84-2.1.91-.61,1.85-1.18,2.8-1.7l-.08-.57c-2.15.31-4.34.6-6.59.89-2.25.29-4.65.57-7.22.84-2.57.27-5.43.4-8.59.4-.34-1.5-.57-2.88-.69-4.15-.12-1.27-.06-2.66.18-4.18.36-3.79,1.44-6.61,3.24-8.48,1.8-1.86,4.22-2.27,7.27-1.23,1.89.63,3.61,1.27,5.15,1.92s3.03,1.26,4.46,1.83c1.43.57,2.95,1.29,4.56,2.15l.49-.65c-1.8-2.26-3.37-4.3-4.69-6.14-1.33-1.84-2.67-3.73-4.04-5.66-1.37-1.93-2.89-4.26-4.57-6.98,1.14-1.06,2.23-1.99,3.28-2.78,1.05-.79,2.31-1.42,3.79-1.89,3.52-1.53,6.47-1.97,8.85-1.31,2.38.66,4,2.6,4.84,5.83.5,1.73.84,3.39,1,4.98.16,1.59.31,3.19.44,4.82.14,1.62.36,3.35.69,5.17l.81.27c.56-1.5,1.11-2.83,1.65-4.01.54-1.17,1.1-2.33,1.68-3.48.58-1.15,1.16-2.34,1.76-3.58.78-1.79,1.42-3.36,1.94-4.72.52-1.36.88-2.64,1.1-3.83s.45-2.48.71-3.87c1.82.58,3.5,1.24,5.02,1.99,1.53.75,3.12,1.81,4.8,3.18,3.61,2.71,5.6,5.58,5.96,8.62.37,3.04-1.5,6.24-5.59,9.59-.9.9-1.9,1.7-2.99,2.41-1.09.7-2.16,1.45-3.21,2.24-1.04.79-2.18,1.63-3.41,2.51l.27.54c2.78-.4,5.34-.73,7.68-1,2.35-.27,4.68-.52,7-.75,2.32-.23,4.88-.42,7.7-.56.31,1.25.55,2.61.73,4.1.18,1.49.22,2.98.11,4.48-.49,3.81-1.61,6.66-3.37,8.55-1.76,1.89-4.2,2.29-7.32,1.19-1.82-.58-3.47-1.16-4.94-1.76-1.47-.6-2.96-1.24-4.48-1.92-1.51-.69-3.17-1.48-4.98-2.38l-.49.65c1.62,2.34,3.18,4.47,4.68,6.39,1.5,1.91,2.95,3.85,4.35,5.81,1.41,1.96,2.87,4.18,4.38,6.67-.9.9-1.91,1.8-3.04,2.7-1.13.9-2.42,1.65-3.88,2.24-3.66,1.42-6.71,1.81-9.16,1.16-2.44-.65-4.02-2.54-4.72-5.66-.38-1.75-.68-3.45-.92-5.09-.23-1.64-.43-3.29-.61-4.94-.17-1.65-.32-3.37-.44-5.16l-.78-.08c-.49,1.1-1,2.24-1.54,3.41-.54,1.17-1.08,2.38-1.61,3.61-.53,1.23-1,2.49-1.39,3.77-1.05,2.6-1.8,4.65-2.26,6.17-.46,1.51-.8,3.32-1.02,5.41-1.66-.34-3.32-.94-4.99-1.8-1.67-.86-3.37-1.94-5.1-3.24Z"/><path class="cls-1" d="M71.82,233.46c-3.78-2.84-5.85-5.87-6.21-9.09-.35-3.22,1.58-6.69,5.81-10.39,1.02-1.04,2.06-1.98,3.11-2.82,1.05-.84,2.07-1.59,3.04-2.24.97-.66,1.97-1.26,3-1.82l-.09-.61c-2.3.33-4.65.64-7.05.95-2.4.31-4.98.61-7.73.89-2.75.29-5.81.43-9.19.43-.36-1.6-.61-3.08-.74-4.45-.12-1.36-.06-2.85.19-4.47.39-4.05,1.54-7.08,3.46-9.07,1.92-2,4.51-2.43,7.77-1.31,2.03.67,3.86,1.36,5.51,2.06,1.65.7,3.24,1.35,4.78,1.96,1.53.61,3.16,1.38,4.88,2.3l.52-.69c-1.93-2.41-3.6-4.61-5.02-6.57-1.42-1.97-2.86-3.99-4.33-6.05-1.46-2.07-3.09-4.56-4.89-7.47,1.22-1.14,2.39-2.13,3.5-2.98,1.12-.85,2.47-1.52,4.05-2.03,3.77-1.64,6.92-2.11,9.47-1.4,2.55.71,4.27,2.79,5.18,6.24.54,1.85.9,3.63,1.07,5.33.17,1.7.33,3.42.47,5.15.15,1.74.39,3.58.74,5.53l.87.29c.6-1.6,1.19-3.03,1.77-4.29.58-1.25,1.18-2.49,1.8-3.72.62-1.23,1.25-2.5,1.88-3.83.83-1.91,1.52-3.6,2.07-5.05.55-1.46.94-2.82,1.17-4.1s.48-2.65.75-4.14c1.95.62,3.74,1.33,5.37,2.13,1.63.8,3.34,1.94,5.14,3.4,3.86,2.9,5.99,5.97,6.38,9.23.39,3.25-1.6,6.67-5.98,10.26-.96.96-2.03,1.82-3.2,2.58-1.17.75-2.31,1.55-3.43,2.4-1.12.85-2.33,1.75-3.65,2.69l.29.58c2.97-.42,5.72-.78,8.22-1.07,2.51-.29,5.01-.56,7.49-.81,2.48-.25,5.23-.45,8.24-.6.33,1.33.59,2.8.78,4.39.19,1.59.23,3.19.11,4.79-.52,4.07-1.73,7.12-3.61,9.15-1.88,2.03-4.49,2.45-7.83,1.27-1.95-.62-3.71-1.24-5.28-1.88-1.57-.64-3.17-1.32-4.79-2.06-1.62-.74-3.39-1.58-5.33-2.55l-.52.7c1.74,2.51,3.41,4.79,5.01,6.84,1.6,2.05,3.15,4.11,4.66,6.21,1.51,2.09,3.07,4.47,4.69,7.14-.96.96-2.05,1.93-3.26,2.89-1.21.97-2.59,1.77-4.16,2.4-3.92,1.52-7.19,1.94-9.8,1.24-2.61-.7-4.3-2.72-5.05-6.05-.4-1.87-.73-3.69-.98-5.44-.25-1.76-.47-3.52-.65-5.28-.18-1.77-.34-3.61-.48-5.52l-.84-.09c-.52,1.18-1.07,2.39-1.65,3.65-.58,1.25-1.15,2.54-1.73,3.86-.57,1.32-1.07,2.67-1.49,4.04-1.12,2.78-1.93,4.98-2.42,6.6-.49,1.62-.85,3.55-1.09,5.79-1.77-.37-3.55-1.01-5.34-1.93-1.78-.92-3.6-2.07-5.46-3.46Z"/></svg>