<?xml version="1.0" encoding="UTF-8"?><svg id="hero-top-design" xmlns="http://www.w3.org/2000/svg" viewBox="0 0 401 372"><defs><style>.cls-1{fill:#000;stroke-width:0px;}</style></defs><path class="cls-1" d="M159,22.85c13.26,3.46,22.14,9.31,26.64,17.57,4.5,8.26,3.11,19.67-4.16,34.25-1.6,3.92-3.35,7.58-5.25,10.99-1.9,3.4-3.8,6.53-5.69,9.36-1.89,2.83-3.91,5.56-6.03,8.18l.9,1.53c5.8-3.4,11.75-6.84,17.86-10.3,6.11-3.46,12.69-7.1,19.75-10.9,7.06-3.79,15.12-7.55,24.18-11.26,2.74,3.9,5.02,7.6,6.86,11.11,1.83,3.51,3.3,7.58,4.41,12.2,3.41,11.29,3.64,20.68.68,28.14-2.96,7.46-9.43,11.49-19.4,12.06-6.18.42-11.86.6-17.05.54-5.19-.05-10.18-.05-14.96,0-4.78.05-9.99-.22-15.61-.82l-.63,2.43c7.82,4.36,14.72,8.39,20.69,12.11,5.97,3.72,12.05,7.55,18.25,11.48,6.2,3.94,13.31,8.82,21.32,14.67-2.01,4.39-4.06,8.34-6.12,11.84-2.07,3.51-4.96,6.8-8.64,9.89-8.3,8.54-16.25,13.26-23.85,14.16-7.61.91-14.52-2.77-20.75-11.04-3.48-4.38-6.39-8.75-8.72-13.11-2.33-4.36-4.64-8.8-6.94-13.3-2.3-4.5-4.98-9.17-8.05-14.02l-2.65.18c.15,4.96.14,9.43-.03,13.44-.18,4-.42,7.99-.73,11.95-.32,3.97-.59,8.08-.84,12.35-.13,6.04-.13,11.31,0,15.83.12,4.52.57,8.6,1.35,12.28s1.62,7.65,2.53,11.93c-5.91.49-11.49.55-16.74.19-5.26-.35-11.09-1.52-17.52-3.48-13.54-3.53-22.62-9.44-27.25-17.73-4.63-8.29-3.04-19.66,4.77-34.09,1.53-3.65,3.44-7.12,5.75-10.42,2.3-3.3,4.49-6.7,6.57-10.21,2.07-3.51,4.34-7.25,6.83-11.23l-1.41-1.24c-7.51,4.41-14.47,8.37-20.88,11.9-6.42,3.53-12.82,7-19.19,10.39-6.38,3.4-13.52,6.96-21.42,10.67-2.35-3.22-4.65-6.85-6.91-10.91-2.27-4.06-4.13-8.29-5.57-12.72-3.08-11.49-3.2-21-.38-28.5,2.82-7.5,9.35-11.5,19.61-12.02,5.9-.48,11.32-.74,16.24-.75,4.92-.02,9.95.07,15.11.25,5.15.19,10.84.52,17.09.99l.64-2.44c-7.42-4.82-14.4-9.1-20.94-12.83-6.55-3.72-12.98-7.57-19.32-11.54-6.34-3.96-13.14-8.63-20.41-13.99,1.53-3.65,3.37-7.42,5.56-11.34,2.17-3.91,5.01-7.58,8.51-11.01,8.83-8.38,17.14-13.09,24.92-14.1,7.77-1.01,14.51,2.56,20.19,10.68,3.14,4.58,6.01,9.09,8.61,13.52,2.6,4.44,5.11,8.92,7.55,13.45,2.43,4.54,4.88,9.29,7.34,14.27l2.35-.69c.1-3.73.24-7.59.42-11.6.17-4,.3-8.09.38-12.26.07-4.17-.07-8.32-.44-12.47-.05-8.68-.3-15.47-.76-20.36-.46-4.89-1.61-10.46-3.45-16.72,5.16-.97,10.64-1.2,16.44-.7,5.79.5,11.94,1.6,18.44,3.29Z"/><path class="cls-1" d="M334.41,40.67c7.25,1.89,12.11,5.1,14.57,9.61,2.46,4.52,1.7,10.76-2.28,18.74-.88,2.14-1.83,4.15-2.87,6.01-1.04,1.86-2.08,3.57-3.11,5.12-1.04,1.55-2.14,3.04-3.3,4.48l.49.84c3.17-1.86,6.43-3.74,9.77-5.64,3.34-1.89,6.94-3.88,10.8-5.96,3.86-2.08,8.27-4.13,13.23-6.16,1.5,2.13,2.75,4.16,3.75,6.08,1,1.92,1.8,4.15,2.41,6.68,1.87,6.18,1.99,11.31.37,15.4-1.62,4.08-5.16,6.28-10.62,6.6-3.38.23-6.49.33-9.33.3s-5.57-.03-8.18,0c-2.62.03-5.47-.12-8.54-.45l-.35,1.33c4.28,2.38,8.05,4.59,11.32,6.63,3.27,2.04,6.59,4.13,9.99,6.28,3.39,2.15,7.28,4.83,11.66,8.02-1.1,2.4-2.22,4.56-3.35,6.48-1.13,1.92-2.71,3.72-4.73,5.41-4.54,4.67-8.89,7.25-13.05,7.75-4.16.5-7.95-1.52-11.35-6.04-1.91-2.39-3.5-4.78-4.77-7.17-1.28-2.38-2.54-4.81-3.79-7.28-1.26-2.46-2.73-5.02-4.4-7.67l-1.45.1c.08,2.71.08,5.16-.02,7.35-.1,2.19-.23,4.37-.4,6.54-.17,2.17-.32,4.42-.46,6.76-.07,3.3-.07,6.19,0,8.66.07,2.47.31,4.71.74,6.72s.88,4.18,1.38,6.53c-3.23.27-6.29.3-9.16.1-2.88-.19-6.07-.83-9.58-1.91-7.41-1.93-12.37-5.16-14.91-9.7-2.53-4.53-1.67-10.75,2.61-18.65.83-1.99,1.88-3.9,3.15-5.7,1.26-1.8,2.46-3.67,3.59-5.59,1.13-1.92,2.37-3.96,3.74-6.14l-.77-.68c-4.11,2.41-7.92,4.58-11.42,6.51-3.51,1.93-7.01,3.83-10.5,5.69-3.49,1.86-7.39,3.81-11.72,5.84-1.28-1.76-2.54-3.75-3.78-5.97-1.24-2.22-2.26-4.54-3.05-6.96-1.68-6.29-1.75-11.49-.21-15.59,1.54-4.1,5.12-6.29,10.73-6.57,3.23-.26,6.19-.4,8.88-.41,2.69-.01,5.45.04,8.27.14,2.82.1,5.93.28,9.35.54l.35-1.33c-4.06-2.63-7.88-4.98-11.45-7.02-3.58-2.04-7.1-4.14-10.57-6.31-3.47-2.17-7.19-4.72-11.17-7.66.83-1.99,1.85-4.06,3.04-6.2,1.19-2.14,2.74-4.15,4.65-6.02,4.83-4.59,9.38-7.16,13.63-7.71,4.25-.55,7.94,1.4,11.05,5.84,1.72,2.5,3.29,4.97,4.71,7.4,1.42,2.43,2.8,4.88,4.13,7.36,1.33,2.48,2.67,5.08,4.01,7.81l1.28-.38c.06-2.04.13-4.15.23-6.34.1-2.19.16-4.42.21-6.71.04-2.28-.04-4.55-.24-6.82-.03-4.75-.17-8.46-.42-11.14-.25-2.67-.88-5.72-1.89-9.15,2.82-.53,5.82-.65,8.99-.38,3.17.27,6.53.87,10.09,1.8Z"/><path class="cls-1" d="M302.54,164.65c5.37,1.4,8.96,3.77,10.78,7.11,1.82,3.34,1.26,7.96-1.68,13.86-.65,1.59-1.36,3.07-2.12,4.45-.77,1.38-1.54,2.64-2.3,3.79-.77,1.15-1.58,2.25-2.44,3.31l.36.62c2.35-1.38,4.76-2.77,7.23-4.17,2.47-1.4,5.14-2.87,7.99-4.41,2.86-1.54,6.12-3.05,9.79-4.56,1.11,1.58,2.03,3.07,2.78,4.5.74,1.42,1.33,3.07,1.78,4.94,1.38,4.57,1.47,8.37.28,11.39-1.2,3.02-3.82,4.65-7.85,4.88-2.5.17-4.8.24-6.9.22-2.1-.02-4.12-.02-6.05,0-1.94.02-4.04-.09-6.32-.33l-.26.99c3.17,1.76,5.96,3.4,8.37,4.9,2.42,1.51,4.88,3.06,7.39,4.65,2.51,1.59,5.39,3.57,8.63,5.94-.81,1.78-1.64,3.37-2.48,4.79-.84,1.42-2.01,2.75-3.5,4-3.36,3.45-6.58,5.37-9.65,5.73-3.08.37-5.88-1.12-8.4-4.47-1.41-1.77-2.59-3.54-3.53-5.31-.94-1.76-1.88-3.56-2.81-5.38-.93-1.82-2.02-3.71-3.26-5.67l-1.07.07c.06,2.01.06,3.82-.01,5.44-.07,1.62-.17,3.23-.3,4.84-.13,1.61-.24,3.27-.34,5-.05,2.44-.05,4.58,0,6.4.05,1.83.23,3.48.55,4.97s.65,3.1,1.02,4.83c-2.39.2-4.65.22-6.78.08-2.13-.14-4.49-.62-7.09-1.41-5.48-1.43-9.15-3.82-11.03-7.17-1.87-3.35-1.23-7.95,1.93-13.8.62-1.48,1.39-2.88,2.33-4.22.93-1.34,1.82-2.71,2.66-4.13.84-1.42,1.76-2.93,2.76-4.54l-.57-.5c-3.04,1.78-5.86,3.39-8.45,4.82-2.6,1.43-5.19,2.83-7.77,4.21-2.58,1.37-5.47,2.82-8.67,4.32-.95-1.3-1.88-2.77-2.8-4.41-.92-1.64-1.67-3.36-2.25-5.15-1.24-4.65-1.29-8.5-.15-11.53,1.14-3.04,3.79-4.66,7.94-4.86,2.39-.19,4.58-.3,6.57-.31,1.99,0,4.03.03,6.11.1,2.09.08,4.39.21,6.91.4l.26-.99c-3-1.95-5.83-3.68-8.47-5.19-2.65-1.51-5.25-3.06-7.82-4.67-2.57-1.6-5.32-3.49-8.26-5.66.62-1.48,1.37-3,2.25-4.59.88-1.58,2.03-3.07,3.44-4.46,3.57-3.39,6.94-5.3,10.09-5.71,3.15-.41,5.87,1.04,8.17,4.32,1.27,1.85,2.43,3.68,3.49,5.47,1.05,1.8,2.07,3.61,3.05,5.45.98,1.84,1.97,3.76,2.97,5.78l.95-.28c.04-1.51.1-3.07.17-4.69.07-1.62.12-3.27.15-4.96.03-1.69-.03-3.37-.18-5.05-.02-3.51-.12-6.26-.31-8.24-.19-1.98-.65-4.23-1.4-6.77,2.09-.39,4.31-.48,6.65-.28,2.34.2,4.83.65,7.46,1.33Z"/><path class="cls-1" d="M83.77,262.9c5.38,1.4,8.99,3.78,10.82,7.14,1.83,3.35,1.26,7.99-1.69,13.91-.65,1.59-1.36,3.08-2.13,4.46-.77,1.38-1.54,2.65-2.31,3.8-.77,1.15-1.59,2.26-2.45,3.32l.37.62c2.35-1.38,4.77-2.78,7.25-4.18,2.48-1.41,5.15-2.88,8.02-4.43,2.87-1.54,6.14-3.06,9.82-4.57,1.11,1.58,2.04,3.09,2.79,4.51.74,1.42,1.34,3.08,1.79,4.96,1.39,4.59,1.48,8.4.28,11.43-1.2,3.03-3.83,4.67-7.88,4.9-2.51.17-4.82.24-6.92.22-2.11-.02-4.13-.02-6.08,0-1.94.02-4.06-.09-6.34-.33l-.26.99c3.18,1.77,5.98,3.41,8.4,4.92,2.42,1.51,4.89,3.07,7.41,4.66,2.52,1.6,5.4,3.58,8.66,5.96-.82,1.78-1.65,3.39-2.49,4.81-.84,1.43-2.01,2.76-3.51,4.02-3.37,3.47-6.6,5.39-9.69,5.75-3.09.37-5.9-1.13-8.43-4.49-1.41-1.78-2.6-3.55-3.54-5.33-.95-1.77-1.89-3.57-2.82-5.4-.93-1.83-2.02-3.72-3.27-5.7l-1.08.07c.06,2.01.06,3.83-.01,5.46-.07,1.63-.17,3.24-.3,4.85-.13,1.61-.24,3.28-.34,5.02-.05,2.45-.05,4.6,0,6.43.05,1.83.23,3.49.55,4.99s.66,3.11,1.03,4.85c-2.4.2-4.67.22-6.8.08-2.14-.14-4.51-.62-7.12-1.41-5.5-1.43-9.19-3.83-11.07-7.2-1.88-3.37-1.24-7.98,1.94-13.85.62-1.48,1.4-2.89,2.34-4.23.94-1.34,1.82-2.72,2.67-4.15.84-1.42,1.76-2.94,2.77-4.56l-.57-.5c-3.05,1.79-5.88,3.4-8.48,4.83-2.61,1.43-5.21,2.84-7.79,4.22-2.59,1.38-5.49,2.83-8.7,4.34-.95-1.31-1.89-2.78-2.81-4.43-.92-1.65-1.68-3.37-2.26-5.17-1.25-4.67-1.3-8.53-.15-11.57,1.15-3.05,3.8-4.67,7.96-4.88,2.4-.2,4.6-.3,6.6-.31,2,0,4.04.03,6.14.1,2.09.08,4.4.21,6.94.4l.26-.99c-3.01-1.96-5.85-3.69-8.5-5.21-2.66-1.51-5.27-3.07-7.85-4.69-2.57-1.61-5.34-3.5-8.29-5.68.62-1.48,1.37-3.02,2.26-4.61.88-1.59,2.04-3.08,3.45-4.47,3.59-3.41,6.96-5.32,10.12-5.73,3.16-.41,5.89,1.04,8.2,4.34,1.28,1.86,2.44,3.69,3.5,5.49,1.06,1.8,2.08,3.62,3.07,5.46.99,1.84,1.98,3.78,2.98,5.8l.95-.28c.04-1.51.1-3.08.17-4.71.07-1.62.12-3.28.15-4.98.03-1.69-.03-3.38-.18-5.06-.02-3.53-.12-6.28-.31-8.27-.19-1.99-.65-4.25-1.4-6.79,2.1-.39,4.32-.49,6.68-.29,2.35.2,4.85.65,7.49,1.34Z"/></svg>