<?xml version="1.0" encoding="utf-8"?>
<!-- Generator: Adobe Illustrator 28.3.0, SVG Export Plug-In . SVG Version: 6.00 Build 0)  -->
<svg version="1.1" id="Layer_1" xmlns="http://www.w3.org/2000/svg" xmlns:xlink="http://www.w3.org/1999/xlink" x="0px" y="0px"
	 viewBox="0 0 4511.1 559.5" style="enable-background:new 0 0 4511.1 559.5;" xml:space="preserve">
<g id="hero-text">
	<path d="M348.2,165.7c8.7-0.6,16.5,0,23.3,1.7s12.7,4.4,17.6,8c4.9,3.6,8.7,7.9,11.4,13c2.7,5.1,4.3,10.6,4.6,16.6
		c0,0.5,0,0.9,0.1,1.4c0.4,7.7-0.8,14.2-3.5,19.4c-2.7,5.2-7.1,9.2-13.2,11.9c-6.1,2.7-13.8,4.4-23.2,4.9
		c-5.8,0.4-11.3,0.6-16.5,0.8c-5.2,0.2-10,0.3-14.5,0.3c-4.5,0-8.6,0-12.3,0.1c-3.9,1.1-7.8,2.3-11.7,3.5
		c-0.6-7.5-1.1-15.1-1.7-22.6c5.2-0.1,10.1-0.2,14.8-0.5s9.4-0.5,14.1-0.6c4.8-0.2,10-0.4,15.5-0.8c5.5-0.4,9.8-1.7,12.7-4
		c3-2.3,4.3-5.4,4.1-9.4c-0.1-2.4-0.5-4.5-1.1-6.3c-0.6-1.9-1.5-3.5-2.8-4.8c-1.7-1-3.8-1.8-6.4-2.3s-5.5-0.7-8.8-0.5
		c-6.2,0.4-11.3,1.9-15.3,4.3c-4,2.5-7,6-8.9,10.4s-2.6,10.2-2.1,17.1c0.5,6.5,0.9,12.9,1.4,19.4c0.3,3.9,0.9,7.3,1.8,10.2
		c0.9,2.9,2.2,5.3,3.8,7.2c3.2,2,7,3.3,11.4,3.8c4.4,0.6,9.9,0.6,16.5,0.2c5.3-0.3,10.2-1,14.8-1.9c4.5-0.9,8.9-2.1,13-3.5
		c4.1-1.4,8-3.1,11.8-5c1.2-0.1,2.4-0.1,3.6-0.2c0.3,3.3,0.6,6.7,0.9,10.1c0.3,3.5,0.5,6.9,0.7,10.4c0.1,2.2,0,4.2-0.5,6.1
		c-0.5,1.8-1.1,3.3-2,4.3c-1.4,1.5-4,3-7.9,4.5c-3.9,1.5-8.7,2.8-14.5,3.9c-5.7,1.1-11.9,1.9-18.6,2.3c-10.7,0.7-20.3,0-28.8-2
		c-8.5-2-15.7-5.4-21.7-10.1c-6-4.7-10.7-10.5-14.1-17.3c-3.4-6.9-5.5-14.5-6.1-23c-0.5-6.1-1-12.3-1.4-18.4
		c-0.6-8.3,0.2-16.2,2.7-23.5c2.5-7.3,6.3-13.8,11.5-19.4c5.2-5.6,11.6-10.1,19.3-13.6C329.6,168.5,338.4,166.4,348.2,165.7
		L348.2,165.7z"/>
	<path d="M518.2,207.6c2.4-0.1,4.8-0.2,7.1-0.3c2.4-0.1,4.7-0.3,7.1-0.3c1.5,0,2.8,0.1,3.7,0.5c0.9,0.4,1.7,1.1,2.2,2
		c0.6,0.9,0.9,2.3,1,4.2c0.1,4.2,0.2,8.5,0.1,12.9c0,4.3-0.1,8.7-0.2,13.1c-0.1,4.4-0.2,8.9-0.3,13.4c0.3,1.1,0.8,1.9,1.5,2.6
		c0.7,0.6,1.7,0.9,2.9,0.9c1.7,0,3.3-0.4,4.8-1c1.5-0.6,3-1.6,4.5-3c1.5-1.4,2.9-3.2,4.1-5.5c1.3-2.3,2.5-5.1,3.7-8.6
		c0.3,7,0.7,14,1,20.9c-1.3,0-2.5,0.1-3.8,0.1c-1.2,3.4-2.8,6.4-4.8,8.9s-4.3,4.4-6.9,5.7c-2.6,1.3-5.5,2-8.6,2.1
		c-2.3,0.1-4.4-0.4-6.4-1.3c-2-0.9-3.7-2.3-5.2-4c-1.5-1.7-2.7-3.8-3.6-6.1c-0.9-2.3-1.4-4.9-1.5-7.8c-0.1-3.7-0.2-7.5-0.4-11.3
		s-0.2-7.6-0.3-11.4s-0.2-7.6-0.4-11.4c-0.1-2.7-0.2-5.3-0.4-7.6S518.6,210.2,518.2,207.6L518.2,207.6z M558.1,206.5
		c1.5,0,3.1-0.1,4.6-0.1s3-0.1,4.5-0.2s3-0.1,4.6-0.2c1.4,0,2.5,0.2,3.3,0.6s1.4,0.9,1.8,1.6c0.4,0.7,0.6,1.6,0.6,2.6
		c0.1,4.8,0.2,9.7,0.3,14.6c0.1,4.9,0.2,9.8,0.3,14.6c0.1,4.8,0.2,9.7,0.3,14.6c0,0.4,0,0.8,0.1,1.2c0,0.4,0.2,0.7,0.3,0.9
		c0.2,0.1,0.4,0.2,0.7,0.2c0.3,0.1,0.6,0.1,1,0.1s0.7,0,1-0.1c0.3-0.1,0.6-0.2,0.9-0.3c0.3-0.1,0.6-0.3,0.8-0.5c0.6,0,1.3,0,1.9,0
		c0.1,1.9,0.2,3.8,0.3,5.7c0.1,1.9,0.1,3.8,0.2,5.6c0,1.2-0.2,2.4-0.7,3.3c-0.5,1-1.1,1.6-1.7,2c-0.3,0.3-0.9,0.6-1.7,0.7
		s-1.7,0.3-2.5,0.4c-0.9,0.1-1.6,0.2-2.2,0.2c-3,0.1-5.5-0.4-7.6-1.2c-2.1-0.9-3.9-2.1-5.3-3.6c-1.4-1.5-2.5-3.4-3.2-5.6
		c-0.7-2.2-1.1-4.5-1.2-6.9c-0.1-4.2-0.2-8.3-0.3-12.5c-0.1-4.2-0.2-8.4-0.3-12.5c-0.1-4.2-0.2-8.3-0.3-12.5
		C558.3,214.8,558.2,210.7,558.1,206.5L558.1,206.5z"/>
	<path d="M696.1,349.5c-6.1,0.3-11.8,0.4-17.3,0.4c-5.5,0-10.8,0.1-16.1,0.2c-5.3,0.2-10.8,0.3-16.6,0.3c-3.9,0-7.2-0.4-9.8-1.3
		c-2.6-0.9-4.7-2.1-6.4-3.6c-1.7-1.5-2.8-3.3-3.2-5.4c-0.5-2.1-0.7-4.5-0.8-7.3c-0.1-12.7-0.2-25.2-0.4-37.4
		c-0.1-12.3-0.2-24.6-0.4-37c-0.1-12.4-0.2-24.7-0.4-36.8c-0.1-12.1-0.2-24.2-0.3-36.3c-0.1-12.1-0.2-24.2-0.3-36.3
		c-0.1-7.9-0.5-15.7-1.2-23.6c-0.7-7.9-1.6-14.8-2.6-20.9c6.4-0.1,12.6-0.3,18.6-0.6c6-0.3,11.9-0.5,17.7-0.5c5.7,0,11.2,0,16.2,0
		c4.8,0,8.9,0.9,12.4,2.7c3.5,1.8,6.4,4.9,8.6,9.3c2.2,4.4,3.3,10.7,3.2,18.9c-0.1,14.2-0.1,28.7-0.2,43.3
		c-0.1,14.7-0.1,29.2-0.2,43.6c-0.1,14.4-0.1,28.8-0.2,43.1c-0.1,14.4-0.1,28.7-0.2,42.9C696.2,321.5,696.1,335.6,696.1,349.5
		L696.1,349.5z M689.4,158.4c5.2,0,10.4,0,15.6,0.1c3.2-13.3,7.4-24.4,12.6-33.3c5.2-8.9,11.4-15.5,18.8-19.8
		c7.4-4.3,15.9-6.4,25.4-6.2c4.5,0.1,8.2,0.6,11.2,1.6c3,1,5.5,2.1,7.3,3.3c1.9,2.2,3.3,4.8,4.4,7.8c1,3.1,1.5,7.3,1.4,12.7
		c-0.1,4.5-0.2,9-0.3,13.4s-0.3,8.9-0.5,13.4c-0.3,4.5-0.5,9-0.8,13.4c-0.3,4.4-0.8,8.7-1.5,12.9c-2.3-0.1-4.7-0.1-7.1-0.1
		c-3.7-1.3-7.4-2.4-11-3.4c-3.6-1-8.1-1.5-13.4-1.6c-9.1-0.1-17.2,1.9-24.3,6c-7.1,4.2-13.7,10.5-19.7,18.9
		c-6,8.4-12.2,18.7-18.4,30.8C689.3,205,689.4,181.7,689.4,158.4L689.4,158.4z"/>
	<path d="M777.6,304.4c7.3,0.2,12.5-0.3,15.5-1.5c3-1.2,5-2.6,5.9-4.4c0.4-2,0.2-3.7-0.6-5.2c-0.8-1.5-2.2-2.9-4.2-4.2
		c-2-1.3-5.1-2.3-9.5-3.1c-7.7-1.4-15.3-2.8-23-4.2c-8.7-1.6-15.7-4.1-21.2-7.4s-9.5-7.4-12-12.4c-2.5-5-3.8-10.6-3.7-17.1
		c0.1-6.9,1.7-13.1,4.8-18.7c3.1-5.5,7.5-10.2,13.1-13.9c5.7-3.7,12.5-6.5,20.6-8.3c8.1-1.8,17.2-2.6,27.2-2.4
		c5.4,0.1,10.3,0.5,14.5,1.1c4.2,0.6,8,1.3,11.4,2.1c3.4,0.8,6.3,1.8,8.8,3c1.5,0.9,2.6,1.9,3.3,3.1c0.7,1.2,1.2,2.6,1.4,4.4
		c0.2,1.7,0.3,3.8,0.2,6c-0.1,3.1-0.2,6.8-0.3,11.1c-0.1,4.3-0.3,8.2-0.6,11.8c-1.3,0-2.5-0.1-3.8-0.1c-4-1.3-8-2.4-11.9-3.4
		c-3.9-1-8-1.8-12.1-2.3c-4.1-0.5-8.7-0.8-13.8-1c-6.6-0.1-11.8,0.1-15.6,0.6s-6.5,1.5-8,2.7c-1.5,1.2-2.3,2.7-2.4,4.5
		c0,1.5,0.4,2.8,1.3,3.9c0.9,1.1,2.5,2,4.7,2.8c2.3,0.8,5.5,1.6,9.7,2.5c6.5,1.1,13.1,2.3,19.6,3.4c8.9,1.5,16.1,4.1,21.6,7.6
		c5.5,3.5,9.7,8,12.4,13.2s4,11.5,3.8,18.8c-0.3,9.2-2.8,17-7.4,23.5c-4.6,6.4-11.2,11.3-19.8,14.6c-8.6,3.3-19.3,4.8-32,4.5
		c-6.3-0.1-12.1-0.4-17.3-0.8c-5.3-0.4-10.1-1.1-14.3-2s-8.1-1.8-11.4-2.9c-3.3-1-6.1-2.2-8.4-3.5c-1.3-1-2.4-2.4-3.2-4.1
		s-1.2-4.4-1.2-8c0-3.5,0.1-7.4,0.2-12s0.3-8.8,0.5-13c1.2,0,2.5,0,3.8,0c4.2,1.9,8.1,3.4,11.8,4.7s7.7,2.3,11.8,3.1
		c4.2,0.8,8.6,1.4,13.3,1.8C766,304,771.4,304.2,777.6,304.4L777.6,304.4z"/>
	<path d="M823.8,130.1c5.8-0.1,11.8-0.1,18.3,0c6.5,0.1,13.9,0.2,22.4,0.4c8.5,0.2,18.7,0.5,30.8,1.1c5.7,0.2,10.3,1,13.7,2.3
		c3.4,1.3,5.9,2.7,7.5,4.5c1.6,1.7,2.4,3.8,2.3,6.3c-0.6,12-1.2,23.9-1.7,35.7c-0.6,11.8-1.1,23.1-1.7,34
		c-0.5,10.9-1.1,21.8-1.6,32.6c-0.5,10.8-1.1,21.8-1.6,33c-0.2,3.6-0.3,6.6-0.2,9.2c0,2.6,0.4,5,1.1,7.2c1.1,0.9,2.4,1.6,4,2.3
		c1.6,0.6,3.7,1,6.2,1.1c2.8,0.1,4.8,0,6.3-0.5c1.4-0.5,3.8-1,7.2-1.7c2.2,0.1,4.4,0.2,6.7,0.4c-0.3,6.3-0.7,13-1.1,20.1
		c-0.4,7.1-0.8,13.5-1.1,19.3c-0.3,4.6-1,8.5-2.3,11.6c-1.3,3.1-3,5.1-5.3,6.1c-2.5,0.7-5,1.2-7.3,1.5c-2.4,0.3-4.8,0.5-7.2,0.6
		c-2.5,0.1-5.9,0.1-10.3-0.1c-10.1-0.5-18.9-2.4-26.3-5.7c-7.4-3.3-13.6-7.7-18.7-13.1s-8.7-11.7-11.1-18.9
		c-2.4-7.2-3.4-14.9-3.1-23.1c0.4-11.2,0.8-21.5,1.1-30.8c0.3-9.3,0.7-18.3,1-26.9s0.6-17.2,0.9-25.6c0.3-8.5,0.6-16.9,0.9-25.4
		c-1-0.2-2-0.3-3-0.5c-0.9,0.5-2.5,0.9-4.7,1.3c-2.3,0.3-4.9,0.5-7.9,0.6c-3,0-5.9,0-8.7-0.1c-2.5-0.1-4.5-1.5-5.8-4.3
		c-1.3-2.8-1.9-6.5-1.8-11.1c0.2-6.8,0.5-13.9,0.8-21.3C822.9,144.4,823.3,137.2,823.8,130.1L823.8,130.1z M848.7,31.1
		c5-0.1,10.1-0.2,15.4-0.3c5.3-0.1,10.8-0.1,16.7-0.2s11.6,0,17.1,0.1c5.6,0.1,11,0.3,16.2,0.5c5.8,0.3,10.5,1.5,14.1,3.8
		s5.2,5.8,5,10.7c-0.8,15.4-1.6,30.9-2.3,46.3c-4.9,0-9.9,0.1-15,0.1c-5.1,0-10.4,0.1-16.1,0.3c-5.7,0.2-11.2,0.1-16.5-0.1
		s-10.5-0.4-15.4-0.6c-6.4-0.2-11.4-1.9-15.2-4.9c-3.8-3-5.6-6.8-5.5-11.5C847.7,60.6,848.2,45.9,848.7,31.1L848.7,31.1z"/>
	<path d="M936,132.8c9.8-0.8,19.5-1.2,29.1-1.3c9.6-0.1,19,0.1,28,0.7c3.4,0.2,6.3,1.1,8.7,2.7c2.4,1.6,4.2,3.5,5.4,5.9
		s1.7,4.8,1.5,7.4c-0.8,11.8-1.6,23.6-2.3,35.3c-0.8,11.7-1.6,23.5-2.3,35.3c-0.8,11.8-1.6,23.6-2.3,35.2c-0.1,1.7-0.2,3.1-0.1,4.2
		c0,1.1,0,2.4-0.1,3.9c-0.1,1.5-0.2,4.1-0.2,7.8c1.1,0.3,2.2,0.5,3.4,0.7c1.2,0.2,2.3,0.3,3.5,0.4c7.5,0.1,14.5-1.8,20.9-5.5
		c6.5-3.8,11.9-9.5,16.4-17.3c4.5-7.8,7.2-17.2,8-28.4c0.3-3.9,0.6-7.7,0.9-11.6c0.8-9.9,0.8-18.6,0.2-26.3
		c-0.7-7.6-2.2-14.6-4.5-21.1c-2.3-6.4-5.6-13.1-9.9-19.9c0.1-1.5,0.2-3,0.3-4.5c6.3,0,12.7,0.2,19,0.4c6.3,0.3,12.8,0.7,19.3,1.2
		c2.7,0.2,5.1,0.8,7.2,1.7c2.1,0.9,3.8,2.2,5.3,3.8c3.5,4.2,6.4,9.6,8.7,16.3c2.3,6.7,3.8,14.3,4.5,22.9c0.7,8.6,0.6,18-0.2,28.1
		c-0.3,3.8-0.7,7.5-1,11.3c-1.3,14.6-4.5,27.6-9.7,38.9c-5.2,11.4-12,21-20.5,29s-18.1,13.9-28.9,17.7c-10.8,3.8-22.5,5.3-35.2,4.4
		c-12.4-0.9-23.1-3.1-32.1-6.6c-9-3.6-15.3-7.4-19-11.5c-1.7-1.8-3-4-4.1-6.5c-1.1-2.5-1.5-5.2-1.3-8c0.5-9.2,1-18.5,1.6-27.8
		c0.5-9.3,1-18.4,1.5-27.3s1-17.6,1.5-26.2c0.5-8.5,1-16.9,1.4-25.4c-1.5-0.1-2.9-0.2-4.4-0.2c-2.1,1.8-4.3,3.2-6.6,4.2
		c-2.3,1-4.7,1.4-7.1,1.2c-2.2-0.1-4-1.3-5.2-3.5c-1.2-2.2-1.7-5.6-1.5-10.1c0.3-5.2,0.5-10.3,0.8-15.5
		C934.8,143.8,935.3,138.4,936,132.8L936,132.8z"/>
	<path d="M27.5,70c20.7-3.5,42-6.8,63.9-9.9c21.9-3.1,43.5-5.7,64.7-7.8c21.2-2.1,39.4-1.4,54.6,2.1c15.2,3.5,27.6,9.2,37.3,17.2
		c9.7,8,17.1,17.5,22.3,28.6c5.2,11.1,8.3,23.1,9.3,36c0.5,6.5,1,12.9,1.5,19.4c1.3,16.5,0,31.6-3.8,45.2
		c-3.8,13.6-9.9,25.5-18.4,35.5c-8.5,10.1-18.6,18.1-30.4,24c-11.7,5.9-24.7,9.5-38.8,10.9c-8,0.8-15.7,1.3-23.2,1.4
		c-7.4,0.2-14.8,0.2-21.9,0c-3.2,0.8-6.4,1.6-9.5,2.4c-2.1-18.7-4.1-37.5-6.1-56.2c6.8-0.8,13.7-1.3,20.6-1.8
		c6.9-0.4,14.3-1,22.4-1.9c9-0.9,16.4-3.4,22.1-7.6c5.7-4.2,9.9-9.9,12.5-17.3s3.5-16.1,2.5-26.4c-0.7-7.5-1.4-15-2.1-22.5
		c-0.5-5.1-1.4-9.5-2.7-13.1c-1.3-3.7-3.2-7-5.7-10.1c-4.4-2-9.2-3.4-14.5-4.1c-5.3-0.7-11.8-0.7-19.5,0.1
		c-15.2,1.5-30,3.4-44.4,5.6c-14.4,2.2-27.8,4.2-40.5,6.2c-12.6,1.9-24.1,3.6-34.6,4.9c-3.8,0.5-6.8-0.7-8.9-3.5
		c-2.1-2.8-3.5-7-4.2-12.7c-1.1-8.4-1.9-15.9-2.6-22.7C28.8,85.1,28.1,77.8,27.5,70L27.5,70z M160.5,373.2
		c-8.4,1.2-16.6,2.3-24.5,3.4c-8,1-16.3,2.1-25,3.1c-7.2,0.8-12.8-0.1-16.8-3c-4-2.9-6.4-7.7-7.3-14.6c-2.6-21.9-5.3-43.3-7.8-64.4
		c-2.6-21.1-5.1-42-7.6-62.9c-2.5-20.8-5-41.6-7.6-62.4c-2.5-20.8-5.1-42.3-7.8-64.4c24.2-2.9,48.3-5.7,72.5-8.3
		c-1.3,4.5-2.6,9.1-3.9,13.6c3,7,5.4,14.4,7.2,22.2c1.8,7.8,3.2,16,4.1,24.4c2.1,19.2,4.1,37.9,6,56.2c1.9,18.3,3.9,36.7,5.9,55.3
		c2,18.6,4.1,38.1,6.2,58.5c0.8,7.5,1.7,15.1,2.6,22.7C157.7,360.1,159,367,160.5,373.2L160.5,373.2z M228.1,226.6
		c6.9,10.6,13.1,20.4,18.7,29.4c5.6,9,11.9,18.9,19,29.5c3.5,5.2,7,8.7,10.6,10.7c3.5,2,7.5,2.8,11.8,2.5c1.8-0.1,3.4-0.4,4.8-0.8
		c1.4-0.4,2.8-0.8,4.3-1.2c2.3-0.2,4.6-0.4,6.9-0.5c1.2,8.4,2.2,16,2.9,22.9c0.7,6.9,1.3,14.3,1.9,22.1c0.4,5.1,0.1,9.2-0.9,12.3
		c-1,3.1-2.6,5.4-5,6.7s-5.4,2.5-9.1,3.2c-3.7,0.8-7.4,1.3-11,1.6c-10,0.8-18.5,0.6-25.6-0.6c-7.1-1.2-13.6-3.9-19.4-8
		c-5.9-4.2-11.3-10.2-16.3-18.3c-8.6-13.4-16.6-26.7-24.1-39.7c-7.4-13.1-15-26.3-22.6-39.8C192.6,247.8,210.3,237.1,228.1,226.6
		L228.1,226.6z"/>
	<path d="M527.7,348.6c-16.5,0.5-31-1.2-43.7-5.2s-23.4-10-32.2-17.9c-8.8-7.9-15.7-17.8-20.7-29.5c-5-11.8-8-25.3-8.8-40.5
		c-0.8-15.9-1.6-31.9-2.4-47.8c-0.8-16.4,0.7-31.4,4.8-45.2c4-13.7,10.3-25.8,18.8-36.1c8.5-10.3,19.1-18.5,31.8-24.4
		c12.7-5.9,27.4-9.2,44-9.7c10.7-0.3,20.3,0.4,28.8,2.2c8.5,1.8,15.8,4.1,21.9,7.1c6.1,3,11.1,6.3,14.8,9.9c2.5,1.8,4.2,3.8,5.2,6
		s1.8,4.4,2.3,6.7c0.5,2.3,0.8,4.8,0.8,7.6c0.1,8.3,0.3,17.4,0.4,27.4c0.2,9.9,0.3,19.4,0.5,28.4c-6,0.6-12.1,1-18.5,1.4
		c-6.3,0.4-12.7,0.6-19.2,0.8c-4.3,0.1-7.7-0.7-10.3-2.5c-2.6-1.8-3.9-4.6-4-8.6c-0.1-3.5-0.1-7.4-0.1-11.8c0-4.4,0-9.3,0.2-14.7
		c0.1-5.4,0.4-12,1-19.6c2.8,4.8,5.6,9.6,8.3,14.4c-5.1-2.9-10.1-4.7-14.8-5.5c-4.7-0.8-10-1.1-15.8-0.9c-9.4,0.3-17.6,3.1-24.6,8.4
		c-6.9,5.3-12.1,12.9-15.6,22.6c-3.5,9.7-4.9,21.2-4.4,34.3c0.6,14.7,1.2,29.3,1.7,44c0.4,8.8,1.3,16.4,2.8,22.8
		c1.5,6.4,3.9,11.9,7.2,16.4c5.1,4,10.9,6.8,17.4,8.6c6.5,1.7,14.1,2.5,22.8,2.2c12.2-0.4,23.4-2.4,33.8-6.3
		c10.3-3.8,20.6-9.7,30.8-17.8c1.7,0,3.3,0,4.9-0.1c0.5,3,0.8,5.9,0.8,8.6c0,2.8,0.1,5.5,0.3,8.3c0.2,2.8,0.3,5.5,0.3,8.3
		c0,2.8,0.1,5.7,0.1,8.7c0.1,4.6-0.5,8.5-1.8,11.5c-1.2,3-2.8,5.5-4.6,7.4c-3.2,3.3-8,6.4-14.3,9.4s-13.8,5.5-22.5,7.4
		C547.3,347.2,537.9,348.4,527.7,348.6L527.7,348.6z"/>
	<path d="M1104.9,73.3c65.9,5.6,131.8,12.4,197.5,20.5c3.6,0.4,6.3,1.8,8.1,4c1.8,2.2,2.9,4.7,3.4,7.5c0.4,2.8,0.5,5.1,0.2,7.1
		c-0.9,7.6-1.9,14.4-2.8,20.5c-0.9,6.1-2,13-3.3,20.5c-65.9-8.3-131.8-15.3-197.9-21c-2.7-0.2-4.7-1.2-6-3.1c-1.3-1.8-2.3-4-2.8-6.6
		c-0.5-2.6-0.7-5.3-0.4-8.1c0.6-7.3,1.3-14.2,2-20.6C1103.6,87.5,1104.3,80.6,1104.9,73.3L1104.9,73.3z M1118,371.7
		c-2.2-0.2-4.4-1-6.6-2.5c-2.2-1.5-4-3.4-5.7-5.8s-3-5-4-7.8c-1-2.8-1.5-5.3-1.3-7.5c0.7-8.4,1.7-19.3,2.9-32.6
		c1.2-13.3,2.5-28.3,4-44.9s3-33.8,4.6-51.8c1.6-18,3.2-35.7,4.7-53.3c1.6-17.6,3-34.1,4.4-49.5c22.7,2,45.4,4.2,68,6.5
		c-1.6,3.5-3.1,7.1-4.7,10.6c1.2,5.5,2,11.6,2.4,18.1c0.4,6.6,0.2,13.6-0.6,21.2c-1.2,12.1-2.5,24.2-3.7,36.4
		c-1.2,12.2-2.5,24.5-3.8,36.8c-1.3,12.3-2.5,24.6-3.8,36.8s-2.5,24.2-3.7,36c32,3.3,64.1,6.9,96.1,10.8c6.5,0.8,11.2,2.7,14,5.6
		c2.8,2.9,3.8,7.3,3.1,13.2c-0.9,7.5-1.9,14.6-2.9,21.2c-1,6.6-1.9,13.3-2.8,20.3C1225.2,382.5,1171.6,376.7,1118,371.7L1118,371.7z
		 M1158.9,201.4c34.1,3.3,68.2,7,102.3,11c3.5,0.4,6.2,1.6,8.2,3.5s3.4,4.3,4.2,7.1c0.8,2.8,1.1,5.6,0.8,8.4
		c-0.6,4.8-1.2,9.2-1.8,13.2s-1.2,8-1.6,11.7c-0.5,3.8-0.9,7.8-1.4,12c-38.6-4.7-77.2-8.9-115.8-12.7
		C1155.3,237.6,1157.1,219.5,1158.9,201.4L1158.9,201.4z"/>
	<path d="M1199.5,421.4c-1.2,2.8-3.7,5.6-7.4,8.6c-8.9,7.1-19.8,12.5-32.7,16.2c-12.9,3.7-28.1,5.6-45.4,5.2
		c-104.1-1.3-207-3.4-308.7-3.3c-101.7,0.1-202.1,3-301.6,12.5c-99.5,9.5-198,25.3-296,51c-20.3,5.2-38.7,10.7-55.2,16.3
		c-16.6,5.6-32.5,12.4-47.8,20.5c-1.9-9.1-2.3-18-1.2-26.5c1.1-8.5,4.1-18.2,8.8-29c5.6-12.6,12.7-23.4,21.2-32.3
		c8.6-8.9,18.9-16.1,31-21.7c12.1-5.6,26.3-10.3,42.7-14.3c103.3-22.7,208-34.1,315.1-38.4c107.1-4.3,217-1,330.2,5
		c113.1,6,229.4,14.4,348.5,20.6C1201.2,415.4,1200.7,418.6,1199.5,421.4L1199.5,421.4z"/>
</g>
<g id="hero-top-design">
	<path d="M1511.6,66.4c13.3,3.5,22.1,9.3,26.6,17.6s3.1,19.7-4.2,34.2c-1.6,3.9-3.3,7.6-5.2,11c-1.9,3.4-3.8,6.5-5.7,9.4
		c-1.9,2.8-3.9,5.6-6,8.2l0.9,1.5c5.8-3.4,11.8-6.8,17.9-10.3s12.7-7.1,19.8-10.9c7.1-3.8,15.1-7.6,24.2-11.3
		c2.7,3.9,5,7.6,6.9,11.1c1.8,3.5,3.3,7.6,4.4,12.2c3.4,11.3,3.6,20.7,0.7,28.1c-3,7.5-9.4,11.5-19.4,12.1
		c-6.2,0.4-11.9,0.6-17.1,0.5c-5.2-0.1-10.2-0.1-15,0c-4.8,0.1-10-0.2-15.6-0.8l-0.6,2.4c7.8,4.4,14.7,8.4,20.7,12.1
		s12.1,7.6,18.2,11.5c6.2,3.9,13.3,8.8,21.3,14.7c-2,4.4-4.1,8.3-6.1,11.8c-2.1,3.5-5,6.8-8.6,9.9c-8.3,8.5-16.2,13.3-23.8,14.2
		c-7.6,0.9-14.5-2.8-20.8-11c-3.5-4.4-6.4-8.8-8.7-13.1s-4.6-8.8-6.9-13.3c-2.3-4.5-5-9.2-8.1-14l-2.7,0.2c0.2,5,0.1,9.4,0,13.4
		c-0.2,4-0.4,8-0.7,11.9c-0.3,4-0.6,8.1-0.8,12.4c-0.1,6-0.1,11.3,0,15.8c0.1,4.5,0.6,8.6,1.3,12.3s1.6,7.6,2.5,11.9
		c-5.9,0.5-11.5,0.5-16.7,0.2c-5.3-0.4-11.1-1.5-17.5-3.5c-13.5-3.5-22.6-9.4-27.2-17.7c-4.6-8.3-3-19.7,4.8-34.1
		c1.5-3.6,3.4-7.1,5.8-10.4c2.3-3.3,4.5-6.7,6.6-10.2c2.1-3.5,4.3-7.2,6.8-11.2l-1.4-1.2c-7.5,4.4-14.5,8.4-20.9,11.9
		c-6.4,3.5-12.8,7-19.2,10.4c-6.4,3.4-13.5,7-21.4,10.7c-2.3-3.2-4.7-6.9-6.9-10.9c-2.3-4.1-4.1-8.3-5.6-12.7
		c-3.1-11.5-3.2-21-0.4-28.5s9.3-11.5,19.6-12c5.9-0.5,11.3-0.7,16.2-0.8c4.9,0,9.9,0.1,15.1,0.2c5.2,0.2,10.8,0.5,17.1,1l0.6-2.4
		c-7.4-4.8-14.4-9.1-20.9-12.8c-6.6-3.7-13-7.6-19.3-11.5c-6.3-4-13.1-8.6-20.4-14c1.5-3.7,3.4-7.4,5.6-11.3c2.2-3.9,5-7.6,8.5-11
		c8.8-8.4,17.1-13.1,24.9-14.1c7.8-1,14.5,2.6,20.2,10.7c3.1,4.6,6,9.1,8.6,13.5c2.6,4.4,5.1,8.9,7.6,13.4c2.4,4.5,4.9,9.3,7.3,14.3
		l2.3-0.7c0.1-3.7,0.2-7.6,0.4-11.6c0.2-4,0.3-8.1,0.4-12.3c0.1-4.2-0.1-8.3-0.4-12.5c-0.1-8.7-0.3-15.5-0.8-20.4
		s-1.6-10.5-3.4-16.7c5.2-1,10.6-1.2,16.4-0.7C1499,63.6,1505.2,64.7,1511.6,66.4L1511.6,66.4z"/>
	<path d="M1687,84.3c7.2,1.9,12.1,5.1,14.6,9.6c2.5,4.5,1.7,10.8-2.3,18.7c-0.9,2.1-1.8,4.2-2.9,6s-2.1,3.6-3.1,5.1
		c-1,1.6-2.1,3-3.3,4.5l0.5,0.8c3.2-1.9,6.4-3.7,9.8-5.6c3.3-1.9,6.9-3.9,10.8-6c3.9-2.1,8.3-4.1,13.2-6.2c1.5,2.1,2.8,4.2,3.8,6.1
		s1.8,4.2,2.4,6.7c1.9,6.2,2,11.3,0.4,15.4c-1.6,4.1-5.2,6.3-10.6,6.6c-3.4,0.2-6.5,0.3-9.3,0.3s-5.6,0-8.2,0
		c-2.6,0-5.5-0.1-8.5-0.4l-0.3,1.3c4.3,2.4,8.1,4.6,11.3,6.6c3.3,2,6.6,4.1,10,6.3c3.4,2.1,7.3,4.8,11.7,8c-1.1,2.4-2.2,4.6-3.3,6.5
		s-2.7,3.7-4.7,5.4c-4.5,4.7-8.9,7.2-13.1,7.8s-7.9-1.5-11.3-6c-1.9-2.4-3.5-4.8-4.8-7.2c-1.3-2.4-2.5-4.8-3.8-7.3
		c-1.3-2.5-2.7-5-4.4-7.7l-1.4,0.1c0.1,2.7,0.1,5.2,0,7.4s-0.2,4.4-0.4,6.5s-0.3,4.4-0.5,6.8c-0.1,3.3-0.1,6.2,0,8.7
		s0.3,4.7,0.7,6.7s0.9,4.2,1.4,6.5c-3.2,0.3-6.3,0.3-9.2,0.1c-2.9-0.2-6.1-0.8-9.6-1.9c-7.4-1.9-12.4-5.2-14.9-9.7
		c-2.5-4.5-1.7-10.8,2.6-18.6c0.8-2,1.9-3.9,3.2-5.7c1.3-1.8,2.5-3.7,3.6-5.6s2.4-4,3.7-6.1l-0.8-0.7c-4.1,2.4-7.9,4.6-11.4,6.5
		c-3.5,1.9-7,3.8-10.5,5.7s-7.4,3.8-11.7,5.8c-1.3-1.8-2.5-3.8-3.8-6s-2.3-4.5-3.1-7c-1.7-6.3-1.8-11.5-0.2-15.6
		c1.5-4.1,5.1-6.3,10.7-6.6c3.2-0.3,6.2-0.4,8.9-0.4c2.7,0,5.4,0,8.3,0.1c2.8,0.1,5.9,0.3,9.3,0.5l0.3-1.3c-4.1-2.6-7.9-5-11.4-7
		c-3.6-2-7.1-4.1-10.6-6.3s-7.2-4.7-11.2-7.7c0.8-2,1.8-4.1,3-6.2c1.2-2.1,2.7-4.2,4.7-6c4.8-4.6,9.4-7.2,13.6-7.7s7.9,1.4,11.1,5.8
		c1.7,2.5,3.3,5,4.7,7.4c1.4,2.4,2.8,4.9,4.1,7.4s2.7,5.1,4,7.8l1.3-0.4c0.1-2,0.1-4.2,0.2-6.3c0.1-2.2,0.2-4.4,0.2-6.7
		c0-2.3,0-4.6-0.2-6.8c0-4.8-0.2-8.5-0.4-11.1c-0.2-2.7-0.9-5.7-1.9-9.2c2.8-0.5,5.8-0.7,9-0.4C1680.1,82.8,1683.4,83.4,1687,84.3
		L1687,84.3z"/>
	<path d="M1655.1,208.2c5.4,1.4,9,3.8,10.8,7.1c1.8,3.3,1.3,8-1.7,13.9c-0.7,1.6-1.4,3.1-2.1,4.4c-0.8,1.4-1.5,2.6-2.3,3.8
		c-0.8,1.1-1.6,2.2-2.4,3.3l0.4,0.6c2.3-1.4,4.8-2.8,7.2-4.2s5.1-2.9,8-4.4c2.9-1.5,6.1-3.1,9.8-4.6c1.1,1.6,2,3.1,2.8,4.5
		c0.7,1.4,1.3,3.1,1.8,4.9c1.4,4.6,1.5,8.4,0.3,11.4c-1.2,3-3.8,4.6-7.8,4.9c-2.5,0.2-4.8,0.2-6.9,0.2s-4.1,0-6.1,0
		c-1.9,0-4-0.1-6.3-0.3l-0.3,1c3.2,1.8,6,3.4,8.4,4.9c2.4,1.5,4.9,3.1,7.4,4.6s5.4,3.6,8.6,5.9c-0.8,1.8-1.6,3.4-2.5,4.8
		s-2,2.8-3.5,4c-3.4,3.5-6.6,5.4-9.7,5.7c-3.1,0.4-5.9-1.1-8.4-4.5c-1.4-1.8-2.6-3.5-3.5-5.3c-0.9-1.8-1.9-3.6-2.8-5.4
		s-2-3.7-3.3-5.7l-1.1,0.1c0.1,2,0.1,3.8,0,5.4c-0.1,1.6-0.2,3.2-0.3,4.8s-0.2,3.3-0.3,5c-0.1,2.4-0.1,4.6,0,6.4
		c0.1,1.8,0.2,3.5,0.6,5s0.7,3.1,1,4.8c-2.4,0.2-4.7,0.2-6.8,0.1s-4.5-0.6-7.1-1.4c-5.5-1.4-9.2-3.8-11-7.2c-1.9-3.4-1.2-8,1.9-13.8
		c0.6-1.5,1.4-2.9,2.3-4.2c0.9-1.3,1.8-2.7,2.7-4.1c0.8-1.4,1.8-2.9,2.8-4.5l-0.6-0.5c-3,1.8-5.9,3.4-8.4,4.8
		c-2.6,1.4-5.2,2.8-7.8,4.2c-2.6,1.4-5.5,2.8-8.7,4.3c-0.9-1.3-1.9-2.8-2.8-4.4s-1.7-3.4-2.2-5.1c-1.2-4.6-1.3-8.5-0.2-11.5
		c1.1-3,3.8-4.7,7.9-4.9c2.4-0.2,4.6-0.3,6.6-0.3c2,0,4,0,6.1,0.1c2.1,0.1,4.4,0.2,6.9,0.4l0.3-1c-3-1.9-5.8-3.7-8.5-5.2
		c-2.7-1.5-5.2-3.1-7.8-4.7c-2.6-1.6-5.3-3.5-8.3-5.7c0.6-1.5,1.4-3,2.2-4.6c0.9-1.6,2-3.1,3.4-4.5c3.6-3.4,6.9-5.3,10.1-5.7
		s5.9,1,8.2,4.3c1.3,1.9,2.4,3.7,3.5,5.5c1.1,1.8,2.1,3.6,3.1,5.4c1,1.8,2,3.8,3,5.8l0.9-0.3c0-1.5,0.1-3.1,0.2-4.7
		c0.1-1.6,0.1-3.3,0.2-5s0-3.4-0.2-5.1c0-3.5-0.1-6.3-0.3-8.2c-0.2-2-0.7-4.2-1.4-6.8c2.1-0.4,4.3-0.5,6.7-0.3
		S1652.5,207.6,1655.1,208.2L1655.1,208.2z"/>
	<path d="M1436.4,306.5c5.4,1.4,9,3.8,10.8,7.1c1.8,3.4,1.3,8-1.7,13.9c-0.7,1.6-1.4,3.1-2.1,4.5s-1.5,2.6-2.3,3.8s-1.6,2.3-2.4,3.3
		l0.4,0.6c2.3-1.4,4.8-2.8,7.2-4.2c2.5-1.4,5.2-2.9,8-4.4c2.9-1.5,6.1-3.1,9.8-4.6c1.1,1.6,2,3.1,2.8,4.5c0.7,1.4,1.3,3.1,1.8,5
		c1.4,4.6,1.5,8.4,0.3,11.4s-3.8,4.7-7.9,4.9c-2.5,0.2-4.8,0.2-6.9,0.2c-2.1,0-4.1,0-6.1,0c-1.9,0-4.1-0.1-6.3-0.3l-0.3,1
		c3.2,1.8,6,3.4,8.4,4.9s4.9,3.1,7.4,4.7c2.5,1.6,5.4,3.6,8.7,6c-0.8,1.8-1.7,3.4-2.5,4.8c-0.8,1.4-2,2.8-3.5,4
		c-3.4,3.5-6.6,5.4-9.7,5.8c-3.1,0.4-5.9-1.1-8.4-4.5c-1.4-1.8-2.6-3.5-3.5-5.3c-0.9-1.8-1.9-3.6-2.8-5.4c-0.9-1.8-2-3.7-3.3-5.7
		l-1.1,0.1c0.1,2,0.1,3.8,0,5.5c-0.1,1.6-0.2,3.2-0.3,4.9c-0.1,1.6-0.2,3.3-0.3,5c-0.1,2.5-0.1,4.6,0,6.4s0.2,3.5,0.6,5
		s0.7,3.1,1,4.9c-2.4,0.2-4.7,0.2-6.8,0.1c-2.1-0.1-4.5-0.6-7.1-1.4c-5.5-1.4-9.2-3.8-11.1-7.2c-1.9-3.4-1.2-8,1.9-13.9
		c0.6-1.5,1.4-2.9,2.3-4.2s1.8-2.7,2.7-4.1c0.8-1.4,1.8-2.9,2.8-4.6l-0.6-0.5c-3.1,1.8-5.9,3.4-8.5,4.8c-2.6,1.4-5.2,2.8-7.8,4.2
		c-2.6,1.4-5.5,2.8-8.7,4.3c-0.9-1.3-1.9-2.8-2.8-4.4s-1.7-3.4-2.3-5.2c-1.2-4.7-1.3-8.5-0.2-11.6c1.2-3,3.8-4.7,8-4.9
		c2.4-0.2,4.6-0.3,6.6-0.3c2,0,4,0,6.1,0.1c2.1,0.1,4.4,0.2,6.9,0.4l0.3-1c-3-2-5.8-3.7-8.5-5.2c-2.7-1.5-5.3-3.1-7.8-4.7
		c-2.6-1.6-5.3-3.5-8.3-5.7c0.6-1.5,1.4-3,2.3-4.6c0.9-1.6,2-3.1,3.4-4.5c3.6-3.4,7-5.3,10.1-5.7s5.9,1,8.2,4.3
		c1.3,1.9,2.4,3.7,3.5,5.5s2.1,3.6,3.1,5.5s2,3.8,3,5.8l0.9-0.3c0-1.5,0.1-3.1,0.2-4.7c0.1-1.6,0.1-3.3,0.2-5c0-1.7,0-3.4-0.2-5.1
		c0-3.5-0.1-6.3-0.3-8.3c-0.2-2-0.7-4.2-1.4-6.8c2.1-0.4,4.3-0.5,6.7-0.3C1431.2,305.3,1433.7,305.8,1436.4,306.5L1436.4,306.5z"/>
</g>
<g id="hero-bottom-design">
	<path d="M2175.1,107.2c9.3,8,14.1,16.2,14.4,24.6c0.4,8.4-5.3,17-16.9,25.8c-2.8,2.5-5.7,4.8-8.6,6.8c-2.9,2-5.6,3.7-8.3,5.3
		c-2.6,1.5-5.3,2.9-8.1,4.2l0.1,1.6c6-0.4,12.1-0.9,18.4-1.2c6.3-0.4,13-0.7,20.1-0.9s15.1-0.1,23.8,0.5c0.7,4.2,1,8.1,1.1,11.6
		c0.1,3.5-0.4,7.4-1.3,11.5c-1.7,10.4-5.2,18-10.6,22.9c-5.3,4.8-12.1,5.5-20.3,2c-5.1-2.1-9.8-4.2-13.9-6.3s-8.1-4.1-12-5.9
		s-7.9-4.1-12.2-6.8l-1.5,1.7c4.6,6.6,8.5,12.5,11.8,17.9c3.3,5.3,6.7,10.8,10.1,16.4c3.4,5.6,7.2,12.3,11.3,20.2
		c-3.4,2.7-6.6,5.1-9.6,7.1c-3.1,2-6.7,3.5-10.8,4.5c-10,3.6-18.3,4.2-24.7,2c-6.5-2.3-10.6-8-12.3-17.1c-1.1-4.9-1.7-9.5-1.8-14
		c-0.1-4.4-0.2-8.9-0.3-13.4s-0.4-9.3-0.9-14.4l-2.2-0.9c-1.8,4-3.6,7.6-5.3,10.8c-1.7,3.1-3.5,6.2-5.3,9.3
		c-1.8,3.1-3.7,6.2-5.6,9.6c-2.5,4.8-4.6,9-6.2,12.7s-2.9,7.1-3.8,10.4s-1.7,6.8-2.7,10.6c-4.9-1.9-9.4-4.1-13.5-6.5
		c-4.1-2.4-8.3-5.6-12.7-9.7c-9.5-8.2-14.4-16.5-14.9-25c-0.4-8.5,5.3-17,17.3-25.5c2.7-2.3,5.6-4.4,8.7-6.1
		c3.1-1.7,6.2-3.6,9.3-5.6c3-2,6.3-4.1,9.9-6.3l-0.6-1.6c-7.8,0.6-14.9,1-21.4,1.3c-6.5,0.3-13,0.6-19.5,0.8
		c-6.5,0.2-13.6,0.2-21.4,0.1c-0.6-3.5-1-7.3-1.2-11.5c-0.2-4.1,0-8.3,0.6-12.4c2.1-10.4,5.7-18.1,10.9-23c5.2-4.9,12-5.5,20.5-1.9
		c4.9,1.9,9.4,3.9,13.3,5.8c3.9,1.9,8,4,12,6.2s8.5,4.7,13.3,7.5l1.5-1.7c-4.1-6.8-8-13-11.7-18.6c-3.8-5.6-7.4-11.2-10.9-16.9
		c-3.5-5.7-7.1-12.1-10.9-19.3c2.7-2.3,5.6-4.6,8.9-6.9s7-4.1,11.2-5.5c10.4-3.2,18.9-3.7,25.6-1.5c6.6,2.3,10.6,7.8,12,16.5
		c0.7,4.9,1.2,9.7,1.6,14.2s0.6,9.2,0.8,13.8c0.2,4.6,0.2,9.4,0.3,14.3l2.1,0.4c1.6-2.9,3.2-6,4.9-9.1c1.7-3.1,3.4-6.4,5.1-9.7
		c1.7-3.3,3.2-6.7,4.6-10.2c3.4-7,5.9-12.5,7.4-16.6c1.6-4.1,2.8-9,3.8-14.8c4.5,1.3,9,3.2,13.5,5.9
		C2166.1,100,2170.6,103.3,2175.1,107.2L2175.1,107.2z"/>
	<path d="M1996.9,181.1c4.7,4.1,7.2,8.3,7.4,12.6c0.2,4.3-2.7,8.7-8.6,13.2c-1.4,1.3-2.9,2.4-4.4,3.4s-2.9,1.9-4.2,2.7
		c-1.3,0.8-2.7,1.5-4.1,2.1l0.1,0.8c3.1-0.2,6.2-0.4,9.4-0.6c3.2-0.2,6.6-0.4,10.3-0.5c3.7-0.1,7.7,0,12.2,0.3
		c0.3,2.1,0.5,4.1,0.6,5.9c0,1.8-0.2,3.8-0.7,5.9c-0.9,5.3-2.7,9.2-5.4,11.7c-2.7,2.5-6.2,2.8-10.4,1c-2.6-1.1-5-2.1-7.1-3.2
		s-4.2-2.1-6.1-3c-2-0.9-4.1-2.1-6.2-3.5l-0.8,0.9c2.3,3.4,4.3,6.4,6,9.1c1.7,2.7,3.4,5.5,5.2,8.4c1.8,2.9,3.7,6.3,5.8,10.3
		c-1.7,1.4-3.3,2.6-4.9,3.6c-1.6,1-3.4,1.8-5.5,2.3c-5.1,1.8-9.3,2.2-12.6,1s-5.4-4.1-6.3-8.7c-0.6-2.5-0.9-4.9-0.9-7.1
		c-0.1-2.3-0.1-4.6-0.2-6.9c0-2.3-0.2-4.8-0.5-7.4l-1.1-0.5c-0.9,2.1-1.8,3.9-2.7,5.5s-1.8,3.2-2.7,4.8c-0.9,1.6-1.9,3.2-2.8,4.9
		c-1.3,2.4-2.3,4.6-3.2,6.5c-0.9,1.9-1.5,3.6-1.9,5.3s-0.9,3.5-1.4,5.4c-2.5-1-4.8-2.1-6.9-3.3c-2.1-1.2-4.2-2.9-6.5-5
		c-4.8-4.2-7.4-8.4-7.6-12.8c-0.2-4.3,2.7-8.7,8.8-13c1.4-1.2,2.8-2.2,4.5-3.1s3.2-1.8,4.8-2.9c1.6-1,3.2-2.1,5.1-3.2l-0.3-0.8
		c-4,0.3-7.6,0.5-11,0.7c-3.3,0.1-6.7,0.3-10,0.4c-3.3,0.1-6.9,0.1-10.9,0.1c-0.3-1.8-0.5-3.8-0.6-5.9s0-4.2,0.3-6.3
		c1.1-5.3,2.9-9.3,5.6-11.8c2.7-2.5,6.2-2.8,10.5-1c2.5,1,4.8,2,6.8,3c2,1,4.1,2,6.2,3.1c2.1,1.1,4.3,2.4,6.8,3.9l0.8-0.9
		c-2.1-3.5-4.1-6.6-6-9.5c-1.9-2.9-3.8-5.7-5.6-8.6c-1.8-2.9-3.7-6.2-5.6-9.9c1.4-1.2,2.9-2.4,4.6-3.5c1.7-1.2,3.6-2.1,5.7-2.8
		c5.3-1.7,9.7-1.9,13.1-0.8c3.4,1.2,5.4,4,6.1,8.5c0.4,2.5,0.6,4.9,0.8,7.3c0.2,2.3,0.3,4.7,0.4,7c0.1,2.4,0.1,4.8,0.1,7.3l1.1,0.2
		c0.8-1.5,1.6-3.1,2.5-4.7c0.9-1.6,1.8-3.3,2.6-4.9c0.9-1.7,1.7-3.4,2.3-5.2c1.7-3.6,3-6.4,3.8-8.5c0.8-2.1,1.4-4.6,2-7.6
		c2.3,0.6,4.6,1.7,6.9,3C1992.3,177.4,1994.6,179.1,1996.9,181.1L1996.9,181.1z"/>
	<path d="M2041.4,293.4c4.7,4.1,7.2,8.3,7.4,12.6c0.2,4.3-2.7,8.7-8.6,13.2c-1.4,1.3-2.9,2.4-4.4,3.5s-2.9,1.9-4.2,2.7
		c-1.3,0.8-2.7,1.5-4.1,2.1l0.1,0.8c3.1-0.2,6.2-0.4,9.4-0.6c3.2-0.2,6.6-0.4,10.3-0.5c3.7-0.1,7.7,0,12.2,0.3
		c0.3,2.1,0.5,4.1,0.6,5.9s-0.2,3.8-0.7,5.9c-0.9,5.3-2.7,9.2-5.4,11.7s-6.2,2.8-10.4,1c-2.6-1.1-5-2.1-7.1-3.2s-4.2-2.1-6.1-3
		c-2-0.9-4.1-2.1-6.2-3.5l-0.8,0.9c2.3,3.4,4.3,6.4,6,9.1c1.7,2.7,3.4,5.5,5.2,8.4c1.8,2.9,3.7,6.3,5.8,10.3
		c-1.7,1.4-3.3,2.6-4.9,3.6c-1.6,1-3.4,1.8-5.5,2.3c-5.1,1.8-9.3,2.2-12.6,1s-5.4-4.1-6.3-8.7c-0.6-2.5-0.9-4.9-0.9-7.1
		c-0.1-2.3-0.1-4.5-0.2-6.9c0-2.3-0.2-4.8-0.5-7.4l-1.1-0.5c-0.9,2.1-1.8,3.9-2.7,5.5c-0.9,1.6-1.8,3.2-2.7,4.8
		c-0.9,1.6-1.9,3.2-2.8,4.9c-1.3,2.5-2.3,4.6-3.2,6.5c-0.9,1.9-1.5,3.6-1.9,5.3s-0.9,3.5-1.4,5.4c-2.5-1-4.8-2.1-6.9-3.3
		c-2.1-1.2-4.2-2.9-6.5-5c-4.8-4.2-7.4-8.4-7.6-12.8c-0.2-4.3,2.7-8.7,8.8-13c1.4-1.2,2.8-2.2,4.5-3.1c1.6-0.9,3.2-1.8,4.8-2.9
		c1.6-1,3.2-2.1,5.1-3.2l-0.3-0.8c-4,0.3-7.6,0.5-11,0.7c-3.3,0.1-6.7,0.3-10,0.4c-3.3,0.1-6.9,0.1-10.9,0.1
		c-0.3-1.8-0.5-3.8-0.6-5.9s0-4.2,0.3-6.3c1.1-5.3,2.9-9.3,5.6-11.8c2.7-2.5,6.2-2.8,10.5-1c2.5,1,4.8,2,6.8,3c2,1,4.1,2,6.2,3.1
		c2.1,1.1,4.3,2.4,6.8,3.9l0.8-0.9c-2.1-3.5-4.1-6.6-6-9.5c-1.9-2.9-3.8-5.7-5.6-8.6c-1.8-2.9-3.7-6.2-5.6-9.9
		c1.4-1.2,2.9-2.4,4.6-3.5c1.7-1.2,3.6-2.1,5.7-2.8c5.3-1.7,9.7-1.9,13.1-0.8c3.4,1.2,5.4,4,6.1,8.5c0.4,2.5,0.6,4.9,0.8,7.3
		c0.2,2.3,0.3,4.7,0.4,7s0.1,4.8,0.1,7.3l1.1,0.2c0.8-1.5,1.6-3.1,2.5-4.7c0.9-1.6,1.8-3.3,2.6-5c0.9-1.7,1.7-3.4,2.3-5.2
		c1.7-3.6,3-6.4,3.8-8.5s1.4-4.6,2-7.6c2.3,0.6,4.6,1.7,6.9,3C2036.8,289.7,2039.1,291.4,2041.4,293.4L2041.4,293.4z"/>
	<path d="M1925.7,291.2c2.5,2.2,3.8,4.4,3.9,6.6s-1.4,4.6-4.5,7c-0.8,0.7-1.5,1.3-2.3,1.8c-0.8,0.5-1.5,1-2.2,1.4s-1.4,0.8-2.2,1.1
		l0,0.4c1.6-0.1,3.3-0.2,5-0.3c1.7-0.1,3.5-0.2,5.4-0.3s4.1,0,6.4,0.1c0.2,1.1,0.3,2.2,0.3,3.1s-0.1,2-0.3,3.1
		c-0.5,2.8-1.4,4.9-2.8,6.2c-1.4,1.3-3.3,1.5-5.5,0.5c-1.4-0.6-2.6-1.1-3.8-1.7c-1.1-0.6-2.2-1.1-3.2-1.6s-2.1-1.1-3.3-1.8l-0.4,0.5
		c1.2,1.8,2.3,3.4,3.2,4.8c0.9,1.4,1.8,2.9,2.7,4.4c0.9,1.5,1.9,3.3,3.1,5.4c-0.9,0.7-1.8,1.4-2.6,1.9s-1.8,0.9-2.9,1.2
		c-2.7,1-4.9,1.1-6.7,0.5c-1.7-0.6-2.8-2.1-3.3-4.6c-0.3-1.3-0.4-2.6-0.5-3.8s-0.1-2.4-0.1-3.6c0-1.2-0.1-2.5-0.2-3.9l-0.6-0.2
		c-0.5,1.1-1,2.1-1.4,2.9c-0.5,0.9-0.9,1.7-1.4,2.5c-0.5,0.8-1,1.7-1.5,2.6c-0.7,1.3-1.2,2.4-1.7,3.4c-0.4,1-0.8,1.9-1,2.8
		c-0.2,0.9-0.5,1.8-0.7,2.9c-1.3-0.5-2.5-1.1-3.6-1.7c-1.1-0.6-2.2-1.5-3.4-2.6c-2.6-2.2-3.9-4.5-4-6.7c-0.1-2.3,1.4-4.6,4.7-6.9
		c0.7-0.6,1.5-1.2,2.3-1.6s1.7-1,2.5-1.5c0.8-0.5,1.7-1.1,2.7-1.7l-0.2-0.4c-2.1,0.1-4,0.3-5.8,0.4c-1.8,0.1-3.5,0.1-5.3,0.2
		s-3.7,0.1-5.8,0c-0.2-1-0.3-2-0.3-3.1c-0.1-1.1,0-2.2,0.2-3.3c0.6-2.8,1.5-4.9,2.9-6.2c1.4-1.3,3.2-1.5,5.5-0.5
		c1.3,0.5,2.5,1,3.6,1.6c1.1,0.5,2.2,1.1,3.2,1.7s2.3,1.3,3.6,2l0.4-0.5c-1.1-1.8-2.2-3.5-3.2-5c-1-1.5-2-3-2.9-4.5
		s-1.9-3.3-2.9-5.2c0.7-0.6,1.5-1.2,2.4-1.9c0.9-0.6,1.9-1.1,3-1.5c2.8-0.9,5.1-1,6.9-0.4c1.8,0.6,2.9,2.1,3.2,4.5
		c0.2,1.3,0.3,2.6,0.4,3.8c0.1,1.2,0.2,2.5,0.2,3.7c0,1.2,0.1,2.5,0.1,3.9l0.6,0.1c0.4-0.8,0.9-1.6,1.3-2.5c0.5-0.9,0.9-1.7,1.4-2.6
		c0.5-0.9,0.9-1.8,1.2-2.7c0.9-1.9,1.6-3.4,2-4.5c0.4-1.1,0.8-2.4,1-4c1.2,0.3,2.4,0.9,3.6,1.6
		C1923.2,289.2,1924.4,290.1,1925.7,291.2L1925.7,291.2z"/>
	<path d="M1865.8,219.3c4,3.5,6.1,7.1,6.3,10.7c0.2,3.7-2.3,7.4-7.3,11.3c-1.2,1.1-2.5,2.1-3.7,2.9s-2.4,1.6-3.6,2.3
		c-1.2,0.7-2.3,1.3-3.5,1.8l0.1,0.7c2.6-0.2,5.3-0.4,8-0.5s5.7-0.3,8.8-0.4s6.6,0,10.4,0.2c0.3,1.8,0.4,3.5,0.5,5.1
		c0,1.5-0.2,3.2-0.6,5c-0.8,4.5-2.3,7.9-4.6,10s-5.3,2.4-8.9,0.9c-2.2-0.9-4.2-1.8-6.1-2.7s-3.6-1.8-5.2-2.6c-1.7-0.8-3.5-1.8-5.3-3
		l-0.6,0.7c2,2.9,3.7,5.5,5.2,7.8c1.4,2.3,2.9,4.7,4.4,7.2s3.1,5.4,4.9,8.8c-1.5,1.2-2.8,2.2-4.2,3.1c-1.3,0.9-2.9,1.5-4.7,2
		c-4.4,1.6-8,1.8-10.8,0.9c-2.8-1-4.6-3.5-5.4-7.4c-0.5-2.1-0.7-4.2-0.8-6.1c-0.1-1.9-0.1-3.9-0.1-5.9s-0.2-4.1-0.4-6.3l-1-0.4
		c-0.8,1.8-1.6,3.3-2.3,4.7s-1.5,2.7-2.3,4s-1.6,2.7-2.4,4.2c-1.1,2.1-2,3.9-2.7,5.5s-1.3,3.1-1.6,4.5s-0.8,3-1.2,4.6
		c-2.2-0.9-4.1-1.8-5.9-2.8c-1.8-1-3.6-2.4-5.5-4.2c-4.1-3.6-6.3-7.2-6.5-10.9s2.3-7.4,7.5-11.1c1.2-1,2.4-1.9,3.8-2.7
		s2.7-1.6,4.1-2.4c1.3-0.9,2.8-1.8,4.3-2.8l-0.3-0.7c-3.4,0.2-6.5,0.4-9.3,0.6s-5.7,0.2-8.5,0.3c-2.8,0.1-5.9,0.1-9.3,0
		c-0.3-1.5-0.4-3.2-0.5-5c-0.1-1.8,0-3.6,0.2-5.4c0.9-4.6,2.5-7.9,4.8-10s5.2-2.4,8.9-0.8c2.2,0.9,4.1,1.7,5.8,2.5
		c1.7,0.8,3.5,1.7,5.2,2.7s3.7,2.1,5.8,3.3l0.6-0.7c-1.8-3-3.5-5.7-5.1-8.1s-3.2-4.9-4.8-7.4c-1.5-2.5-3.1-5.3-4.7-8.4
		c1.2-1,2.5-2,3.9-3c1.4-1,3.1-1.8,4.9-2.4c4.5-1.4,8.2-1.6,11.1-0.6s4.6,3.4,5.2,7.2c0.3,2.1,0.5,4.2,0.7,6.2c0.2,2,0.2,4,0.3,6
		c0.1,2,0.1,4.1,0.1,6.2l0.9,0.2c0.7-1.3,1.4-2.6,2.1-4s1.5-2.8,2.2-4.2s1.4-2.9,2-4.4c1.5-3.1,2.6-5.5,3.2-7.2
		c0.7-1.8,1.2-3.9,1.7-6.4c2,0.6,3.9,1.4,5.9,2.6S1863.8,217.6,1865.8,219.3L1865.8,219.3z"/>
</g>
<g id="history-top-design">
	<path d="M2378.3,85c10.6,2.8,17.6,7.4,21.2,14c3.6,6.6,2.5,15.7-3.3,27.3c-1.3,3.1-2.7,6-4.2,8.8s-3,5.2-4.5,7.4
		c-1.5,2.2-3.1,4.4-4.8,6.5l0.7,1.2c4.6-2.7,9.4-5.4,14.2-8.2c4.9-2.8,10.1-5.6,15.7-8.7c5.6-3,12-6,19.2-9c2.2,3.1,4,6,5.5,8.8
		c1.5,2.8,2.6,6,3.5,9.7c2.7,9,2.9,16.5,0.5,22.4c-2.4,5.9-7.5,9.1-15.4,9.6c-4.9,0.3-9.4,0.5-13.6,0.4c-4.1,0-8.1,0-11.9,0
		c-3.8,0-7.9-0.2-12.4-0.6l-0.5,1.9c6.2,3.5,11.7,6.7,16.5,9.6s9.6,6,14.5,9.1c4.9,3.1,10.6,7,17,11.7c-1.6,3.5-3.2,6.6-4.9,9.4
		c-1.6,2.8-3.9,5.4-6.9,7.9c-6.6,6.8-12.9,10.6-19,11.3s-11.6-2.2-16.5-8.8c-2.8-3.5-5.1-7-6.9-10.4c-1.9-3.5-3.7-7-5.5-10.6
		c-1.8-3.6-4-7.3-6.4-11.2l-2.1,0.1c0.1,3.9,0.1,7.5,0,10.7c-0.1,3.2-0.3,6.4-0.6,9.5c-0.2,3.2-0.5,6.4-0.7,9.8
		c-0.1,4.8-0.1,9,0,12.6c0.1,3.6,0.5,6.9,1.1,9.8s1.3,6.1,2,9.5c-4.7,0.4-9.1,0.4-13.3,0.1c-4.2-0.3-8.8-1.2-13.9-2.8
		c-10.8-2.8-18-7.5-21.7-14.1s-2.4-15.6,3.8-27.1c1.2-2.9,2.7-5.7,4.6-8.3c1.8-2.6,3.6-5.3,5.2-8.1c1.6-2.8,3.5-5.8,5.4-8.9l-1.1-1
		c-6,3.5-11.5,6.7-16.6,9.5c-5.1,2.8-10.2,5.6-15.3,8.3c-5.1,2.7-10.8,5.5-17.1,8.5c-1.9-2.6-3.7-5.4-5.5-8.7s-3.3-6.6-4.4-10.1
		c-2.4-9.1-2.6-16.7-0.3-22.7s7.4-9.2,15.6-9.6c4.7-0.4,9-0.6,12.9-0.6c3.9,0,7.9,0.1,12,0.2c4.1,0.1,8.6,0.4,13.6,0.8l0.5-1.9
		c-5.9-3.8-11.5-7.2-16.7-10.2c-5.2-3-10.3-6-15.4-9.2c-5.1-3.1-10.5-6.9-16.2-11.1c1.2-2.9,2.7-5.9,4.4-9c1.7-3.1,4-6,6.8-8.8
		c7-6.7,13.6-10.4,19.8-11.2c6.2-0.8,11.6,2,16.1,8.5c2.5,3.6,4.8,7.2,6.9,10.8c2.1,3.5,4.1,7.1,6,10.7c1.9,3.6,3.9,7.4,5.8,11.4
		l1.9-0.6c0.1-3,0.2-6,0.3-9.2c0.1-3.2,0.2-6.4,0.3-9.8s-0.1-6.6-0.4-9.9c0-6.9-0.2-12.3-0.6-16.2c-0.4-3.9-1.3-8.3-2.7-13.3
		c4.1-0.8,8.5-0.9,13.1-0.6C2368.3,82.7,2373.2,83.6,2378.3,85L2378.3,85z"/>
	<path d="M2517.9,99.2c5.8,1.5,9.6,4.1,11.6,7.7c2,3.6,1.4,8.6-1.8,14.9c-0.7,1.7-1.5,3.3-2.3,4.8c-0.8,1.5-1.7,2.8-2.5,4.1
		s-1.7,2.4-2.6,3.6l0.4,0.7c2.5-1.5,5.1-3,7.8-4.5c2.7-1.5,5.5-3.1,8.6-4.7s6.6-3.3,10.5-4.9c1.2,1.7,2.2,3.3,3,4.8s1.4,3.3,1.9,5.3
		c1.5,4.9,1.6,9,0.3,12.2s-4.1,5-8.4,5.2c-2.7,0.2-5.2,0.3-7.4,0.2c-2.3,0-4.4,0-6.5,0s-4.4-0.1-6.8-0.4l-0.3,1.1
		c3.4,1.9,6.4,3.6,9,5.3c2.6,1.6,5.2,3.3,7.9,5s5.8,3.8,9.3,6.4c-0.9,1.9-1.8,3.6-2.7,5.2s-2.2,3-3.8,4.3c-3.6,3.7-7.1,5.8-10.4,6.2
		c-3.3,0.4-6.3-1.2-9-4.8c-1.5-1.9-2.8-3.8-3.8-5.7c-1-1.9-2-3.8-3-5.8c-1-2-2.2-4-3.5-6.1l-1.1,0.1c0.1,2.2,0.1,4.1,0,5.9
		c-0.1,1.7-0.2,3.5-0.3,5.2c-0.1,1.7-0.3,3.5-0.4,5.4c-0.1,2.6-0.1,4.9,0,6.9c0.1,2,0.2,3.8,0.6,5.4s0.7,3.3,1.1,5.2
		c-2.6,0.2-5,0.2-7.3,0.1c-2.3-0.1-4.8-0.7-7.6-1.5c-5.9-1.5-9.9-4.1-11.9-7.7s-1.3-8.6,2.1-14.9c0.7-1.6,1.5-3.1,2.5-4.5
		c1-1.4,2-2.9,2.9-4.4c0.9-1.5,1.9-3.2,3-4.9l-0.6-0.5c-3.3,1.9-6.3,3.6-9.1,5.2c-2.8,1.5-5.6,3.1-8.4,4.5s-5.9,3-9.3,4.6
		c-1-1.4-2-3-3-4.8s-1.8-3.6-2.4-5.5c-1.3-5-1.4-9.1-0.2-12.4s4.1-5,8.5-5.2c2.6-0.2,4.9-0.3,7.1-0.3c2.1,0,4.3,0,6.6,0.1
		c2.2,0.1,4.7,0.2,7.4,0.4l0.3-1.1c-3.2-2.1-6.3-4-9.1-5.6c-2.9-1.6-5.6-3.3-8.4-5s-5.7-3.8-8.9-6.1c0.7-1.6,1.5-3.2,2.4-4.9
		c0.9-1.7,2.2-3.3,3.7-4.8c3.9-3.7,7.5-5.7,10.9-6.1c3.4-0.4,6.3,1.1,8.8,4.7c1.4,2,2.6,4,3.8,5.9s2.2,3.9,3.3,5.9s2.1,4.1,3.2,6.2
		l1-0.3c0.1-1.6,0.1-3.3,0.2-5.1c0.1-1.7,0.1-3.5,0.2-5.3c0-1.8,0-3.6-0.2-5.4c0-3.8-0.1-6.7-0.3-8.9c-0.2-2.1-0.7-4.6-1.5-7.3
		c2.2-0.4,4.6-0.5,7.2-0.3C2512.4,97.9,2515.1,98.4,2517.9,99.2L2517.9,99.2z"/>
	<path d="M2492.6,197.8c4.3,1.1,7.1,3,8.6,5.7c1.4,2.7,1,6.3-1.3,11c-0.5,1.3-1.1,2.4-1.7,3.5c-0.6,1.1-1.2,2.1-1.8,3
		c-0.6,0.9-1.3,1.8-1.9,2.6l0.3,0.5c1.9-1.1,3.8-2.2,5.8-3.3c2-1.1,4.1-2.3,6.4-3.5s4.9-2.4,7.8-3.6c0.9,1.3,1.6,2.4,2.2,3.6
		c0.6,1.1,1.1,2.4,1.4,3.9c1.1,3.6,1.2,6.7,0.2,9.1c-0.9,2.4-3,3.7-6.2,3.9c-2,0.1-3.8,0.2-5.5,0.2c-1.7,0-3.3,0-4.8,0
		s-3.2-0.1-5-0.3l-0.2,0.8c2.5,1.4,4.7,2.7,6.7,3.9s3.9,2.4,5.9,3.7s4.3,2.8,6.9,4.7c-0.6,1.4-1.3,2.7-2,3.8
		c-0.7,1.1-1.6,2.2-2.8,3.2c-2.7,2.8-5.2,4.3-7.7,4.6s-4.7-0.9-6.7-3.6c-1.1-1.4-2.1-2.8-2.8-4.2s-1.5-2.8-2.2-4.3
		c-0.7-1.4-1.6-2.9-2.6-4.5l-0.9,0.1c0.1,1.6,0.1,3,0,4.3c-0.1,1.3-0.1,2.6-0.2,3.9s-0.2,2.6-0.3,4c0,1.9,0,3.6,0,5.1
		c0,1.5,0.2,2.8,0.4,4s0.5,2.5,0.8,3.8c-1.9,0.2-3.7,0.2-5.4,0.1c-1.7-0.1-3.6-0.5-5.6-1.1c-4.4-1.1-7.3-3-8.8-5.7
		c-1.5-2.7-1-6.3,1.5-11c0.5-1.2,1.1-2.3,1.9-3.4c0.7-1.1,1.4-2.2,2.1-3.3c0.7-1.1,1.4-2.3,2.2-3.6l-0.5-0.4
		c-2.4,1.4-4.7,2.7-6.7,3.8c-2.1,1.1-4.1,2.2-6.2,3.4c-2.1,1.1-4.4,2.2-6.9,3.4c-0.8-1-1.5-2.2-2.2-3.5c-0.7-1.3-1.3-2.7-1.8-4.1
		c-1-3.7-1-6.8-0.1-9.2c0.9-2.4,3-3.7,6.3-3.9c1.9-0.1,3.6-0.2,5.2-0.2c1.6,0,3.2,0,4.9,0.1c1.7,0.1,3.5,0.2,5.5,0.3l0.2-0.8
		c-2.4-1.6-4.6-2.9-6.7-4.1c-2.1-1.2-4.2-2.4-6.2-3.7s-4.2-2.8-6.6-4.5c0.5-1.2,1.1-2.4,1.8-3.6s1.6-2.4,2.7-3.6
		c2.9-2.7,5.5-4.2,8-4.5c2.5-0.3,4.7,0.8,6.5,3.4c1,1.5,1.9,2.9,2.8,4.4c0.8,1.4,1.6,2.9,2.4,4.3s1.6,3,2.4,4.6l0.8-0.2
		c0-1.2,0.1-2.4,0.1-3.7c0.1-1.3,0.1-2.6,0.1-3.9c0-1.3,0-2.7-0.1-4c0-2.8-0.1-5-0.2-6.6c-0.1-1.6-0.5-3.4-1.1-5.4
		c1.7-0.3,3.4-0.4,5.3-0.2S2490.6,197.3,2492.6,197.8L2492.6,197.8z"/>
</g>
<g id="alphabet-top-design">
	<path d="M3187.9,49.4c10.6,2.8,17.6,7.4,21.2,14c3.6,6.6,2.5,15.7-3.3,27.3c-1.3,3.1-2.7,6-4.2,8.8s-3,5.2-4.5,7.4
		c-1.5,2.2-3.1,4.4-4.8,6.5l0.7,1.2c4.6-2.7,9.4-5.4,14.2-8.2c4.9-2.8,10.1-5.7,15.7-8.7c5.6-3,12-6,19.2-9c2.2,3.1,4,6.1,5.5,8.8
		s2.6,6,3.5,9.7c2.7,9,2.9,16.5,0.5,22.4c-2.4,5.9-7.5,9.1-15.4,9.6c-4.9,0.3-9.4,0.5-13.6,0.4c-4.1,0-8.1,0-11.9,0
		c-3.8,0-7.9-0.2-12.4-0.6l-0.5,1.9c6.2,3.5,11.7,6.7,16.5,9.6s9.6,6,14.5,9.1c4.9,3.1,10.6,7,17,11.7c-1.6,3.5-3.2,6.6-4.9,9.4
		c-1.6,2.8-3.9,5.4-6.9,7.9c-6.6,6.8-12.9,10.6-19,11.3s-11.6-2.2-16.5-8.8c-2.8-3.5-5.1-7-6.9-10.4c-1.9-3.5-3.7-7-5.5-10.6
		c-1.8-3.6-4-7.3-6.4-11.2l-2.1,0.1c0.1,3.9,0.1,7.5,0,10.7c-0.1,3.2-0.3,6.4-0.6,9.5c-0.2,3.2-0.5,6.4-0.7,9.8
		c-0.1,4.8-0.1,9,0,12.6c0.1,3.6,0.5,6.9,1.1,9.8s1.3,6.1,2,9.5c-4.7,0.4-9.1,0.4-13.3,0.1c-4.2-0.3-8.8-1.2-13.9-2.8
		c-10.8-2.8-18-7.5-21.7-14.1s-2.4-15.6,3.8-27.1c1.2-2.9,2.7-5.7,4.6-8.3c1.8-2.6,3.6-5.3,5.2-8.1c1.6-2.8,3.5-5.8,5.4-8.9l-1.1-1
		c-6,3.5-11.5,6.7-16.6,9.5c-5.1,2.8-10.2,5.6-15.3,8.3c-5.1,2.7-10.8,5.5-17.1,8.5c-1.9-2.6-3.7-5.4-5.5-8.7s-3.3-6.6-4.4-10.1
		c-2.4-9.1-2.6-16.7-0.3-22.7s7.4-9.2,15.6-9.6c4.7-0.4,9-0.6,12.9-0.6c3.9,0,7.9,0.1,12,0.2c4.1,0.2,8.6,0.4,13.6,0.8l0.5-1.9
		c-5.9-3.8-11.5-7.2-16.7-10.2c-5.2-3-10.3-6-15.4-9.2c-5.1-3.2-10.5-6.9-16.2-11.1c1.2-2.9,2.7-5.9,4.4-9c1.7-3.1,4-6,6.8-8.8
		c7-6.7,13.6-10.4,19.8-11.2c6.2-0.8,11.6,2,16.1,8.5c2.5,3.6,4.8,7.2,6.9,10.8c2.1,3.5,4.1,7.1,6,10.7c1.9,3.6,3.9,7.4,5.8,11.4
		l1.9-0.6c0.1-3,0.2-6,0.3-9.2c0.1-3.2,0.2-6.4,0.3-9.8s-0.1-6.6-0.4-9.9c0-6.9-0.2-12.3-0.6-16.2c-0.4-3.9-1.3-8.3-2.7-13.3
		c4.1-0.8,8.5-1,13.1-0.6C3177.9,47.2,3182.8,48,3187.9,49.4L3187.9,49.4z"/>
	<path d="M3327.5,87.6c5.8,1.5,9.6,4.1,11.6,7.7c2,3.6,1.4,8.6-1.8,14.9c-0.7,1.7-1.5,3.3-2.3,4.8c-0.8,1.5-1.7,2.8-2.5,4.1
		s-1.7,2.4-2.6,3.6l0.4,0.7c2.5-1.5,5.1-3,7.8-4.5c2.7-1.5,5.5-3.1,8.6-4.7s6.6-3.3,10.5-4.9c1.2,1.7,2.2,3.3,3,4.8
		c0.8,1.5,1.4,3.3,1.9,5.3c1.5,4.9,1.6,9,0.3,12.2s-4.1,5-8.4,5.2c-2.7,0.2-5.2,0.3-7.4,0.2c-2.3,0-4.4,0-6.5,0s-4.4-0.1-6.8-0.4
		l-0.3,1.1c3.4,1.9,6.4,3.6,9,5.3c2.6,1.6,5.2,3.3,7.9,5s5.8,3.8,9.3,6.4c-0.9,1.9-1.8,3.6-2.7,5.2s-2.2,3-3.8,4.3
		c-3.6,3.7-7.1,5.8-10.4,6.2c-3.3,0.4-6.3-1.2-9-4.8c-1.5-1.9-2.8-3.8-3.8-5.7c-1-1.9-2-3.8-3-5.8c-1-2-2.2-4-3.5-6.1l-1.1,0.1
		c0.1,2.2,0.1,4.1,0,5.9c-0.1,1.7-0.2,3.5-0.3,5.2c-0.1,1.7-0.3,3.5-0.4,5.4c-0.1,2.6-0.1,4.9,0,6.9c0.1,2,0.2,3.8,0.6,5.4
		s0.7,3.3,1.1,5.2c-2.6,0.2-5,0.2-7.3,0.1c-2.3-0.1-4.8-0.7-7.6-1.5c-5.9-1.5-9.9-4.1-11.9-7.7s-1.3-8.6,2.1-14.9
		c0.7-1.6,1.5-3.1,2.5-4.5c1-1.4,2-2.9,2.9-4.4c0.9-1.5,1.9-3.2,3-4.9l-0.6-0.5c-3.3,1.9-6.3,3.6-9.1,5.2c-2.8,1.5-5.6,3.1-8.4,4.5
		s-5.9,3-9.3,4.6c-1-1.4-2-3-3-4.8s-1.8-3.6-2.4-5.5c-1.3-5-1.4-9.1-0.2-12.4s4.1-5,8.5-5.2c2.6-0.2,4.9-0.3,7.1-0.3
		c2.1,0,4.3,0,6.6,0.1c2.2,0.1,4.7,0.2,7.4,0.4l0.3-1.1c-3.2-2.1-6.3-4-9.1-5.6c-2.9-1.6-5.6-3.3-8.4-5c-2.8-1.7-5.7-3.8-8.9-6.1
		c0.7-1.6,1.5-3.2,2.4-4.9c0.9-1.7,2.2-3.3,3.7-4.8c3.9-3.7,7.5-5.7,10.9-6.1c3.4-0.4,6.3,1.1,8.8,4.7c1.4,2,2.6,4,3.8,5.9
		s2.2,3.9,3.3,5.9s2.1,4.1,3.2,6.2l1-0.3c0.1-1.6,0.1-3.3,0.2-5.1c0.1-1.7,0.1-3.5,0.2-5.3c0-1.8,0-3.6-0.2-5.4
		c0-3.8-0.1-6.7-0.3-8.9c-0.2-2.1-0.7-4.6-1.5-7.3c2.2-0.4,4.6-0.5,7.2-0.3C3322,86.4,3324.6,86.8,3327.5,87.6L3327.5,87.6z"/>
	<path d="M3423.1,106.3c4.3,1.1,7.1,3,8.6,5.7c1.4,2.7,1,6.3-1.3,11c-0.5,1.3-1.1,2.4-1.7,3.5c-0.6,1.1-1.2,2.1-1.8,3
		s-1.3,1.8-1.9,2.6l0.3,0.5c1.9-1.1,3.8-2.2,5.8-3.3c2-1.1,4.1-2.3,6.4-3.5s4.9-2.4,7.8-3.6c0.9,1.3,1.6,2.4,2.2,3.6
		c0.6,1.1,1.1,2.4,1.4,3.9c1.1,3.6,1.2,6.7,0.2,9.1c-0.9,2.4-3,3.7-6.2,3.9c-2,0.1-3.8,0.2-5.5,0.2c-1.7,0-3.3,0-4.8,0
		s-3.2-0.1-5-0.3l-0.2,0.8c2.5,1.4,4.7,2.7,6.7,3.9s3.9,2.4,5.9,3.7s4.3,2.8,6.9,4.7c-0.6,1.4-1.3,2.7-2,3.8
		c-0.7,1.1-1.6,2.2-2.8,3.2c-2.7,2.8-5.2,4.3-7.7,4.6s-4.7-0.9-6.7-3.6c-1.1-1.4-2.1-2.8-2.8-4.2s-1.5-2.8-2.2-4.3
		c-0.7-1.4-1.6-2.9-2.6-4.5l-0.9,0.1c0.1,1.6,0.1,3,0,4.3c-0.1,1.3-0.1,2.6-0.2,3.9s-0.2,2.6-0.3,4c0,1.9,0,3.6,0,5.1
		c0,1.4,0.2,2.8,0.4,3.9s0.5,2.5,0.8,3.8c-1.9,0.2-3.7,0.2-5.4,0.1c-1.7-0.1-3.6-0.5-5.6-1.1c-4.4-1.1-7.3-3-8.8-5.7
		c-1.5-2.7-1-6.3,1.5-11c0.5-1.2,1.1-2.3,1.9-3.4c0.7-1.1,1.4-2.2,2.1-3.3c0.7-1.1,1.4-2.3,2.2-3.6l-0.5-0.4
		c-2.4,1.4-4.7,2.7-6.7,3.8c-2.1,1.1-4.1,2.2-6.2,3.4c-2.1,1.1-4.4,2.2-6.9,3.4c-0.8-1-1.5-2.2-2.2-3.5c-0.7-1.3-1.3-2.7-1.8-4.1
		c-1-3.7-1-6.8-0.1-9.2c0.9-2.4,3-3.7,6.3-3.9c1.9-0.1,3.6-0.2,5.2-0.2c1.6,0,3.2,0,4.9,0.1c1.7,0.1,3.5,0.2,5.5,0.3l0.2-0.8
		c-2.4-1.6-4.6-2.9-6.7-4.1c-2.1-1.2-4.2-2.4-6.2-3.7s-4.2-2.8-6.6-4.5c0.5-1.2,1.1-2.4,1.8-3.7s1.6-2.4,2.7-3.6
		c2.9-2.7,5.5-4.2,8-4.5c2.5-0.3,4.7,0.8,6.5,3.4c1,1.5,1.9,2.9,2.8,4.4c0.8,1.4,1.6,2.9,2.4,4.3s1.6,3,2.4,4.6l0.8-0.2
		c0-1.2,0.1-2.4,0.1-3.7c0.1-1.3,0.1-2.6,0.1-3.9c0-1.3,0-2.7-0.1-4c0-2.8-0.1-5-0.2-6.6c-0.1-1.6-0.5-3.4-1.1-5.4
		c1.7-0.3,3.4-0.4,5.3-0.2C3419.1,105.4,3421.1,105.7,3423.1,106.3L3423.1,106.3z"/>
	<path d="M3186.1,283.1c-1.2,5.8-3.6,9.8-7.1,12c-3.5,2.1-8.5,1.8-15-1.1c-1.7-0.6-3.4-1.3-4.9-2.1c-1.5-0.8-2.9-1.5-4.2-2.3
		c-1.3-0.8-2.5-1.6-3.7-2.5l-0.6,0.4c1.6,2.5,3.2,5,4.9,7.6c1.6,2.6,3.4,5.4,5.1,8.4c1.8,3,3.6,6.4,5.4,10.3
		c-1.6,1.3-3.2,2.3-4.7,3.2s-3.2,1.6-5.2,2.2c-4.8,1.7-8.9,2-12.2,0.9s-5.2-3.9-5.6-8.2c-0.3-2.7-0.5-5.1-0.6-7.4
		c-0.1-2.3-0.2-4.4-0.3-6.5c-0.1-2.1-0.1-4.4,0-6.8l-1.1-0.2c-1.7,3.5-3.4,6.6-4.8,9.2c-1.5,2.7-3,5.4-4.6,8.2s-3.6,6-5.9,9.6
		c-1.9-0.8-3.7-1.6-5.3-2.4c-1.6-0.8-3.1-2-4.5-3.6c-3.9-3.4-6.1-6.8-6.6-10.1c-0.6-3.3,0.9-6.4,4.4-9.2c1.8-1.6,3.7-3,5.5-4.1
		s3.7-2.2,5.6-3.3s3.9-2.4,5.9-3.8l-0.1-1.1c-2.1,0.2-4.1,0.3-5.8,0.3s-3.5,0-5.2-0.1c-1.7-0.1-3.5-0.1-5.4-0.1
		c-2.6,0.1-4.9,0.2-6.9,0.3c-2,0.1-3.7,0.4-5.3,0.8s-3.3,0.9-5.1,1.3c-0.3-2.6-0.5-5-0.4-7.3s0.4-4.9,1.1-7.7c1.3-6,3.6-10,7.1-12.2
		s8.5-1.7,14.9,1.4c1.6,0.6,3.2,1.4,4.6,2.3c1.5,0.9,3,1.8,4.6,2.6s3.2,1.7,5,2.7l0.5-0.6c-2.1-3.2-3.9-6.1-5.6-8.8
		c-1.7-2.7-3.3-5.4-4.9-8.1c-1.6-2.7-3.3-5.7-5.1-9.1c1.4-1.1,2.9-2.2,4.6-3.2c1.7-1.1,3.5-2,5.4-2.7c4.9-1.6,9.1-1.8,12.4-0.8
		c3.3,1.1,5.2,3.8,5.6,8.3c0.3,2.6,0.6,4.9,0.7,7.1c0.1,2.1,0.2,4.3,0.2,6.6s0,4.7-0.1,7.4l1.1,0.2c1.9-3.3,3.7-6.4,5.1-9.4
		c1.5-2.9,3-5.8,4.6-8.6c1.6-2.8,3.5-5.9,5.7-9.2c1.6,0.6,3.3,1.3,5.1,2.2c1.8,0.9,3.4,2,5,3.5c3.8,3.7,6.1,7.2,6.6,10.6
		c0.6,3.4-0.8,6.4-4.2,9c-1.9,1.5-3.8,2.8-5.7,4c-1.9,1.2-3.8,2.4-5.7,3.6c-1.9,1.1-3.9,2.3-6.1,3.5l0.4,1c1.6,0,3.3,0,5.1-0.1
		c1.7,0,3.5,0,5.3-0.1c1.8-0.1,3.6-0.2,5.4-0.5c3.8-0.2,6.7-0.5,8.8-0.8s4.5-0.9,7.2-1.8c0.5,2.2,0.7,4.6,0.6,7.1
		C3187,277.5,3186.6,280.2,3186.1,283.1L3186.1,283.1z"/>
	<path d="M3171.9,379.5c-0.9,4.3-2.7,7.3-5.2,8.8s-6.3,1.3-11.1-0.8c-1.3-0.5-2.5-1-3.6-1.5c-1.1-0.6-2.2-1.1-3.1-1.7
		c-0.9-0.6-1.9-1.2-2.7-1.8l-0.5,0.3c1.2,1.8,2.4,3.7,3.6,5.6c1.2,1.9,2.5,4,3.8,6.2c1.3,2.2,2.7,4.8,4,7.6
		c-1.2,0.9-2.4,1.7-3.5,2.4c-1.1,0.6-2.4,1.2-3.9,1.6c-3.6,1.3-6.6,1.5-9.1,0.6s-3.8-2.9-4.2-6.1c-0.2-2-0.4-3.8-0.4-5.5
		c-0.1-1.7-0.1-3.3-0.2-4.8c-0.1-1.5-0.1-3.2,0-5l-0.8-0.2c-1.3,2.6-2.5,4.9-3.6,6.8c-1.1,2-2.2,4-3.4,6c-1.2,2-2.6,4.4-4.4,7.1
		c-1.4-0.6-2.7-1.2-3.9-1.8c-1.2-0.6-2.3-1.5-3.3-2.6c-2.9-2.5-4.5-5-4.9-7.5s0.7-4.7,3.2-6.9c1.4-1.2,2.7-2.2,4.1-3
		s2.8-1.6,4.2-2.4c1.4-0.8,2.9-1.7,4.4-2.8l-0.1-0.9c-1.6,0.1-3,0.2-4.3,0.2c-1.3,0-2.6,0-3.9,0c-1.3,0-2.6-0.1-4-0.1
		c-1.9,0-3.6,0.1-5.1,0.2c-1.4,0.1-2.8,0.3-3.9,0.6c-1.2,0.3-2.4,0.6-3.8,1c-0.2-1.9-0.4-3.7-0.3-5.4c0-1.7,0.3-3.6,0.9-5.7
		c0.9-4.4,2.7-7.4,5.3-9s6.3-1.3,11,1c1.2,0.4,2.3,1,3.4,1.7c1.1,0.7,2.2,1.3,3.4,2c1.2,0.6,2.4,1.3,3.7,2l0.4-0.5
		c-1.5-2.4-2.9-4.5-4.1-6.5c-1.2-2-2.4-4-3.6-6s-2.4-4.2-3.8-6.7c1-0.8,2.1-1.6,3.4-2.4s2.6-1.5,4-2c3.6-1.2,6.7-1.4,9.2-0.6
		c2.5,0.8,3.8,2.8,4.2,6.1c0.2,1.9,0.4,3.6,0.5,5.2s0.1,3.2,0.1,4.9c0,1.7,0,3.5-0.1,5.5l0.8,0.2c1.4-2.5,2.7-4.8,3.8-6.9
		s2.2-4.3,3.4-6.4s2.6-4.4,4.2-6.8c1.2,0.4,2.4,1,3.7,1.6c1.3,0.6,2.5,1.5,3.7,2.6c2.8,2.7,4.5,5.3,4.9,7.8c0.4,2.5-0.6,4.7-3.1,6.7
		c-1.4,1.1-2.8,2.1-4.2,3c-1.4,0.9-2.8,1.8-4.2,2.6s-2.9,1.7-4.5,2.6l0.3,0.7c1.2,0,2.4,0,3.7,0s2.6,0,3.9-0.1c1.3,0,2.7-0.1,4-0.3
		c2.8-0.1,5-0.3,6.5-0.5s3.3-0.7,5.3-1.4c0.4,1.6,0.6,3.4,0.5,5.3S3172.4,377.4,3171.9,379.5L3171.9,379.5z"/>
</g>
<g id="alphabet-bottom-design">
	<path d="M3766.7,149.3c10.6,2.8,17.6,7.4,21.2,14c3.6,6.6,2.5,15.7-3.3,27.3c-1.3,3.1-2.7,6-4.2,8.8s-3,5.2-4.5,7.4
		c-1.5,2.2-3.1,4.4-4.8,6.5l0.7,1.2c4.6-2.7,9.4-5.4,14.2-8.2c4.9-2.8,10.1-5.6,15.7-8.7c5.6-3,12-6,19.2-9c2.2,3.1,4,6.1,5.5,8.8
		s2.6,6,3.5,9.7c2.7,9,2.9,16.5,0.5,22.4c-2.4,5.9-7.5,9.1-15.4,9.6c-4.9,0.3-9.4,0.5-13.6,0.4c-4.1,0-8.1,0-11.9,0
		c-3.8,0-7.9-0.2-12.4-0.6l-0.5,1.9c6.2,3.5,11.7,6.7,16.5,9.6s9.6,6,14.5,9.1c4.9,3.1,10.6,7,17,11.7c-1.6,3.5-3.2,6.6-4.9,9.4
		c-1.6,2.8-3.9,5.4-6.9,7.9c-6.6,6.8-12.9,10.5-19,11.3s-11.6-2.2-16.5-8.8c-2.8-3.5-5.1-7-6.9-10.4c-1.9-3.5-3.7-7-5.5-10.6
		c-1.8-3.6-4-7.3-6.4-11.2l-2.1,0.1c0.1,4,0.1,7.5,0,10.7c-0.1,3.2-0.3,6.4-0.6,9.5c-0.2,3.2-0.5,6.4-0.7,9.8c-0.1,4.8-0.1,9,0,12.6
		s0.5,6.9,1.1,9.8s1.3,6.1,2,9.5c-4.7,0.4-9.1,0.4-13.3,0.1c-4.2-0.3-8.8-1.2-13.9-2.8c-10.8-2.8-18-7.5-21.7-14.1
		c-3.7-6.6-2.4-15.6,3.8-27.1c1.2-2.9,2.7-5.7,4.6-8.3c1.8-2.6,3.6-5.3,5.2-8.1c1.6-2.8,3.5-5.8,5.4-8.9l-1.1-1
		c-6,3.5-11.5,6.7-16.6,9.5c-5.1,2.8-10.2,5.6-15.3,8.3c-5.1,2.7-10.8,5.5-17.1,8.5c-1.9-2.6-3.7-5.5-5.5-8.7
		c-1.8-3.2-3.3-6.6-4.4-10.1c-2.4-9.1-2.6-16.7-0.3-22.7s7.4-9.2,15.6-9.6c4.7-0.4,9-0.6,12.9-0.6c3.9,0,7.9,0.1,12,0.2
		c4.1,0.1,8.6,0.4,13.6,0.8l0.5-1.9c-5.9-3.8-11.5-7.2-16.7-10.2c-5.2-3-10.3-6-15.4-9.2c-5.1-3.1-10.5-6.9-16.2-11.1
		c1.2-2.9,2.7-5.9,4.4-9c1.7-3.1,4-6,6.8-8.8c7-6.7,13.6-10.4,19.8-11.2c6.2-0.8,11.6,2,16.1,8.5c2.5,3.6,4.8,7.2,6.9,10.8
		c2.1,3.5,4.1,7.1,6,10.7c1.9,3.6,3.9,7.4,5.8,11.4l1.9-0.6c0.1-3,0.2-6,0.3-9.2c0.1-3.2,0.2-6.4,0.3-9.8c0.1-3.3-0.1-6.6-0.4-9.9
		c0-6.9-0.2-12.3-0.6-16.2c-0.4-3.9-1.3-8.3-2.7-13.3c4.1-0.8,8.5-0.9,13.1-0.6C3756.7,147,3761.6,147.9,3766.7,149.3L3766.7,149.3z
		"/>
	<path d="M3630.3,259.5c5.8,1.5,9.6,4.1,11.6,7.6c2,3.6,1.4,8.6-1.8,14.9c-0.7,1.7-1.5,3.3-2.3,4.8c-0.8,1.5-1.7,2.8-2.5,4.1
		s-1.7,2.4-2.6,3.6l0.4,0.7c2.5-1.5,5.1-3,7.8-4.5c2.7-1.5,5.5-3.1,8.6-4.7s6.6-3.3,10.5-4.9c1.2,1.7,2.2,3.3,3,4.8s1.4,3.3,1.9,5.3
		c1.5,4.9,1.6,9,0.3,12.2s-4.1,5-8.4,5.2c-2.7,0.2-5.2,0.3-7.4,0.2c-2.3,0-4.4,0-6.5,0s-4.4-0.1-6.8-0.4l-0.3,1.1
		c3.4,1.9,6.4,3.6,9,5.3s5.2,3.3,7.9,5s5.8,3.8,9.3,6.4c-0.9,1.9-1.8,3.6-2.7,5.2s-2.2,3-3.8,4.3c-3.6,3.7-7.1,5.8-10.4,6.2
		c-3.3,0.4-6.3-1.2-9-4.8c-1.5-1.9-2.8-3.8-3.8-5.7s-2-3.8-3-5.8c-1-2-2.2-4-3.5-6.1l-1.1,0.1c0.1,2.2,0.1,4.1,0,5.9
		c-0.1,1.7-0.2,3.5-0.3,5.2c-0.1,1.7-0.3,3.5-0.4,5.4c-0.1,2.6-0.1,4.9,0,6.9c0.1,2,0.2,3.8,0.6,5.4s0.7,3.3,1.1,5.2
		c-2.6,0.2-5,0.2-7.3,0.1c-2.3-0.1-4.8-0.7-7.6-1.5c-5.9-1.5-9.9-4.1-11.9-7.7c-2-3.6-1.3-8.6,2.1-14.9c0.7-1.6,1.5-3.1,2.5-4.5
		s2-2.9,2.9-4.5c0.9-1.5,1.9-3.2,3-4.9l-0.6-0.5c-3.3,1.9-6.3,3.6-9.1,5.2c-2.8,1.5-5.6,3-8.4,4.5s-5.9,3-9.3,4.6c-1-1.4-2-3-3-4.8
		s-1.8-3.6-2.4-5.5c-1.3-5-1.4-9.1-0.2-12.4s4.1-5,8.5-5.2c2.6-0.2,4.9-0.3,7.1-0.3c2.1,0,4.3,0,6.6,0.1c2.2,0.1,4.7,0.2,7.4,0.4
		l0.3-1.1c-3.2-2.1-6.3-4-9.1-5.6c-2.9-1.6-5.6-3.3-8.4-5s-5.7-3.8-8.9-6.1c0.7-1.6,1.5-3.2,2.4-4.9c0.9-1.7,2.2-3.3,3.7-4.8
		c3.9-3.6,7.5-5.7,10.9-6.1c3.4-0.4,6.3,1.1,8.8,4.6c1.4,2,2.6,4,3.8,5.9c1.1,1.9,2.2,3.9,3.3,5.9c1.1,2,2.1,4,3.2,6.2l1-0.3
		c0.1-1.6,0.1-3.3,0.2-5c0.1-1.7,0.1-3.5,0.2-5.3c0-1.8,0-3.6-0.2-5.4c0-3.8-0.1-6.7-0.3-8.9c-0.2-2.1-0.7-4.5-1.5-7.3
		c2.2-0.4,4.6-0.5,7.2-0.3C3624.8,258.2,3627.4,258.7,3630.3,259.5L3630.3,259.5z"/>
	<path d="M3727.9,57.2c4.3,1.1,7.1,3,8.6,5.7c1.4,2.7,1,6.3-1.3,11c-0.5,1.3-1.1,2.4-1.7,3.5c-0.6,1.1-1.2,2.1-1.8,3
		s-1.3,1.8-1.9,2.6l0.3,0.5c1.9-1.1,3.8-2.2,5.8-3.3c2-1.1,4.1-2.3,6.4-3.5s4.9-2.4,7.8-3.6c0.9,1.3,1.6,2.4,2.2,3.6
		c0.6,1.1,1.1,2.4,1.4,3.9c1.1,3.6,1.2,6.7,0.2,9.1c-0.9,2.4-3,3.7-6.2,3.9c-2,0.1-3.8,0.2-5.5,0.2c-1.7,0-3.3,0-4.8,0
		s-3.2-0.1-5-0.3l-0.2,0.8c2.5,1.4,4.7,2.7,6.7,3.9c1.9,1.2,3.9,2.4,5.9,3.7s4.3,2.8,6.9,4.7c-0.6,1.4-1.3,2.7-2,3.8
		c-0.7,1.1-1.6,2.2-2.8,3.2c-2.7,2.8-5.2,4.3-7.7,4.6s-4.7-0.9-6.7-3.6c-1.1-1.4-2.1-2.8-2.8-4.2s-1.5-2.8-2.2-4.3
		c-0.7-1.4-1.6-2.9-2.6-4.5l-0.9,0.1c0.1,1.6,0.1,3,0,4.3c-0.1,1.3-0.1,2.6-0.2,3.8s-0.2,2.6-0.3,4c0,1.9,0,3.6,0,5.1
		c0,1.4,0.2,2.8,0.4,3.9s0.5,2.5,0.8,3.8c-1.9,0.2-3.7,0.2-5.4,0.1c-1.7-0.1-3.6-0.5-5.6-1.1c-4.4-1.1-7.3-3-8.8-5.7s-1-6.3,1.5-11
		c0.5-1.2,1.1-2.3,1.9-3.4c0.7-1.1,1.4-2.2,2.1-3.3c0.7-1.1,1.4-2.3,2.2-3.6l-0.5-0.4c-2.4,1.4-4.7,2.7-6.7,3.8
		c-2.1,1.1-4.1,2.2-6.2,3.3c-2.1,1.1-4.4,2.2-6.9,3.4c-0.8-1-1.5-2.2-2.2-3.5c-0.7-1.3-1.3-2.7-1.8-4.1c-1-3.7-1-6.8-0.1-9.2
		s3-3.7,6.3-3.9c1.9-0.2,3.6-0.2,5.2-0.2c1.6,0,3.2,0,4.9,0.1c1.7,0.1,3.5,0.2,5.5,0.3l0.2-0.8c-2.4-1.6-4.6-2.9-6.7-4.1
		c-2.1-1.2-4.2-2.4-6.2-3.7s-4.2-2.8-6.6-4.5c0.5-1.2,1.1-2.4,1.8-3.7s1.6-2.4,2.7-3.6c2.9-2.7,5.5-4.2,8-4.5
		c2.5-0.3,4.7,0.8,6.5,3.4c1,1.5,1.9,2.9,2.8,4.4c0.8,1.4,1.6,2.9,2.4,4.3s1.6,3,2.4,4.6l0.8-0.2c0-1.2,0.1-2.4,0.1-3.7
		c0.1-1.3,0.1-2.6,0.1-3.9c0-1.3,0-2.7-0.1-4c0-2.8-0.1-5-0.2-6.6c-0.1-1.6-0.5-3.4-1.1-5.4c1.7-0.3,3.4-0.4,5.3-0.2
		S3725.9,56.6,3727.9,57.2L3727.9,57.2z"/>
</g>
<g id="download-bottom-design">
	<path d="M4112.9,120.4c10.5,2.8,17.6,7.4,21.2,14c3.6,6.6,2.5,15.7-3.3,27.3c-1.3,3.1-2.7,6-4.2,8.8c-1.5,2.7-3,5.2-4.5,7.4
		c-1.5,2.2-3.1,4.4-4.8,6.5l0.7,1.2c4.6-2.7,9.4-5.4,14.2-8.2c4.9-2.8,10.1-5.6,15.7-8.7s12-6,19.2-9c2.2,3.1,4,6.1,5.5,8.8
		s2.6,6,3.5,9.7c2.7,9,2.9,16.5,0.5,22.4c-2.4,5.9-7.5,9.1-15.4,9.6c-4.9,0.3-9.4,0.5-13.6,0.4c-4.1,0-8.1,0-11.9,0s-8-0.2-12.4-0.6
		l-0.5,1.9c6.2,3.5,11.7,6.7,16.5,9.6s9.6,6,14.5,9.1c4.9,3.1,10.6,7,17,11.7c-1.6,3.5-3.2,6.6-4.9,9.4c-1.6,2.8-4,5.4-6.9,7.9
		c-6.6,6.8-12.9,10.5-19,11.3s-11.6-2.2-16.5-8.8c-2.8-3.5-5.1-7-6.9-10.4c-1.9-3.5-3.7-7-5.5-10.6c-1.8-3.6-4-7.3-6.4-11.2
		l-2.1,0.1c0.1,3.9,0.1,7.5,0,10.7c-0.1,3.2-0.3,6.4-0.6,9.5c-0.2,3.2-0.5,6.4-0.7,9.8c-0.1,4.8-0.1,9,0,12.6s0.5,6.9,1.1,9.8
		s1.3,6.1,2,9.5c-4.7,0.4-9.1,0.4-13.3,0.1c-4.2-0.3-8.8-1.2-13.9-2.8c-10.8-2.8-18-7.5-21.7-14.1c-3.7-6.6-2.4-15.6,3.8-27.1
		c1.2-2.9,2.7-5.7,4.6-8.3c1.8-2.6,3.6-5.3,5.2-8.1c1.6-2.8,3.5-5.8,5.4-8.9l-1.1-1c-6,3.5-11.5,6.7-16.6,9.5
		c-5.1,2.8-10.2,5.6-15.3,8.3c-5.1,2.7-10.8,5.5-17.1,8.5c-1.9-2.6-3.7-5.4-5.5-8.7s-3.3-6.6-4.4-10.1c-2.4-9.1-2.6-16.7-0.3-22.7
		s7.4-9.2,15.6-9.6c4.7-0.4,9-0.6,12.9-0.6c3.9,0,7.9,0.1,12,0.2c4.1,0.1,8.6,0.4,13.6,0.8l0.5-1.9c-5.9-3.8-11.5-7.2-16.7-10.2
		c-5.2-3-10.3-6-15.4-9.2c-5.1-3.1-10.5-6.9-16.2-11.1c1.2-2.9,2.7-5.9,4.4-9c1.7-3.1,4-6,6.8-8.8c7-6.7,13.6-10.4,19.8-11.2
		c6.2-0.8,11.6,2,16.1,8.5c2.5,3.6,4.8,7.2,6.9,10.8c2.1,3.5,4.1,7.1,6,10.7c1.9,3.6,3.9,7.4,5.8,11.4l1.9-0.6c0.1-3,0.2-6,0.3-9.2
		c0.1-3.2,0.2-6.4,0.3-9.8c0.1-3.3-0.1-6.6-0.4-9.9c0-6.9-0.2-12.3-0.6-16.2c-0.4-3.9-1.3-8.3-2.7-13.3c4.1-0.8,8.5-0.9,13.1-0.6
		C4102.8,118.2,4107.7,119,4112.9,120.4L4112.9,120.4z"/>
	<path d="M3976.5,230.6c5.8,1.5,9.6,4.1,11.6,7.6c2,3.6,1.4,8.6-1.8,14.9c-0.7,1.7-1.5,3.3-2.3,4.8c-0.8,1.5-1.7,2.8-2.5,4.1
		s-1.7,2.4-2.6,3.6l0.4,0.7c2.5-1.5,5.1-3,7.8-4.5c2.7-1.5,5.5-3.1,8.6-4.7s6.6-3.3,10.5-4.9c1.2,1.7,2.2,3.3,3,4.8s1.4,3.3,1.9,5.3
		c1.5,4.9,1.6,9,0.3,12.2s-4.1,5-8.4,5.2c-2.7,0.2-5.2,0.3-7.4,0.2c-2.3,0-4.4,0-6.5,0s-4.4-0.1-6.8-0.4l-0.3,1.1
		c3.4,1.9,6.4,3.6,9,5.3s5.2,3.3,7.9,5s5.8,3.8,9.3,6.4c-0.9,1.9-1.8,3.6-2.7,5.2s-2.2,3-3.8,4.3c-3.6,3.7-7.1,5.8-10.4,6.2
		c-3.3,0.4-6.3-1.2-9-4.8c-1.5-1.9-2.8-3.8-3.8-5.7s-2-3.8-3-5.8c-1-2-2.2-4-3.5-6.1l-1.1,0.1c0.1,2.2,0.1,4.1,0,5.9
		c-0.1,1.7-0.2,3.5-0.3,5.2c-0.1,1.7-0.3,3.5-0.4,5.4c-0.1,2.6-0.1,4.9,0,6.9c0.1,2,0.2,3.8,0.6,5.4s0.7,3.3,1.1,5.2
		c-2.6,0.2-5,0.2-7.3,0.1c-2.3-0.1-4.8-0.7-7.6-1.5c-5.9-1.5-9.9-4.1-11.9-7.7c-2-3.6-1.3-8.6,2.1-14.9c0.7-1.6,1.5-3.1,2.5-4.5
		s2-2.9,2.9-4.5c0.9-1.5,1.9-3.2,3-4.9l-0.6-0.5c-3.3,1.9-6.3,3.6-9.1,5.2c-2.8,1.5-5.6,3-8.4,4.5s-5.9,3-9.3,4.6c-1-1.4-2-3-3-4.8
		s-1.8-3.6-2.4-5.5c-1.3-5-1.4-9.1-0.2-12.4s4.1-5,8.5-5.2c2.6-0.2,4.9-0.3,7.1-0.3c2.1,0,4.3,0,6.6,0.1c2.2,0.1,4.7,0.2,7.4,0.4
		l0.3-1.1c-3.2-2.1-6.3-4-9.1-5.6c-2.9-1.6-5.6-3.3-8.4-5s-5.7-3.8-8.9-6.1c0.7-1.6,1.5-3.2,2.4-4.9c0.9-1.7,2.2-3.3,3.7-4.8
		c3.9-3.6,7.5-5.7,10.9-6.1c3.4-0.4,6.3,1.1,8.8,4.6c1.4,2,2.6,4,3.8,5.9s2.2,3.9,3.3,5.9c1.1,2,2.1,4,3.2,6.2l1-0.3
		c0.1-1.6,0.1-3.3,0.2-5c0.1-1.7,0.1-3.5,0.2-5.3c0-1.8,0-3.6-0.2-5.4c0-3.8-0.1-6.7-0.3-8.9c-0.2-2.1-0.7-4.6-1.5-7.3
		c2.2-0.4,4.6-0.5,7.2-0.3C3970.9,229.4,3973.6,229.8,3976.5,230.6L3976.5,230.6z"/>
	<path d="M4095.6,1.6c6.2,1.6,10.3,4.3,12.4,8.2c2.1,3.9,1.5,9.2-1.9,16c-0.8,1.8-1.6,3.5-2.5,5.1c-0.9,1.6-1.8,3-2.6,4.4
		s-1.8,2.6-2.8,3.8l0.4,0.7c2.7-1.6,5.5-3.2,8.3-4.8c2.9-1.6,5.9-3.3,9.2-5.1s7-3.5,11.3-5.2c1.3,1.8,2.3,3.5,3.2,5.2
		c0.9,1.6,1.5,3.5,2,5.7c1.6,5.3,1.7,9.6,0.3,13.1c-1.4,3.5-4.4,5.3-9,5.6c-2.9,0.2-5.5,0.3-7.9,0.2c-2.4,0-4.7,0-7,0
		s-4.6-0.1-7.3-0.4l-0.3,1.1c3.6,2,6.9,3.9,9.6,5.6c2.8,1.7,5.6,3.5,8.5,5.4c2.9,1.8,6.2,4.1,9.9,6.8c-0.9,2.1-1.9,3.9-2.9,5.5
		c-1,1.6-2.3,3.2-4,4.6c-3.9,4-7.6,6.2-11.1,6.6s-6.8-1.3-9.7-5.2c-1.6-2-3-4.1-4.1-6.1c-1.1-2-2.2-4.1-3.2-6.2s-2.3-4.3-3.8-6.5
		l-1.2,0.1c0.1,2.3,0.1,4.4,0,6.3s-0.2,3.7-0.3,5.6c-0.1,1.8-0.3,3.8-0.4,5.8c-0.1,2.8-0.1,5.3,0,7.4c0.1,2.1,0.3,4,0.6,5.7
		c0.4,1.7,0.8,3.6,1.2,5.6c-2.8,0.2-5.4,0.3-7.8,0.1c-2.4-0.2-5.2-0.7-8.2-1.6c-6.3-1.6-10.5-4.4-12.7-8.3s-1.4-9.2,2.2-15.9
		c0.7-1.7,1.6-3.3,2.7-4.9c1.1-1.5,2.1-3.1,3.1-4.8c1-1.6,2-3.4,3.2-5.2l-0.7-0.6c-3.5,2-6.7,3.9-9.7,5.5c-3,1.7-6,3.3-8.9,4.8
		c-3,1.6-6.3,3.2-10,5c-1.1-1.5-2.2-3.2-3.2-5.1c-1.1-1.9-1.9-3.9-2.6-5.9c-1.4-5.3-1.5-9.8-0.2-13.3s4.4-5.4,9.1-5.6
		c2.8-0.2,5.3-0.3,7.6-0.3c2.3,0,4.6,0,7,0.1c2.4,0.1,5.1,0.2,8,0.5l0.3-1.1c-3.5-2.2-6.7-4.2-9.8-6c-3.1-1.7-6.1-3.5-9-5.4
		c-2.9-1.8-6.1-4-9.5-6.5c0.7-1.7,1.6-3.5,2.6-5.3c1-1.8,2.3-3.5,4-5.1c4.1-3.9,8-6.1,11.6-6.6c3.6-0.5,6.8,1.2,9.4,5
		c1.5,2.1,2.8,4.2,4,6.3s2.4,4.2,3.5,6.3c1.1,2.1,2.3,4.3,3.4,6.7l1.1-0.3c0.1-1.7,0.1-3.5,0.2-5.4c0.1-1.9,0.1-3.8,0.2-5.7
		c0-1.9,0-3.9-0.2-5.8c0-4.1-0.1-7.2-0.4-9.5c-0.2-2.3-0.8-4.9-1.6-7.8c2.4-0.4,5-0.6,7.7-0.3S4092.6,0.8,4095.6,1.6L4095.6,1.6z"/>
</g>
<g id="download-top-design">
	<path d="M4333,163.8c-6.5-4.9-10-10-10.6-15.5s2.7-11.4,9.9-17.8c1.8-1.8,3.5-3.4,5.3-4.8s3.5-2.7,5.2-3.8c1.7-1.1,3.4-2.2,5.1-3.1
		l-0.1-1c-3.9,0.6-7.9,1.1-12,1.6c-4.1,0.5-8.5,1-13.2,1.5s-9.9,0.7-15.7,0.7c-0.6-2.7-1-5.3-1.3-7.6c-0.2-2.3-0.1-4.9,0.3-7.6
		c0.7-6.9,2.6-12.1,5.9-15.5s7.7-4.2,13.3-2.2c3.5,1.2,6.6,2.3,9.4,3.5c2.8,1.2,5.5,2.3,8.2,3.3c2.6,1,5.4,2.3,8.3,3.9l0.9-1.2
		c-3.3-4.1-6.2-7.9-8.6-11.2c-2.4-3.4-4.9-6.8-7.4-10.3c-2.5-3.5-5.3-7.8-8.4-12.8c2.1-2,4.1-3.6,6-5.1s4.2-2.6,6.9-3.5
		c6.4-2.8,11.8-3.6,16.2-2.4s7.3,4.8,8.9,10.7c0.9,3.2,1.5,6.2,1.8,9.1c0.3,2.9,0.6,5.8,0.8,8.8c0.2,3,0.7,6.1,1.3,9.4l1.5,0.5
		c1-2.7,2-5.2,3-7.3s2-4.3,3.1-6.3c1.1-2.1,2.1-4.3,3.2-6.6c1.4-3.3,2.6-6.1,3.5-8.6s1.6-4.8,2-7s0.8-4.5,1.3-7.1
		c3.3,1.1,6.4,2.3,9.2,3.6c2.8,1.4,5.7,3.3,8.8,5.8c6.6,5,10.2,10.2,10.9,15.8s-2.7,11.4-10.2,17.5c-1.6,1.7-3.5,3.1-5.5,4.4
		c-2,1.3-4,2.7-5.9,4.1c-1.9,1.4-4,3-6.2,4.6l0.5,1c5.1-0.7,9.8-1.3,14-1.8s8.5-0.9,12.8-1.4s8.9-0.8,14.1-1c0.6,2.3,1,4.8,1.3,7.5
		s0.4,5.4,0.2,8.2c-0.9,7-3,12.2-6.2,15.6c-3.2,3.5-7.7,4.2-13.4,2.2c-3.3-1.1-6.3-2.1-9-3.2s-5.4-2.3-8.2-3.5s-5.8-2.7-9.1-4.4
		l-0.9,1.2c3,4.3,5.8,8.2,8.5,11.7c2.7,3.5,5.4,7,8,10.6s5.2,7.6,8,12.2c-1.6,1.6-3.5,3.3-5.6,4.9c-2.1,1.6-4.4,3-7.1,4.1
		c-6.7,2.6-12.3,3.3-16.7,2.1c-4.5-1.2-7.3-4.6-8.6-10.3c-0.7-3.2-1.2-6.3-1.7-9.3s-0.8-6-1.1-9s-0.6-6.2-0.8-9.4l-1.4-0.1
		c-0.9,2-1.8,4.1-2.8,6.2c-1,2.1-2,4.3-3,6.6c-1,2.3-1.8,4.6-2.5,6.9c-1.9,4.8-3.3,8.5-4.1,11.3c-0.8,2.8-1.5,6.1-1.9,9.9
		c-3-0.6-6.1-1.7-9.1-3.3C4339.3,168.2,4336.2,166.2,4333,163.8L4333,163.8z"/>
	<path d="M4457.4,156.6c-3.5-2.6-5.5-5.5-5.8-8.5c-0.3-3,1.5-6.2,5.4-9.7c1-1,1.9-1.9,2.9-2.6c1-0.8,1.9-1.5,2.8-2.1
		c0.9-0.6,1.9-1.2,2.8-1.7l-0.1-0.6c-2.1,0.3-4.3,0.6-6.6,0.9s-4.6,0.6-7.2,0.8c-2.6,0.3-5.4,0.4-8.6,0.4c-0.3-1.5-0.6-2.9-0.7-4.1
		c-0.1-1.3-0.1-2.7,0.2-4.2c0.4-3.8,1.4-6.6,3.2-8.5c1.8-1.9,4.2-2.3,7.3-1.2c1.9,0.6,3.6,1.3,5.1,1.9s3,1.3,4.5,1.8s3,1.3,4.6,2.2
		l0.5-0.7c-1.8-2.3-3.4-4.3-4.7-6.1c-1.3-1.8-2.7-3.7-4-5.7c-1.4-1.9-2.9-4.3-4.6-7c1.1-1.1,2.2-2,3.3-2.8s2.3-1.4,3.8-1.9
		c3.5-1.5,6.5-2,8.9-1.3s4,2.6,4.8,5.8c0.5,1.7,0.8,3.4,1,5c0.2,1.6,0.3,3.2,0.4,4.8c0.1,1.6,0.4,3.3,0.7,5.2l0.8,0.3
		c0.6-1.5,1.1-2.8,1.6-4c0.5-1.2,1.1-2.3,1.7-3.5s1.2-2.3,1.8-3.6c0.8-1.8,1.4-3.4,1.9-4.7s0.9-2.6,1.1-3.8s0.5-2.5,0.7-3.9
		c1.8,0.6,3.5,1.2,5,2c1.5,0.8,3.1,1.8,4.8,3.2c3.6,2.7,5.6,5.6,6,8.6c0.4,3-1.5,6.2-5.6,9.6c-0.9,0.9-1.9,1.7-3,2.4
		c-1.1,0.7-2.2,1.4-3.2,2.2c-1,0.8-2.2,1.6-3.4,2.5l0.3,0.5c2.8-0.4,5.3-0.7,7.7-1c2.4-0.3,4.7-0.5,7-0.8s4.9-0.4,7.7-0.6
		c0.3,1.2,0.5,2.6,0.7,4.1s0.2,3,0.1,4.5c-0.5,3.8-1.6,6.7-3.4,8.6c-1.8,1.9-4.2,2.3-7.3,1.2c-1.8-0.6-3.5-1.2-4.9-1.8
		c-1.5-0.6-3-1.2-4.5-1.9c-1.5-0.7-3.2-1.5-5-2.4l-0.5,0.6c1.6,2.3,3.2,4.5,4.7,6.4c1.5,1.9,3,3.9,4.4,5.8c1.4,2,2.9,4.2,4.4,6.7
		c-0.9,0.9-1.9,1.8-3,2.7s-2.4,1.6-3.9,2.2c-3.7,1.4-6.7,1.8-9.2,1.2c-2.4-0.6-4-2.5-4.7-5.7c-0.4-1.8-0.7-3.4-0.9-5.1
		c-0.2-1.6-0.4-3.3-0.6-4.9c-0.2-1.6-0.3-3.4-0.4-5.2l-0.8-0.1c-0.5,1.1-1,2.2-1.5,3.4s-1.1,2.4-1.6,3.6s-1,2.5-1.4,3.8
		c-1,2.6-1.8,4.6-2.3,6.2c-0.5,1.5-0.8,3.3-1,5.4c-1.7-0.3-3.3-0.9-5-1.8C4460.9,159,4459.2,157.9,4457.4,156.6L4457.4,156.6z"/>
	<path d="M4333.4,253.1c-3.8-2.8-5.9-5.9-6.2-9.1c-0.4-3.2,1.6-6.7,5.8-10.4c1-1,2.1-2,3.1-2.8c1-0.8,2.1-1.6,3-2.2
		c1-0.7,2-1.3,3-1.8l-0.1-0.6c-2.3,0.3-4.6,0.6-7,0.9s-5,0.6-7.7,0.9c-2.8,0.3-5.8,0.4-9.2,0.4c-0.4-1.6-0.6-3.1-0.7-4.4
		c-0.1-1.4-0.1-2.9,0.2-4.5c0.4-4.1,1.5-7.1,3.5-9.1c1.9-2,4.5-2.4,7.8-1.3c2,0.7,3.9,1.4,5.5,2.1s3.2,1.4,4.8,2
		c1.5,0.6,3.2,1.4,4.9,2.3l0.5-0.7c-1.9-2.4-3.6-4.6-5-6.6c-1.4-2-2.9-4-4.3-6.1c-1.5-2.1-3.1-4.6-4.9-7.5c1.2-1.1,2.4-2.1,3.5-3
		c1.1-0.9,2.5-1.5,4-2c3.8-1.6,6.9-2.1,9.5-1.4c2.5,0.7,4.3,2.8,5.2,6.2c0.5,1.9,0.9,3.6,1.1,5.3s0.3,3.4,0.5,5.1
		c0.1,1.7,0.4,3.6,0.7,5.5l0.9,0.3c0.6-1.6,1.2-3,1.8-4.3c0.6-1.2,1.2-2.5,1.8-3.7c0.6-1.2,1.2-2.5,1.9-3.8c0.8-1.9,1.5-3.6,2.1-5.1
		c0.5-1.5,0.9-2.8,1.2-4.1s0.5-2.6,0.8-4.1c2,0.6,3.7,1.3,5.4,2.1s3.3,1.9,5.1,3.4c3.9,2.9,6,6,6.4,9.2c0.4,3.2-1.6,6.7-6,10.3
		c-1,1-2,1.8-3.2,2.6c-1.2,0.8-2.3,1.6-3.4,2.4c-1.1,0.9-2.3,1.8-3.6,2.7l0.3,0.6c3-0.4,5.7-0.8,8.2-1.1c2.5-0.3,5-0.6,7.5-0.8
		c2.5-0.2,5.2-0.4,8.2-0.6c0.3,1.3,0.6,2.8,0.8,4.4s0.2,3.2,0.1,4.8c-0.5,4.1-1.7,7.1-3.6,9.1s-4.5,2.4-7.8,1.3
		c-2-0.6-3.7-1.2-5.3-1.9s-3.2-1.3-4.8-2.1c-1.6-0.7-3.4-1.6-5.3-2.6l-0.5,0.7c1.7,2.5,3.4,4.8,5,6.8c1.6,2.1,3.1,4.1,4.7,6.2
		c1.5,2.1,3.1,4.5,4.7,7.1c-1,1-2,1.9-3.3,2.9c-1.2,1-2.6,1.8-4.2,2.4c-3.9,1.5-7.2,1.9-9.8,1.2c-2.6-0.7-4.3-2.7-5-6.1
		c-0.4-1.9-0.7-3.7-1-5.4c-0.2-1.8-0.5-3.5-0.6-5.3c-0.2-1.8-0.3-3.6-0.5-5.5l-0.8-0.1c-0.5,1.2-1.1,2.4-1.6,3.6
		c-0.6,1.2-1.1,2.5-1.7,3.9c-0.6,1.3-1.1,2.7-1.5,4c-1.1,2.8-1.9,5-2.4,6.6c-0.5,1.6-0.9,3.5-1.1,5.8c-1.8-0.4-3.5-1-5.3-1.9
		C4337.1,255.6,4335.3,254.5,4333.4,253.1L4333.4,253.1z"/>
</g>
<g id="history-bottom-design">
	<path d="M2929.4,57.6c11.9,3.1,19.8,8.3,23.8,15.7c4,7.4,2.8,17.6-3.7,30.6c-1.4,3.5-3,6.8-4.7,9.8c-1.7,3-3.4,5.8-5.1,8.4
		c-1.7,2.5-3.5,5-5.4,7.3l0.8,1.4c5.2-3,10.5-6.1,16-9.2s11.3-6.3,17.6-9.7c6.3-3.4,13.5-6.8,21.6-10.1c2.4,3.5,4.5,6.8,6.1,9.9
		s2.9,6.8,3.9,10.9c3.1,10.1,3.3,18.5,0.6,25.2c-2.6,6.7-8.4,10.3-17.4,10.8c-5.5,0.4-10.6,0.5-15.2,0.5s-9.1-0.1-13.4,0
		s-8.9-0.2-14-0.7l-0.6,2.2c7,3.9,13.2,7.5,18.5,10.8s10.8,6.8,16.3,10.3c5.5,3.5,11.9,7.9,19.1,13.1c-1.8,3.9-3.6,7.4-5.5,10.6
		c-1.9,3.1-4.4,6.1-7.7,8.8c-7.4,7.6-14.5,11.9-21.3,12.7s-13-2.5-18.6-9.9c-3.1-3.9-5.7-7.8-7.8-11.7c-2.1-3.9-4.1-7.9-6.2-11.9
		c-2.1-4-4.4-8.2-7.2-12.5l-2.4,0.2c0.1,4.4,0.1,8.4,0,12c-0.2,3.6-0.4,7.1-0.6,10.7c-0.3,3.6-0.5,7.2-0.8,11
		c-0.1,5.4-0.1,10.1,0,14.1c0.1,4,0.5,7.7,1.2,11s1.4,6.8,2.3,10.7c-5.3,0.4-10.3,0.5-15,0.2s-9.9-1.4-15.7-3.1
		c-12.1-3.2-20.2-8.4-24.4-15.9c-4.1-7.4-2.7-17.6,4.3-30.5c1.4-3.3,3.1-6.4,5.1-9.3c2.1-2.9,4-6,5.9-9.1c1.9-3.1,3.9-6.5,6.1-10
		l-1.3-1.1c-6.7,3.9-12.9,7.5-18.7,10.6c-5.7,3.2-11.5,6.3-17.1,9.3c-5.7,3-12.1,6.2-19.1,9.5c-2.1-2.9-4.2-6.1-6.2-9.8
		c-2-3.6-3.7-7.4-5-11.4c-2.8-10.3-2.9-18.8-0.3-25.5c2.5-6.7,8.4-10.3,17.5-10.7c5.3-0.4,10.1-0.7,14.5-0.7c4.4,0,8.9,0.1,13.5,0.2
		s9.7,0.5,15.3,0.9l0.6-2.2c-6.6-4.3-12.9-8.1-18.7-11.5c-5.9-3.3-11.6-6.8-17.3-10.3c-5.7-3.5-11.8-7.7-18.2-12.5
		c1.4-3.3,3-6.6,5-10.1c1.9-3.5,4.5-6.8,7.6-9.8c7.9-7.5,15.3-11.7,22.3-12.6c6.9-0.9,13,2.3,18.1,9.6c2.8,4.1,5.4,8.1,7.7,12.1
		c2.3,4,4.6,8,6.8,12c2.2,4.1,4.4,8.3,6.6,12.8l2.1-0.6c0.1-3.3,0.2-6.8,0.4-10.4c0.2-3.6,0.3-7.2,0.3-11c0.1-3.7-0.1-7.4-0.4-11.2
		c-0.1-7.8-0.3-13.8-0.7-18.2s-1.4-9.3-3.1-15c4.6-0.9,9.5-1.1,14.7-0.6C2918.1,55.1,2923.6,56.1,2929.4,57.6L2929.4,57.6z"/>
	<path d="M2802.1,202.6c6.1,1.6,10.1,4.3,12.2,8c2.1,3.8,1.4,9-1.9,15.7c-0.7,1.8-1.5,3.5-2.4,5c-0.9,1.6-1.7,3-2.6,4.3
		c-0.9,1.3-1.8,2.5-2.8,3.7l0.4,0.7c2.6-1.6,5.4-3.1,8.2-4.7c2.8-1.6,5.8-3.2,9-5c3.2-1.7,6.9-3.4,11.1-5.1c1.2,1.8,2.3,3.5,3.1,5.1
		c0.8,1.6,1.5,3.5,2,5.6c1.6,5.2,1.7,9.4,0.3,12.9c-1.4,3.4-4.3,5.2-8.9,5.5c-2.8,0.2-5.4,0.3-7.8,0.2s-4.6,0-6.8,0
		c-2.2,0-4.6-0.1-7.1-0.4l-0.3,1.1c3.6,2,6.7,3.8,9.5,5.5c2.7,1.7,5.5,3.5,8.4,5.2c2.8,1.8,6.1,4,9.8,6.7c-0.9,2-1.9,3.8-2.8,5.4
		c-0.9,1.6-2.3,3.1-3.9,4.5c-3.8,3.9-7.4,6.1-10.9,6.5c-3.5,0.4-6.6-1.3-9.5-5c-1.6-2-2.9-4-4-6c-1.1-2-2.1-4-3.2-6.1
		c-1.1-2.1-2.3-4.2-3.7-6.4l-1.2,0.1c0.1,2.3,0.1,4.3,0,6.1c-0.1,1.8-0.2,3.6-0.3,5.5c-0.1,1.8-0.3,3.7-0.4,5.6
		c-0.1,2.8-0.1,5.2,0,7.2c0.1,2.1,0.3,3.9,0.6,5.6s0.7,3.5,1.1,5.5c-2.7,0.2-5.2,0.2-7.6,0.1s-5.1-0.7-8-1.6
		c-6.2-1.6-10.3-4.3-12.5-8.1c-2.1-3.8-1.4-9,2.2-15.6c0.7-1.7,1.6-3.3,2.6-4.8c1.1-1.5,2.1-3.1,3-4.7c0.9-1.6,2-3.3,3.1-5.1
		l-0.6-0.6c-3.4,2-6.6,3.8-9.6,5.4c-2.9,1.6-5.9,3.2-8.8,4.8c-2.9,1.5-6.2,3.2-9.8,4.9c-1.1-1.5-2.1-3.1-3.2-5
		c-1-1.9-1.9-3.8-2.6-5.8c-1.4-5.2-1.5-9.6-0.2-13s4.3-5.3,9-5.5c2.7-0.2,5.2-0.3,7.4-0.3s4.6,0,6.9,0.1c2.4,0.1,5,0.2,7.8,0.4
		l0.3-1.1c-3.4-2.2-6.6-4.2-9.6-5.9c-3-1.7-5.9-3.5-8.8-5.3c-2.9-1.8-6-3.9-9.3-6.4c0.7-1.7,1.5-3.4,2.5-5.2c1-1.8,2.3-3.5,3.9-5
		c4-3.8,7.8-6,11.4-6.4c3.6-0.5,6.6,1.2,9.2,4.9c1.4,2.1,2.8,4.1,3.9,6.2s2.3,4.1,3.4,6.1c1.1,2.1,2.2,4.2,3.4,6.5l1.1-0.3
		c0.1-1.7,0.1-3.5,0.2-5.3c0.1-1.8,0.1-3.7,0.2-5.6c0-1.9,0-3.8-0.2-5.7c0-4-0.1-7.1-0.4-9.3c-0.2-2.2-0.7-4.8-1.6-7.6
		c2.4-0.4,4.9-0.6,7.5-0.3S2799.1,201.8,2802.1,202.6L2802.1,202.6z"/>
	<path d="M2891.6,283.7c6.1,1.6,10.1,4.3,12.2,8c2.1,3.8,1.4,9-1.9,15.7c-0.7,1.8-1.5,3.5-2.4,5c-0.9,1.6-1.7,3-2.6,4.3
		c-0.9,1.3-1.8,2.5-2.8,3.7l0.4,0.7c2.6-1.5,5.4-3.1,8.2-4.7c2.8-1.6,5.8-3.2,9-5c3.2-1.7,6.9-3.5,11.1-5.1c1.2,1.8,2.3,3.5,3.1,5.1
		c0.8,1.6,1.5,3.5,2,5.6c1.6,5.2,1.7,9.5,0.3,12.9c-1.4,3.4-4.3,5.2-8.9,5.5c-2.8,0.2-5.4,0.3-7.8,0.2s-4.6,0-6.8,0
		c-2.2,0-4.6-0.1-7.1-0.4l-0.3,1.1c3.6,2,6.7,3.8,9.5,5.5s5.5,3.5,8.4,5.2c2.8,1.8,6.1,4,9.8,6.7c-0.9,2-1.9,3.8-2.8,5.4
		c-0.9,1.6-2.3,3.1-3.9,4.5c-3.8,3.9-7.4,6.1-10.9,6.5c-3.5,0.4-6.6-1.3-9.5-5c-1.6-2-2.9-4-4-6c-1.1-2-2.1-4-3.2-6.1
		c-1.1-2.1-2.3-4.2-3.7-6.4l-1.2,0.1c0.1,2.3,0.1,4.3,0,6.1c-0.1,1.8-0.2,3.6-0.3,5.5c-0.1,1.8-0.3,3.7-0.4,5.6
		c-0.1,2.8-0.1,5.2,0,7.2c0.1,2.1,0.3,3.9,0.6,5.6s0.7,3.5,1.1,5.5c-2.7,0.2-5.2,0.2-7.6,0.1s-5.1-0.7-8-1.6
		c-6.2-1.6-10.3-4.3-12.5-8.1c-2.1-3.8-1.4-9,2.2-15.6c0.7-1.7,1.6-3.3,2.6-4.8c1.1-1.5,2.1-3.1,3-4.7c0.9-1.6,2-3.3,3.1-5.1
		l-0.6-0.6c-3.4,2-6.6,3.8-9.6,5.4c-2.9,1.6-5.9,3.2-8.8,4.8c-2.9,1.5-6.2,3.2-9.8,4.9c-1.1-1.5-2.1-3.1-3.2-5
		c-1-1.9-1.9-3.8-2.6-5.8c-1.4-5.2-1.5-9.6-0.2-13s4.3-5.3,9-5.5c2.7-0.2,5.2-0.3,7.4-0.3s4.6,0,6.9,0.1c2.4,0.1,5,0.2,7.8,0.5
		l0.3-1.1c-3.4-2.2-6.6-4.2-9.6-5.9c-3-1.7-5.9-3.5-8.8-5.3c-2.9-1.8-6-3.9-9.3-6.4c0.7-1.7,1.5-3.4,2.5-5.2c1-1.8,2.3-3.5,3.9-5
		c4-3.8,7.8-6,11.4-6.5c3.6-0.5,6.6,1.2,9.2,4.9c1.4,2.1,2.8,4.1,3.9,6.2s2.3,4.1,3.4,6.1c1.1,2.1,2.2,4.2,3.4,6.5l1.1-0.3
		c0.1-1.7,0.1-3.5,0.2-5.3c0.1-1.8,0.1-3.7,0.2-5.6c0-1.9,0-3.8-0.2-5.7c0-4-0.1-7.1-0.4-9.3c-0.2-2.2-0.7-4.8-1.6-7.6
		c2.4-0.4,4.9-0.5,7.5-0.3C2885.8,282.4,2888.6,282.9,2891.6,283.7L2891.6,283.7z"/>
	<path d="M2786.8,332.8c3.2,0.8,5.3,2.2,6.4,4.2c1.1,2,0.8,4.7-1,8.3c-0.4,0.9-0.8,1.8-1.3,2.6s-0.9,1.6-1.4,2.3
		c-0.5,0.7-0.9,1.3-1.4,2l0.2,0.4c1.4-0.8,2.8-1.6,4.3-2.5c1.5-0.8,3.1-1.7,4.8-2.6c1.7-0.9,3.6-1.8,5.8-2.7
		c0.7,0.9,1.2,1.8,1.6,2.7s0.8,1.8,1.1,2.9c0.8,2.7,0.9,5,0.2,6.8c-0.7,1.8-2.3,2.8-4.7,2.9c-1.5,0.1-2.9,0.1-4.1,0.1s-2.4,0-3.6,0
		c-1.1,0-2.4,0-3.8-0.2l-0.1,0.6c1.9,1,3.6,2,5,2.9c1.4,0.9,2.9,1.8,4.4,2.8c1.5,1,3.2,2.1,5.1,3.5c-0.5,1.1-1,2-1.5,2.9
		c-0.5,0.9-1.2,1.6-2.1,2.4c-2,2.1-3.9,3.2-5.8,3.4c-1.8,0.2-3.5-0.7-5-2.7c-0.8-1-1.5-2.1-2.1-3.2c-0.6-1-1.1-2.1-1.7-3.2
		c-0.6-1.1-1.2-2.2-1.9-3.4l-0.6,0c0,1.2,0,2.3,0,3.2c0,1-0.1,1.9-0.2,2.9c-0.1,1-0.1,2-0.2,3c0,1.5,0,2.7,0,3.8
		c0,1.1,0.1,2.1,0.3,3c0.2,0.9,0.4,1.8,0.6,2.9c-1.4,0.1-2.8,0.1-4,0c-1.3-0.1-2.7-0.4-4.2-0.8c-3.3-0.9-5.4-2.3-6.6-4.3
		s-0.7-4.7,1.1-8.2c0.4-0.9,0.8-1.7,1.4-2.5c0.6-0.8,1.1-1.6,1.6-2.5s1.1-1.8,1.6-2.7l-0.3-0.3c-1.8,1.1-3.5,2-5,2.9
		c-1.6,0.9-3.1,1.7-4.6,2.5c-1.5,0.8-3.3,1.7-5.2,2.6c-0.6-0.8-1.1-1.6-1.7-2.6c-0.6-1-1-2-1.3-3.1c-0.7-2.8-0.8-5.1-0.1-6.9
		s2.2-2.8,4.7-2.9c1.4-0.1,2.7-0.2,3.9-0.2c1.2,0,2.4,0,3.6,0.1c1.2,0,2.6,0.1,4.1,0.2l0.1-0.6c-1.8-1.2-3.5-2.2-5.1-3.1
		s-3.1-1.8-4.7-2.8c-1.5-1-3.2-2.1-4.9-3.4c0.4-0.9,0.8-1.8,1.3-2.7c0.5-0.9,1.2-1.8,2.1-2.6c2.1-2,4.1-3.2,6-3.4
		c1.9-0.2,3.5,0.6,4.9,2.6c0.8,1.1,1.4,2.2,2.1,3.3c0.6,1.1,1.2,2.1,1.8,3.2s1.2,2.2,1.8,3.4l0.6-0.2c0-0.9,0.1-1.8,0.1-2.8
		c0-1,0.1-2,0.1-3c0-1,0-2-0.1-3c0-2.1-0.1-3.7-0.2-4.9c-0.1-1.2-0.4-2.5-0.8-4c1.2-0.2,2.6-0.3,4-0.2
		C2783.8,332.1,2785.3,332.4,2786.8,332.8L2786.8,332.8z"/>
	<path d="M2701.3,294.8c5.2,1.4,8.6,3.6,10.4,6.9s1.2,7.7-1.6,13.4c-0.6,1.5-1.3,3-2.1,4.3c-0.7,1.3-1.5,2.5-2.2,3.6
		c-0.7,1.1-1.5,2.2-2.4,3.2l0.4,0.6c2.3-1.3,4.6-2.7,7-4c2.4-1.4,4.9-2.8,7.7-4.2s5.9-2.9,9.4-4.4c1.1,1.5,2,3,2.7,4.3
		s1.3,3,1.7,4.8c1.3,4.4,1.4,8.1,0.3,11s-3.7,4.5-7.6,4.7c-2.4,0.2-4.6,0.2-6.6,0.2c-2,0-4,0-5.8,0s-3.9-0.1-6.1-0.3l-0.2,1
		c3.1,1.7,5.7,3.3,8.1,4.7c2.3,1.5,4.7,2.9,7.1,4.5c2.4,1.5,5.2,3.4,8.3,5.7c-0.8,1.7-1.6,3.2-2.4,4.6c-0.8,1.4-1.9,2.6-3.4,3.9
		c-3.2,3.3-6.3,5.2-9.3,5.5c-3,0.4-5.7-1.1-8.1-4.3c-1.4-1.7-2.5-3.4-3.4-5.1c-0.9-1.7-1.8-3.4-2.7-5.2c-0.9-1.8-1.9-3.6-3.1-5.5
		l-1,0.1c0.1,1.9,0.1,3.7,0,5.2s-0.2,3.1-0.3,4.7c-0.1,1.5-0.2,3.1-0.3,4.8c-0.1,2.4-0.1,4.4,0,6.2s0.2,3.4,0.5,4.8
		c0.3,1.4,0.6,3,1,4.6c-2.3,0.2-4.5,0.2-6.5,0.1c-2.1-0.1-4.3-0.6-6.8-1.4c-5.3-1.4-8.8-3.7-10.6-6.9c-1.8-3.2-1.2-7.7,1.9-13.3
		c0.6-1.4,1.3-2.8,2.2-4.1c0.9-1.3,1.8-2.6,2.6-4c0.8-1.4,1.7-2.8,2.7-4.4l-0.6-0.5c-2.9,1.7-5.6,3.3-8.1,4.6s-5,2.7-7.5,4
		c-2.5,1.3-5.3,2.7-8.4,4.2c-0.9-1.2-1.8-2.7-2.7-4.2s-1.6-3.2-2.2-5c-1.2-4.5-1.2-8.2-0.1-11.1c1.1-2.9,3.6-4.5,7.6-4.7
		c2.3-0.2,4.4-0.3,6.3-0.3c1.9,0,3.9,0,5.9,0.1s4.2,0.2,6.7,0.4l0.2-1c-2.9-1.9-5.6-3.5-8.2-5c-2.6-1.5-5.1-3-7.5-4.5
		c-2.5-1.5-5.1-3.4-8-5.5c0.6-1.4,1.3-2.9,2.2-4.4c0.9-1.5,1.9-3,3.3-4.3c3.4-3.3,6.7-5.1,9.7-5.5c3-0.4,5.7,1,7.9,4.2
		c1.2,1.8,2.3,3.5,3.4,5.3c1,1.7,2,3.5,2.9,5.2c0.9,1.8,1.9,3.6,2.9,5.6l0.9-0.3c0-1.5,0.1-3,0.2-4.5c0.1-1.6,0.1-3.1,0.1-4.8
		c0-1.6,0-3.2-0.2-4.9c0-3.4-0.1-6-0.3-7.9s-0.6-4.1-1.3-6.5c2-0.4,4.1-0.5,6.4-0.3S2698.8,294.1,2701.3,294.8L2701.3,294.8z"/>
</g>
</svg>
